{"glyphs":{"0":{"ha":897,"x_min":74,"x_max":824,"o":"m 74 519 q 160 896 74 760 q 449 1032 247 1032 q 737 896 650 1032 q 824 519 824 760 q 737 140 824 278 q 449 3 650 3 q 160 140 247 3 q 74 519 74 278 m 632 519 q 619 692 632 622 q 566 807 606 763 q 449 851 526 851 q 331 807 371 851 q 278 692 292 763 q 265 519 265 622 q 278 342 265 414 q 331 227 290 271 q 449 183 371 183 q 567 227 526 183 q 619 342 607 271 q 632 519 632 414 z "},"1":{"ha":503,"x_min":50,"x_max":385,"o":"m 50 833 l 50 1013 l 385 1013 l 385 0 l 185 0 l 185 833 l 50 833 z "},"2":{"ha":797,"x_min":61,"x_max":749,"o":"m 135 219 q 347 405 268 331 q 479 560 426 479 q 532 718 532 640 q 499 829 532 789 q 396 869 465 869 q 289 823 326 869 q 250 696 251 776 l 61 696 q 160 949 67 863 q 399 1035 254 1035 q 642 951 557 1035 q 726 729 726 867 q 668 522 726 621 q 535 351 610 424 q 339 175 460 278 l 749 175 l 749 14 l 63 14 l 63 158 l 135 219 z "},"3":{"ha":832,"x_min":63,"x_max":751,"o":"m 76 746 q 174 960 83 885 q 414 1036 265 1036 q 588 1001 515 1036 q 697 905 660 965 q 733 768 733 844 q 688 620 733 681 q 581 539 643 560 l 581 533 q 706 444 661 508 q 751 281 751 381 q 713 132 751 197 q 601 30 675 67 q 422 -7 526 -7 q 167 72 265 -7 q 63 306 68 151 l 251 306 q 298 197 254 238 q 418 156 342 156 q 527 195 489 156 q 565 297 565 235 q 513 417 565 381 q 349 453 460 453 l 308 453 l 308 613 l 349 613 q 546 744 546 613 q 510 838 546 804 q 408 871 475 871 q 308 835 343 871 q 267 746 272 800 l 76 746 z "},"4":{"ha":918,"x_min":65,"x_max":868,"o":"m 65 197 l 65 350 l 519 1000 l 746 1000 l 746 367 l 868 367 l 868 197 l 746 197 l 746 0 l 551 0 l 551 197 l 65 197 m 564 792 l 279 367 l 564 367 l 564 792 z "},"5":{"ha":894,"x_min":110,"x_max":819,"o":"m 754 844 l 304 844 l 304 607 q 388 666 333 643 q 503 689 442 689 q 685 640 614 689 q 788 516 756 592 q 819 354 819 440 q 728 97 819 194 q 469 0 638 0 q 217 79 311 0 q 110 286 122 158 l 299 286 q 355 197 311 231 q 467 164 399 164 q 590 215 549 164 q 632 351 632 267 q 590 483 632 438 q 465 528 547 528 q 368 499 407 528 q 313 421 329 469 l 126 421 l 126 1015 l 754 1015 l 754 844 z "},"6":{"ha":889,"x_min":96,"x_max":808,"o":"m 599 760 q 551 847 585 818 q 453 876 517 876 q 312 799 357 876 q 265 549 267 722 q 363 635 299 604 q 501 667 426 667 q 661 628 592 667 q 769 515 731 589 q 808 336 808 440 q 769 160 808 238 q 653 40 729 83 q 471 -3 576 -3 q 244 61 326 -3 q 128 240 161 125 q 96 522 96 354 q 183 906 96 776 q 460 1036 271 1036 q 686 957 606 1036 q 779 760 767 878 l 599 760 m 457 507 q 333 464 383 507 q 283 339 283 421 q 330 210 283 257 q 461 163 376 163 q 580 208 536 163 q 624 332 624 254 q 581 460 624 413 q 457 507 539 507 z "},"7":{"ha":761,"x_min":49,"x_max":718,"o":"m 718 865 l 349 0 l 151 0 l 524 843 l 49 843 l 49 1010 l 718 1010 l 718 865 z "},"8":{"ha":893,"x_min":81,"x_max":813,"o":"m 243 536 q 104 760 104 608 q 142 897 104 835 q 258 995 181 958 q 446 1032 335 1032 q 634 995 557 1032 q 749 897 711 958 q 788 760 788 835 q 750 626 788 683 q 650 536 713 568 q 769 439 726 503 q 813 288 813 375 q 765 123 813 193 q 633 15 717 53 q 446 -22 550 -22 q 259 15 342 -22 q 128 123 176 53 q 81 288 81 193 q 124 440 81 375 q 243 536 167 504 m 599 732 q 558 838 599 800 q 446 875 517 875 q 335 838 376 875 q 294 731 294 800 q 337 631 294 668 q 446 593 379 593 q 556 631 513 593 q 599 732 599 669 m 446 451 q 317 411 367 451 q 268 296 268 371 q 316 183 268 226 q 446 139 364 139 q 575 183 528 139 q 622 296 622 228 q 574 410 622 369 q 446 451 525 451 z "},"9":{"ha":869,"x_min":90,"x_max":792,"o":"m 299 285 q 349 191 310 224 q 456 158 389 158 q 581 230 542 158 q 619 471 619 301 q 530 401 588 426 q 406 376 472 376 q 245 413 317 376 q 132 523 174 450 q 90 700 90 596 q 182 945 90 854 q 432 1036 274 1036 q 710 910 629 1036 q 792 529 792 783 q 760 233 792 349 q 653 58 729 118 q 447 -1 578 -1 q 272 38 344 -1 q 162 142 200 78 q 118 285 124 207 l 299 285 m 446 535 q 560 579 518 535 q 601 699 601 624 q 558 826 601 781 q 439 871 514 871 q 320 824 364 871 q 276 701 276 778 q 319 581 276 628 q 446 535 361 535 z "},"\u0000":{"ha":0,"x_min":0,"x_max":0,"o":""},"\r":{"ha":331,"x_min":0,"x_max":0,"o":""}," ":{"ha":331,"x_min":0,"x_max":0,"o":""},"अ":{"ha":1160,"x_min":90,"x_max":1188,"o":"m 1188 1028 l 1188 878 l 1033 878 l 1033 0 l 854 0 l 854 399 l 692 400 q 696 349 696 374 q 618 153 696 226 q 411 79 540 79 q 244 115 317 79 q 131 217 171 151 q 90 368 90 283 l 258 368 q 297 272 258 310 q 399 233 336 233 q 497 270 461 233 q 533 365 533 307 q 494 462 533 422 q 379 501 456 501 l 319 501 l 319 646 l 379 646 q 483 681 446 646 q 521 765 521 715 q 485 855 521 821 q 397 889 450 889 q 303 856 340 889 q 265 769 265 822 l 100 769 q 138 912 100 850 q 242 1007 175 974 q 397 1040 310 1040 q 603 972 525 1040 q 681 790 681 904 q 640 658 681 714 q 526 579 600 601 l 526 576 q 596 547 563 569 l 854 547 l 854 1028 l 1188 1028 z "},"आ":{"ha":1582,"x_min":90,"x_max":1618,"o":"m 1618 878 l 1464 878 l 1464 0 l 1285 0 l 1285 878 l 1033 878 l 1033 0 l 854 0 l 854 399 l 692 400 q 696 349 696 374 q 618 153 696 226 q 411 79 540 79 q 244 115 317 79 q 131 217 171 151 q 90 368 90 283 l 258 368 q 297 272 258 310 q 399 233 336 233 q 497 270 461 233 q 533 365 533 307 q 494 462 533 422 q 379 501 456 501 l 319 501 l 319 646 l 379 646 q 483 681 446 646 q 521 765 521 715 q 485 855 521 821 q 397 889 450 889 q 303 856 340 889 q 265 769 265 822 l 100 769 q 138 912 100 850 q 242 1007 175 974 q 397 1040 310 1040 q 603 972 525 1040 q 681 790 681 904 q 640 658 681 714 q 526 579 600 601 l 526 576 q 596 547 563 569 l 854 547 l 854 1028 l 1618 1028 l 1618 878 z "},"इ":{"ha":804,"x_min":-37,"x_max":842,"o":"m 397 624 q 310 604 346 624 q 275 539 275 585 q 305 477 275 497 q 385 457 335 457 l 446 457 q 650 399 568 457 q 732 213 732 342 q 667 44 732 110 q 488 -22 603 -22 q 363 7 413 -22 q 289 71 314 36 l 289 -112 l 119 -112 l 119 243 l 281 243 q 327 147 286 182 q 436 111 368 111 q 530 141 497 111 q 563 217 563 171 q 521 303 563 276 q 413 331 479 331 l 331 331 q 164 386 232 335 q 96 540 96 438 q 168 701 96 649 q 350 753 240 753 l 476 753 l 476 878 l -37 878 l -37 1028 l 842 1028 l 842 878 l 649 878 l 649 624 l 397 624 z "},"ई":{"ha":804,"x_min":-37,"x_max":994,"o":"m 832 1146 q 809 1230 833 1199 q 742 1261 785 1261 q 669 1226 693 1261 q 646 1124 646 1192 l 646 1028 l 842 1028 l 842 878 l 649 878 l 649 624 l 397 624 q 310 604 346 624 q 275 539 275 585 q 305 477 275 497 q 385 457 335 457 l 446 457 q 650 399 568 457 q 732 213 732 342 q 667 44 732 110 q 488 -22 603 -22 q 363 7 413 -22 q 289 71 314 36 l 289 -112 l 119 -112 l 119 243 l 281 243 q 327 147 286 182 q 436 111 368 111 q 530 141 497 111 q 563 217 563 171 q 521 303 563 276 q 413 331 479 331 l 331 331 q 164 386 232 335 q 96 540 96 438 q 168 701 96 649 q 350 753 240 753 l 476 753 l 476 878 l -37 878 l -37 1028 l 479 1028 l 479 1122 q 540 1329 479 1247 q 738 1411 601 1411 q 928 1340 861 1411 q 989 1146 994 1268 l 832 1146 z "},"उ":{"ha":790,"x_min":-29,"x_max":819,"o":"m 679 771 q 641 632 679 688 q 542 564 603 576 l 542 561 q 669 470 621 540 q 717 306 717 400 q 679 149 717 217 q 572 42 642 81 q 404 4 501 4 q 226 44 304 4 q 105 156 149 83 q 61 325 61 229 l 232 325 q 278 210 232 256 q 396 165 325 165 q 506 208 465 165 q 547 319 547 251 q 507 432 547 385 q 386 479 467 479 l 310 479 l 310 636 l 361 636 q 469 674 431 636 q 507 781 507 713 l 507 878 l -29 878 l -29 1028 l 819 1028 l 819 878 l 679 878 l 679 771 z "},"ऊ":{"ha":1190,"x_min":-29,"x_max":1218,"o":"m 679 771 q 641 632 679 688 q 542 564 603 576 l 542 561 l 804 561 q 1040 493 953 561 q 1128 288 1128 425 q 1056 99 1128 167 q 861 31 985 31 q 786 38 831 31 l 786 174 q 831 172 801 172 q 922 202 888 172 q 956 294 956 232 q 915 388 956 357 q 807 418 874 418 l 690 418 q 715 296 715 364 q 678 146 715 213 q 570 42 640 79 q 404 4 500 4 q 226 44 304 4 q 105 156 149 83 q 61 325 61 229 l 232 325 q 278 210 232 256 q 396 165 325 165 q 506 208 465 165 q 547 319 547 251 q 507 432 547 385 q 386 479 467 479 l 310 479 l 310 636 l 361 636 q 469 674 431 636 q 507 781 507 713 l 507 878 l -29 878 l -29 1028 l 1218 1028 l 1218 878 l 679 878 l 679 771 z "},"ऋ":{"ha":1444,"x_min":-29,"x_max":1474,"o":"m 839 878 l 839 619 l 1058 619 q 1157 706 1157 619 l 1157 768 l 1311 768 l 1311 281 l 1279 281 q 1180 248 1214 281 q 1146 164 1146 215 q 1184 78 1146 106 q 1286 50 1222 50 q 1365 61 1321 50 l 1365 -82 q 1261 -93 1310 -93 q 1054 -30 1135 -93 q 974 147 974 33 q 1023 296 974 236 q 1157 378 1072 356 l 1157 501 q 1032 478 1104 478 l 839 478 l 839 0 l 674 0 l 674 290 l 368 0 l 142 0 l 142 8 l 672 468 q 606 568 656 531 q 485 606 556 606 q 329 545 388 606 q 271 385 271 485 l 92 385 q 133 579 92 494 q 252 710 175 664 q 432 757 329 757 q 674 646 590 757 l 674 878 l -29 878 l -29 1028 l 1474 1028 l 1474 878 l 839 878 z "},"ॠ":{"ha":1408,"x_min":-29,"x_max":1475,"o":"m 839 878 l 839 619 l 1058 619 q 1157 706 1157 619 l 1157 768 l 1311 768 l 1311 276 l 1260 276 q 1149 194 1149 276 q 1181 135 1149 154 q 1264 115 1214 115 l 1338 115 l 1338 -18 l 1269 -18 q 1147 -103 1147 -18 q 1183 -166 1147 -147 q 1275 -185 1219 -185 q 1414 -164 1343 -185 l 1414 -297 q 1338 -317 1383 -310 q 1247 -325 1292 -325 q 1055 -274 1133 -325 q 976 -121 976 -224 q 1014 -14 976 -58 q 1110 43 1051 31 l 1110 49 q 1013 101 1050 63 q 976 204 976 139 q 1029 325 976 283 q 1157 374 1082 367 l 1157 501 q 1032 478 1104 478 l 839 478 l 839 0 l 674 0 l 674 290 l 368 0 l 142 0 l 142 8 l 672 468 q 606 568 656 531 q 485 606 556 606 q 329 545 388 606 q 271 385 271 485 l 92 385 q 133 579 92 494 q 252 710 175 664 q 432 757 329 757 q 674 646 590 757 l 674 878 l -29 878 l -29 1028 l 1475 1028 l 1475 878 l 839 878 z "},"ऌ":{"ha":1256,"x_min":-29,"x_max":1283,"o":"m 974 878 l 974 731 q 1119 621 1064 703 q 1174 415 1174 539 q 1151 276 1174 343 l 1142 276 q 1024 244 1063 276 q 986 158 986 211 q 1026 74 986 101 q 1129 47 1065 47 q 1210 57 1176 47 l 1210 -86 q 1107 -96 1154 -96 q 895 -33 976 -96 q 814 150 814 31 q 864 290 814 231 q 992 369 914 350 q 994 417 994 385 q 958 539 994 492 q 854 586 921 586 q 744 531 781 586 q 707 388 707 476 l 707 353 l 557 353 l 557 388 q 521 531 557 475 q 414 586 485 586 q 303 538 342 586 q 264 413 264 490 q 310 273 264 322 q 440 224 357 224 l 478 226 l 478 69 q 431 68 460 68 q 173 163 264 68 q 82 415 82 257 q 122 595 82 521 q 233 707 163 669 q 389 744 303 744 q 542 694 483 744 q 628 568 601 644 l 632 568 q 694 671 653 626 q 800 733 736 715 l 800 878 l -29 878 l -29 1028 l 1283 1028 l 1283 878 l 974 878 z "},"ॡ":{"ha":1268,"x_min":-29,"x_max":1293,"o":"m 974 878 l 974 731 q 1119 621 1064 703 q 1174 415 1174 539 q 1151 276 1174 343 l 1106 276 q 994 194 994 276 q 1027 135 994 154 q 1110 115 1060 115 l 1185 115 l 1185 -18 l 1117 -18 q 993 -103 993 -18 q 1029 -166 993 -147 q 1121 -185 1065 -185 q 1197 -178 1158 -185 q 1260 -164 1236 -171 l 1260 -297 q 1183 -317 1229 -310 q 1094 -325 1138 -325 q 901 -274 979 -325 q 822 -119 822 -224 q 860 -14 822 -58 q 956 43 897 31 l 956 49 q 859 101 896 63 q 822 204 822 139 q 871 321 822 281 q 992 372 919 361 q 994 417 994 400 q 958 539 994 492 q 854 586 921 586 q 744 531 781 586 q 707 388 707 476 l 707 353 l 557 353 l 557 388 q 521 531 557 475 q 414 586 485 586 q 303 538 342 586 q 264 413 264 490 q 310 273 264 322 q 440 224 357 224 l 478 226 l 478 69 q 431 68 460 68 q 173 163 264 68 q 82 415 82 257 q 122 595 82 521 q 233 707 163 669 q 389 744 303 744 q 542 694 483 744 q 628 568 601 644 l 632 568 q 694 671 653 626 q 800 733 736 715 l 800 878 l -29 878 l -29 1028 l 1293 1028 l 1293 878 l 974 878 z "},"ए":{"ha":906,"x_min":-29,"x_max":935,"o":"m 935 878 l 800 878 l 800 749 q 743 531 800 604 q 556 457 686 457 q 488 461 524 457 l 488 622 q 517 621 497 621 q 600 653 574 621 q 626 754 626 686 l 626 878 l 304 878 l 304 369 q 347 228 304 278 q 468 179 390 179 q 583 222 542 179 q 625 342 625 265 l 800 342 q 712 110 800 193 q 472 26 624 26 q 213 121 301 26 q 125 376 125 215 l 124 878 l -29 878 l -29 1028 l 935 1028 l 935 878 z "},"ऐ":{"ha":906,"x_min":-29,"x_max":935,"o":"m 935 878 l 800 878 l 800 749 q 743 531 800 604 q 556 457 686 457 q 488 461 524 457 l 488 622 q 517 621 497 621 q 600 653 574 621 q 626 754 626 686 l 626 878 l 304 878 l 304 369 q 347 228 304 278 q 468 179 390 179 q 583 222 542 179 q 625 342 625 265 l 800 342 q 712 110 800 193 q 472 26 624 26 q 213 121 301 26 q 125 376 125 215 l 124 878 l -29 878 l -29 1028 l 621 1028 q 522 1165 560 1122 q 444 1220 483 1207 q 338 1233 406 1233 l 269 1233 l 269 1379 l 333 1379 q 509 1356 444 1378 q 637 1260 574 1333 q 792 1028 700 1188 l 935 1028 l 935 878 z "},"ओ":{"ha":1589,"x_min":90,"x_max":1618,"o":"m 1618 1028 l 1618 878 l 1464 878 l 1464 0 l 1285 0 l 1285 878 l 1033 878 l 1033 0 l 854 0 l 854 399 l 692 400 q 696 349 696 374 q 618 153 696 226 q 411 79 540 79 q 244 115 317 79 q 131 217 171 151 q 90 368 90 283 l 258 368 q 297 272 258 310 q 399 233 336 233 q 497 270 461 233 q 533 365 533 307 q 494 462 533 422 q 379 501 456 501 l 319 501 l 319 646 l 379 646 q 483 681 446 646 q 521 765 521 715 q 485 855 521 821 q 397 889 450 889 q 303 856 340 889 q 265 769 265 822 l 100 769 q 138 912 100 850 q 242 1007 175 974 q 397 1040 310 1040 q 603 972 525 1040 q 681 790 681 904 q 640 658 681 714 q 526 579 600 601 l 526 576 q 596 547 563 569 l 854 547 l 854 1028 l 1285 1028 q 1185 1165 1224 1122 q 1108 1220 1147 1207 q 1001 1233 1069 1233 l 933 1233 l 933 1379 l 997 1379 q 1173 1356 1108 1378 q 1301 1260 1238 1333 q 1456 1028 1364 1188 l 1618 1028 z "},"औ":{"ha":1589,"x_min":90,"x_max":1618,"o":"m 1618 1028 l 1618 878 l 1464 878 l 1464 0 l 1285 0 l 1285 878 l 1033 878 l 1033 0 l 854 0 l 854 399 l 692 400 q 696 349 696 374 q 618 153 696 226 q 411 79 540 79 q 244 115 317 79 q 131 217 171 151 q 90 368 90 283 l 258 368 q 297 272 258 310 q 399 233 336 233 q 497 270 461 233 q 533 365 533 307 q 494 462 533 422 q 379 501 456 501 l 319 501 l 319 646 l 379 646 q 483 681 446 646 q 521 765 521 715 q 485 855 521 821 q 397 889 450 889 q 303 856 340 889 q 265 769 265 822 l 100 769 q 138 912 100 850 q 242 1007 175 974 q 397 1040 310 1040 q 603 972 525 1040 q 681 790 681 904 q 640 658 681 714 q 526 579 600 601 l 526 576 q 596 547 563 569 l 854 547 l 854 1028 l 1296 1028 q 1176 1105 1213 1085 q 1103 1131 1139 1125 q 986 1136 1067 1136 l 917 1136 l 917 1249 l 982 1249 q 1097 1244 1060 1249 q 1173 1220 1135 1239 q 1268 1157 1211 1201 q 1172 1294 1215 1251 q 1091 1348 1129 1338 q 989 1358 1053 1358 l 917 1358 l 917 1472 l 986 1472 q 1155 1448 1097 1472 q 1276 1334 1213 1424 q 1451 1028 1340 1244 l 1618 1028 z "},"ऍ":{"ha":906,"x_min":-29,"x_max":935,"o":"m 935 878 l 800 878 l 800 749 q 743 531 800 604 q 556 457 686 457 q 488 461 524 457 l 488 622 q 517 621 497 621 q 600 653 574 621 q 626 754 626 686 l 626 878 l 304 878 l 304 369 q 347 228 304 278 q 468 179 390 179 q 583 222 542 179 q 625 342 625 265 l 800 342 q 712 110 800 193 q 472 26 624 26 q 213 121 301 26 q 125 376 125 215 l 124 878 l -29 878 l -29 1028 l 935 1028 l 935 878 m 768 1421 q 690 1223 768 1299 q 456 1147 611 1147 q 221 1223 300 1147 q 142 1421 142 1299 l 296 1421 q 335 1321 296 1361 q 456 1281 375 1281 q 575 1321 535 1281 q 615 1421 615 1361 l 768 1421 z "},"ॲ":{"ha":1164,"x_min":90,"x_max":1268,"o":"m 1188 1028 l 1188 878 l 1033 878 l 1033 0 l 854 0 l 854 399 l 692 400 q 696 349 696 374 q 618 153 696 226 q 411 79 540 79 q 244 115 317 79 q 131 217 171 151 q 90 368 90 283 l 258 368 q 297 272 258 310 q 399 233 336 233 q 497 270 461 233 q 533 365 533 307 q 494 462 533 422 q 379 501 456 501 l 319 501 l 319 646 l 379 646 q 483 681 446 646 q 521 765 521 715 q 485 855 521 821 q 397 889 450 889 q 303 856 340 889 q 265 769 265 822 l 100 769 q 138 912 100 850 q 242 1007 175 974 q 397 1040 310 1040 q 603 972 525 1040 q 681 790 681 904 q 640 658 681 714 q 526 579 600 601 l 526 576 q 596 547 563 569 l 854 547 l 854 1028 l 1188 1028 m 1268 1426 q 1190 1228 1268 1304 q 956 1153 1111 1153 q 721 1228 800 1153 q 642 1426 642 1304 l 796 1426 q 835 1326 796 1367 q 956 1286 875 1286 q 1075 1326 1035 1286 q 1115 1426 1115 1367 l 1268 1426 z "},"ऑ":{"ha":1589,"x_min":90,"x_max":1618,"o":"m 1618 878 l 1464 878 l 1464 0 l 1285 0 l 1285 878 l 1033 878 l 1033 0 l 854 0 l 854 399 l 692 400 q 696 349 696 374 q 618 153 696 226 q 411 79 540 79 q 244 115 317 79 q 131 217 171 151 q 90 368 90 283 l 258 368 q 297 272 258 310 q 399 233 336 233 q 497 270 461 233 q 533 365 533 307 q 494 462 533 422 q 379 501 456 501 l 319 501 l 319 646 l 379 646 q 483 681 446 646 q 521 765 521 715 q 485 855 521 821 q 397 889 450 889 q 303 856 340 889 q 265 769 265 822 l 100 769 q 138 912 100 850 q 242 1007 175 974 q 397 1040 310 1040 q 603 972 525 1040 q 681 790 681 904 q 640 658 681 714 q 526 579 600 601 l 526 576 q 596 547 563 569 l 854 547 l 854 1028 l 1618 1028 l 1618 878 m 1476 1421 q 1398 1223 1476 1299 q 1164 1147 1319 1147 q 929 1223 1008 1147 q 850 1421 850 1299 l 1004 1421 q 1044 1321 1004 1361 q 1164 1281 1083 1281 q 1283 1321 1243 1281 q 1324 1421 1324 1361 l 1476 1421 z "},"ा":{"ha":429,"x_min":-29,"x_max":458,"o":"m 125 0 l 125 878 l -29 878 l -29 1028 l 458 1028 l 458 878 l 304 878 l 304 0 l 125 0 z "},"ि":{"ha":429,"x_min":-29,"x_max":1250,"o":"m 688 1414 q 978 1365 850 1414 q 1178 1225 1106 1317 q 1250 1011 1250 1133 l 1250 988 l 1071 988 l 1071 1008 q 1016 1153 1071 1096 q 874 1239 961 1211 q 688 1267 786 1267 q 420 1210 531 1267 q 303 1028 310 1153 l 458 1028 l 458 878 l 304 878 l 304 0 l 125 0 l 125 878 l -29 878 l -29 1028 l 125 1028 q 202 1237 129 1150 q 401 1369 275 1324 q 688 1414 526 1414 z "},"ी":{"ha":429,"x_min":-304,"x_max":458,"o":"m 458 1028 l 458 878 l 304 878 l 304 0 l 125 0 l 125 878 l -29 878 l -29 1028 l 131 1028 l 131 1083 q 103 1210 131 1158 q 1 1263 75 1263 q -102 1210 -74 1263 q -131 1083 -131 1158 l -131 988 l -304 988 l -304 1074 q -231 1322 -304 1231 q 1 1414 -158 1414 q 304 1074 304 1414 l 304 1028 l 458 1028 z "},"ु":{"ha":0,"x_min":-632,"x_max":8,"o":"m 8 -196 q -71 -382 8 -314 q -286 -450 -150 -450 q -533 -374 -435 -450 q -629 -140 -632 -297 l -471 -140 q -424 -269 -474 -226 q -290 -311 -374 -311 q -183 -281 -222 -311 q -144 -194 -144 -250 q -175 -118 -144 -149 q -262 -87 -206 -87 l -304 -87 l -304 53 l -262 53 q -61 -15 -131 53 q 8 -196 8 -82 z "},"ू":{"ha":0,"x_min":-508,"x_max":138,"o":"m -204 -432 q -257 -433 -222 -433 q -437 -372 -365 -433 q -508 -199 -508 -311 q -428 -19 -508 -85 q -221 47 -349 47 q 51 -67 -35 47 q 138 -360 138 -181 q 135 -425 138 -383 l -11 -425 l -11 -350 q -66 -156 -11 -224 q -222 -87 -121 -87 q -325 -117 -285 -87 q -365 -200 -365 -147 q -331 -276 -365 -249 q -246 -304 -296 -304 q -204 -303 -219 -304 l -204 -432 z "},"ृ":{"ha":0,"x_min":-481,"x_max":-51,"o":"m -51 -432 q -190 -453 -114 -453 q -396 -391 -311 -453 q -481 -200 -481 -329 q -404 -20 -481 -89 q -193 49 -328 49 q -125 47 -137 49 l -125 -75 l -179 -75 q -274 -108 -240 -75 q -307 -193 -307 -142 q -266 -282 -307 -254 q -161 -310 -225 -310 q -51 -293 -108 -310 l -51 -432 z "},"ॄ":{"ha":0,"x_min":-444,"x_max":-7,"o":"m -7 -625 q -82 -643 -36 -636 q -172 -650 -128 -650 q -365 -601 -286 -650 q -444 -449 -444 -551 q -407 -340 -444 -383 q -310 -283 -369 -296 l -310 -278 q -406 -226 -369 -264 q -443 -122 -443 -187 q -378 8 -443 -33 q -229 49 -314 49 l -125 49 l -125 -50 l -160 -50 q -271 -132 -271 -50 q -239 -192 -271 -174 q -157 -211 -207 -211 l -82 -211 l -82 -344 l -149 -344 q -272 -429 -272 -344 q -236 -492 -272 -474 q -144 -511 -200 -511 q -66 -504 -106 -511 q -7 -490 -26 -497 l -7 -625 z "},"ॢ":{"ha":0,"x_min":-621,"x_max":219,"o":"m 158 -543 q 219 -536 199 -543 l 219 -649 q 143 -656 181 -656 q -19 -608 43 -656 q -81 -471 -81 -560 q -44 -365 -81 -410 q 51 -306 -7 -321 q 53 -276 53 -296 q 27 -187 53 -221 q -47 -153 1 -153 q -126 -192 -100 -153 q -153 -296 -153 -232 l -153 -321 l -269 -321 l -269 -296 q -295 -192 -269 -232 q -372 -153 -321 -153 q -452 -187 -424 -153 q -481 -278 -481 -221 q -447 -377 -481 -342 q -354 -412 -412 -412 q -325 -410 -333 -412 l -325 -532 q -360 -533 -339 -533 q -553 -463 -485 -533 q -621 -276 -621 -393 q -556 -94 -621 -158 q -393 -29 -490 -29 q -278 -65 -322 -29 q -215 -158 -235 -101 l -211 -158 q -144 -66 -192 -103 q -25 -29 -97 -29 q 86 -58 36 -29 q 166 -142 136 -86 q 196 -276 196 -199 q 179 -378 196 -324 l 171 -378 q 83 -401 111 -378 q 54 -462 54 -425 q 84 -522 54 -501 q 158 -543 114 -543 z "},"ॣ":{"ha":0,"x_min":-621,"x_max":256,"o":"m 153 -717 q 210 -712 182 -717 q 256 -701 239 -707 l 256 -806 q 199 -819 233 -814 q 132 -824 165 -824 q -12 -787 46 -824 q -71 -674 -71 -751 q -43 -592 -71 -625 q 28 -550 -15 -560 l 28 -547 q -44 -508 -17 -537 q -71 -429 -71 -478 q -36 -342 -71 -372 q 51 -303 -1 -311 q 53 -276 53 -294 q 27 -187 53 -221 q -47 -153 1 -153 q -126 -192 -100 -153 q -153 -296 -153 -232 l -153 -321 l -269 -321 l -269 -296 q -295 -192 -269 -232 q -372 -153 -321 -153 q -452 -187 -424 -153 q -481 -278 -481 -221 q -447 -377 -481 -342 q -354 -412 -412 -412 q -325 -410 -333 -412 l -325 -532 q -360 -533 -339 -533 q -553 -463 -485 -533 q -621 -276 -621 -393 q -556 -94 -621 -158 q -393 -29 -490 -29 q -278 -65 -322 -29 q -215 -158 -235 -101 l -211 -158 q -144 -66 -192 -103 q -25 -29 -97 -29 q 86 -58 36 -29 q 166 -142 136 -86 q 196 -276 196 -199 q 179 -378 196 -324 l 143 -378 q 63 -436 63 -378 q 85 -479 63 -465 q 147 -493 108 -493 l 200 -493 l 200 -597 l 151 -597 q 61 -658 61 -597 q 153 -717 61 -717 z "},"े":{"ha":0,"x_min":-651,"x_max":-126,"o":"m -296 1022 q -397 1163 -358 1119 q -476 1219 -436 1206 q -583 1233 -515 1233 l -651 1233 l -651 1379 l -587 1379 q -411 1356 -476 1378 q -282 1259 -346 1333 q -126 1022 -218 1185 l -296 1022 z "},"ै":{"ha":0,"x_min":-665,"x_max":-128,"o":"m -596 1472 q -427 1448 -485 1472 q -305 1333 -369 1424 q -128 1024 -240 1243 l -281 1024 q -406 1104 -368 1083 q -479 1131 -443 1125 q -596 1136 -515 1136 l -665 1136 l -665 1249 l -600 1249 q -485 1244 -522 1249 q -409 1220 -447 1239 q -314 1157 -371 1201 q -410 1294 -367 1251 q -491 1348 -453 1338 q -593 1358 -529 1358 l -665 1358 l -665 1472 l -596 1472 z "},"ो":{"ha":431,"x_min":-221,"x_max":458,"o":"m 458 1028 l 458 878 l 304 878 l 304 0 l 125 0 l 125 878 l -29 878 l -29 1028 l 131 1028 q 31 1165 69 1122 q -46 1220 -7 1207 q -153 1233 -85 1233 l -221 1233 l -221 1379 l -157 1379 q 19 1356 -46 1378 q 147 1260 83 1333 q 301 1028 210 1188 l 458 1028 z "},"ौ":{"ha":429,"x_min":-240,"x_max":458,"o":"m 458 1028 l 458 878 l 304 878 l 304 0 l 125 0 l 125 878 l -29 878 l -29 1028 l 139 1028 q 19 1105 56 1085 q -54 1131 -18 1125 q -171 1136 -90 1136 l -240 1136 l -240 1249 l -175 1249 q -60 1244 -97 1249 q 16 1220 -22 1239 q 111 1157 54 1201 q 15 1294 58 1251 q -66 1348 -28 1338 q -168 1358 -104 1358 l -240 1358 l -240 1472 l -171 1472 q -2 1448 -60 1472 q 119 1334 56 1424 q 294 1028 183 1244 l 458 1028 z "},"ॅ":{"ha":0,"x_min":-537,"x_max":89,"o":"m 89 1404 q 10 1206 89 1282 q -224 1131 -68 1131 q -458 1206 -379 1131 q -537 1404 -537 1282 l -383 1404 q -344 1304 -383 1344 q -224 1264 -304 1264 q -104 1304 -144 1264 q -64 1404 -64 1344 l 89 1404 z "},"ॉ":{"ha":432,"x_min":-97,"x_max":529,"o":"m 125 0 l 125 878 l -29 878 l -29 1028 l 458 1028 l 458 878 l 304 878 l 304 0 l 125 0 m 529 1404 q 451 1206 529 1282 q 217 1131 372 1131 q -18 1206 61 1131 q -97 1404 -97 1282 l 57 1404 q 97 1304 57 1344 q 217 1264 136 1264 q 336 1304 296 1264 q 376 1404 376 1344 l 529 1404 z "},"क":{"ha":1356,"x_min":-29,"x_max":1383,"o":"m 774 878 l 774 638 q 859 722 804 690 q 989 753 914 753 q 1140 711 1075 753 q 1239 597 1204 669 q 1274 435 1274 525 q 1237 265 1274 336 q 1135 156 1200 193 q 986 118 1069 118 q 894 128 938 118 l 894 269 q 938 264 911 264 q 1049 308 1006 264 q 1092 431 1092 353 q 1047 551 1092 504 q 933 599 1003 599 q 815 546 856 599 q 774 418 774 493 l 774 0 l 601 0 l 601 225 q 511 138 569 169 q 372 107 453 107 q 219 147 285 107 q 118 261 154 188 q 82 431 82 335 q 119 599 82 526 q 223 713 156 672 q 379 753 290 753 q 513 723 457 753 q 601 640 568 693 l 601 878 l -29 878 l -29 1028 l 1383 1028 l 1383 878 l 774 878 m 432 257 q 524 282 486 257 q 582 347 563 307 q 601 429 601 386 q 558 549 601 499 q 433 600 514 600 q 313 553 361 600 q 264 429 264 506 q 311 304 264 351 q 432 257 358 257 z "},"ख":{"ha":1319,"x_min":-29,"x_max":1349,"o":"m 1349 1028 l 1349 878 l 1194 878 l 1194 0 l 1017 0 l 1017 251 q 835 168 957 168 q 789 171 819 168 q 662 42 742 90 q 475 -7 582 -7 q 201 92 301 -7 q 100 367 100 190 l 100 557 l 142 557 q 283 601 235 557 q 332 749 332 646 l 332 878 l -29 878 l -29 1028 l 1349 1028 m 479 147 q 651 236 594 147 q 588 331 610 275 q 565 456 565 388 q 600 602 565 538 q 697 703 635 667 q 835 739 758 739 q 1017 656 954 739 l 1017 878 l 513 878 l 513 725 q 449 513 513 586 q 278 431 385 439 l 278 346 q 331 202 278 257 q 479 147 385 147 m 874 306 q 979 350 942 306 q 1017 454 1017 394 q 980 558 1017 514 q 874 601 943 601 q 767 562 810 601 q 725 456 725 522 q 767 345 725 385 q 874 306 810 306 z "},"ग":{"ha":1096,"x_min":-29,"x_max":1124,"o":"m 1124 1028 l 1124 878 l 969 878 l 969 0 l 790 0 l 790 878 l 589 878 l 589 542 q 524 341 589 418 q 325 264 458 264 q 126 335 196 264 q 56 532 56 406 q 57 575 56 561 l 231 575 l 231 532 q 252 449 231 482 q 321 417 274 417 q 408 533 408 417 l 408 878 l -29 878 l -29 1028 l 1124 1028 z "},"घ":{"ha":976,"x_min":-29,"x_max":1006,"o":"m 1006 878 l 853 878 l 853 0 l 672 0 l 672 263 q 560 169 629 201 q 404 136 490 136 q 185 203 271 136 q 100 390 100 269 q 147 525 100 471 q 263 594 194 579 l 263 599 q 158 662 197 614 q 119 797 119 710 l 119 878 l -29 878 l -29 1028 l 1006 1028 l 1006 878 m 672 878 l 299 878 l 299 806 q 334 706 299 740 q 449 671 369 671 l 507 671 l 507 526 l 435 526 q 320 494 358 526 q 282 408 282 461 q 328 315 282 347 q 447 283 374 283 q 561 310 510 283 q 642 385 613 336 q 672 497 672 435 l 672 878 z "},"ङ":{"ha":953,"x_min":-29,"x_max":982,"o":"m 982 1028 l 982 878 l 654 878 l 654 624 l 401 624 q 315 605 350 624 q 281 540 281 586 q 311 477 281 497 q 389 457 342 457 l 451 457 q 653 399 571 457 q 736 217 736 342 q 657 40 736 106 q 432 -25 578 -25 q 182 47 278 -25 q 81 243 86 118 l 260 243 q 306 147 261 182 q 426 111 351 111 q 530 140 493 111 q 567 218 567 169 q 526 303 567 276 q 418 331 485 331 l 367 331 q 181 378 260 331 q 101 546 101 426 q 173 699 101 649 q 354 750 244 750 l 481 750 l 481 878 l -29 878 l -29 1028 l 982 1028 m 835 624 q 905 595 876 624 q 933 525 933 567 q 905 456 933 485 q 835 428 876 428 q 765 456 793 428 q 736 525 736 485 q 765 595 736 567 q 835 624 793 624 z "},"च":{"ha":1036,"x_min":-29,"x_max":1065,"o":"m 1065 878 l 911 878 l 911 0 l 732 0 l 732 244 q 626 156 692 188 q 481 124 561 124 q 333 156 399 124 q 230 249 268 188 q 192 393 192 310 q 214 498 192 450 q 278 578 236 546 l 69 578 l 69 719 l 579 719 l 579 578 l 525 578 q 406 535 451 578 q 361 424 361 492 q 410 313 361 353 q 533 272 460 272 q 678 338 624 274 q 732 501 732 401 l 732 878 l -29 878 l -29 1028 l 1065 1028 l 1065 878 z "},"छ":{"ha":1140,"x_min":-29,"x_max":1169,"o":"m 892 878 l 892 743 q 1028 647 978 719 q 1079 461 1079 574 q 1016 233 1079 331 q 835 84 953 136 q 556 32 717 32 q 218 110 344 32 q 92 339 92 189 q 137 481 92 425 q 260 558 182 536 l 260 563 q 156 625 196 576 q 117 761 117 674 l 117 878 l -29 878 l -29 1028 l 1169 1028 l 1169 878 l 892 878 m 726 878 l 296 878 l 296 768 q 435 635 296 635 l 463 635 l 463 490 l 438 490 q 315 453 357 490 q 274 356 274 415 q 345 228 274 272 q 557 185 417 185 q 825 259 728 185 q 922 468 922 333 q 890 581 922 539 q 808 622 857 622 q 731 589 763 622 q 699 493 699 556 q 719 378 699 443 l 571 378 q 549 513 549 438 q 597 667 549 610 q 726 744 646 725 l 726 878 z "},"ज":{"ha":1183,"x_min":-29,"x_max":1213,"o":"m 1213 878 l 1058 878 l 1058 0 l 879 0 l 879 531 l 681 531 l 681 454 q 644 299 681 367 q 541 194 608 232 q 383 156 474 156 q 162 238 240 156 q 83 454 83 319 l 83 683 l 265 683 l 265 458 q 297 352 265 392 q 383 313 328 313 q 474 351 442 313 q 506 458 506 390 l 506 683 l 879 683 l 879 878 l -29 878 l -29 1028 l 1213 1028 l 1213 878 z "},"झ":{"ha":1197,"x_min":-29,"x_max":1225,"o":"m 1225 878 l 1071 878 l 1071 0 l 896 0 l 896 322 l 690 322 q 728 194 728 271 q 667 42 728 101 q 494 -17 606 -17 q 294 69 368 -17 l 294 -112 l 125 -112 l 125 236 l 286 236 q 332 149 292 183 q 440 115 372 115 q 531 144 500 115 q 563 217 563 174 q 524 301 563 271 q 413 331 486 331 l 331 331 q 164 386 232 335 q 96 540 96 438 q 168 701 96 649 q 350 753 240 753 l 476 753 l 476 878 l -29 878 l -29 1028 l 1225 1028 l 1225 878 m 896 457 l 896 878 l 649 878 l 649 624 l 397 624 q 310 604 346 624 q 275 539 275 585 q 305 477 275 497 q 385 457 335 457 l 446 457 l 896 457 z "},"ञ":{"ha":1146,"x_min":-29,"x_max":1175,"o":"m 1175 878 l 1021 878 l 1021 0 l 842 0 l 842 356 l 717 356 q 613 164 697 235 q 400 93 529 93 q 179 165 265 93 q 82 353 93 238 l 251 353 q 303 275 264 306 q 401 244 343 244 q 519 296 478 244 q 561 425 561 347 q 519 551 561 500 q 401 603 476 603 q 303 572 343 603 q 251 494 264 540 l 82 494 q 178 683 93 611 q 400 756 264 756 q 609 688 526 756 q 714 507 692 621 l 842 507 l 842 878 l -29 878 l -29 1028 l 1175 1028 l 1175 878 z "},"ट":{"ha":900,"x_min":-29,"x_max":928,"o":"m 496 600 q 328 547 393 600 q 263 393 263 493 q 320 250 263 306 q 469 194 378 194 q 622 253 564 194 q 679 403 679 311 l 850 403 q 803 212 850 294 q 672 84 757 129 q 472 39 586 39 q 271 83 360 39 q 132 208 182 128 q 82 393 82 289 q 131 585 82 504 q 272 708 181 665 q 485 751 363 751 l 492 751 l 492 878 l -29 878 l -29 1028 l 928 1028 l 928 878 l 667 878 l 667 600 l 496 600 z "},"ठ":{"ha":935,"x_min":-29,"x_max":963,"o":"m 554 878 l 554 747 q 769 633 685 724 q 853 403 853 543 q 802 217 853 297 q 664 93 751 136 q 467 50 576 50 q 271 93 358 50 q 133 217 183 136 q 82 403 82 297 q 165 633 82 543 q 376 747 247 722 l 376 878 l -29 878 l -29 1028 l 963 1028 l 963 878 l 554 878 m 675 403 q 617 548 675 492 q 467 604 560 604 q 319 548 376 604 q 261 403 261 492 q 319 257 261 314 q 467 200 376 200 q 617 257 560 200 q 675 403 675 314 z "},"ड":{"ha":790,"x_min":-29,"x_max":818,"o":"m 401 624 q 315 605 350 624 q 281 540 281 586 q 311 477 281 497 q 389 457 342 457 l 451 457 q 653 399 571 457 q 736 217 736 342 q 657 40 736 106 q 432 -25 578 -25 q 182 47 278 -25 q 81 243 86 118 l 260 243 q 306 147 261 182 q 426 111 351 111 q 530 140 493 111 q 567 218 567 169 q 526 303 567 276 q 418 331 485 331 l 367 331 q 181 378 260 331 q 101 546 101 426 q 173 699 101 649 q 354 750 244 750 l 476 750 l 476 878 l -29 878 l -29 1028 l 818 1028 l 818 878 l 649 878 l 649 624 l 401 624 z "},"ढ":{"ha":903,"x_min":-29,"x_max":931,"o":"m 544 636 q 336 569 417 636 q 256 378 256 503 q 326 197 256 267 q 522 126 397 126 q 665 167 608 126 q 721 275 721 207 q 692 349 721 319 q 621 378 664 378 q 556 353 582 378 q 529 290 529 329 q 533 265 529 276 l 404 265 q 399 315 399 299 q 463 456 399 406 q 628 507 526 507 q 808 443 742 507 q 874 275 874 379 q 780 72 874 146 q 518 -3 686 -3 q 295 44 394 -3 q 139 178 196 90 q 82 383 82 265 q 135 589 82 504 q 279 717 188 674 q 488 760 371 760 l 525 760 l 525 878 l -29 878 l -29 1028 l 931 1028 l 931 878 l 694 878 l 694 636 l 544 636 z "},"ण":{"ha":1222,"x_min":-29,"x_max":1251,"o":"m 1251 878 l 1097 878 l 1097 0 l 918 0 l 918 878 l 700 878 l 700 517 q 624 303 700 385 q 408 221 549 221 q 194 304 269 221 q 118 517 118 388 l 118 878 l -29 878 l -29 1028 l 1251 1028 l 1251 878 m 524 878 l 293 878 l 293 500 q 324 408 293 443 q 410 372 356 372 q 494 407 464 372 q 524 500 524 442 l 524 878 z "},"त":{"ha":976,"x_min":-29,"x_max":1004,"o":"m 1004 878 l 851 878 l 851 0 l 671 0 l 671 532 l 486 532 q 324 482 383 532 q 264 339 264 432 q 317 195 264 247 q 471 143 369 143 l 499 143 l 499 3 l 443 3 q 182 89 282 3 q 82 343 82 175 q 192 601 82 515 q 478 686 301 686 l 671 686 l 671 878 l -29 878 l -29 1028 l 1004 1028 l 1004 878 z "},"थ":{"ha":1088,"x_min":89,"x_max":1117,"o":"m 1117 1028 l 1117 878 l 963 878 l 963 0 l 783 0 l 783 283 q 671 170 751 217 q 476 124 590 124 q 272 171 360 124 q 137 306 185 218 q 89 513 89 393 q 96 601 89 564 l 222 601 q 417 640 344 601 q 490 772 490 678 q 461 855 490 822 q 382 888 432 888 q 299 855 329 888 q 268 767 268 822 q 274 714 268 747 l 111 714 q 106 771 106 750 q 142 917 106 856 q 242 1009 179 978 q 383 1040 306 1040 q 526 1006 464 1040 q 624 910 589 972 q 658 767 658 847 q 562 550 658 628 q 292 472 465 472 l 263 472 q 327 328 267 383 q 503 272 388 272 q 644 306 581 272 q 746 404 708 339 q 783 560 783 469 l 783 1028 l 1117 1028 z "},"द":{"ha":849,"x_min":-29,"x_max":878,"o":"m 471 597 q 322 550 379 597 q 265 418 265 503 q 311 297 265 342 q 433 251 357 251 q 541 290 496 251 q 586 401 586 329 l 751 401 l 751 -37 l 576 -37 l 576 192 q 496 130 546 151 q 382 108 446 108 q 231 144 299 108 q 122 251 163 181 q 82 424 82 322 q 130 602 82 528 q 262 714 178 676 q 453 751 346 751 l 522 751 l 522 878 l -29 878 l -29 1028 l 878 1028 l 876 878 l 703 878 l 703 597 l 471 597 z "},"ध":{"ha":1006,"x_min":97,"x_max":1043,"o":"m 1043 878 l 892 878 l 892 0 l 713 0 l 713 257 q 592 154 668 190 q 417 118 517 118 q 196 183 283 118 q 108 367 108 249 q 157 502 108 450 q 271 567 206 554 l 271 572 q 147 650 197 592 q 97 801 97 708 q 167 974 97 908 q 349 1040 238 1040 q 527 977 463 1040 q 592 811 592 914 q 589 758 592 789 l 456 758 l 457 789 q 429 862 457 833 q 354 890 401 890 q 278 860 307 890 q 250 782 250 829 q 303 680 250 715 q 439 644 357 644 l 521 644 l 521 500 l 447 500 q 331 469 372 500 q 290 386 290 439 q 337 297 290 328 q 461 267 383 267 q 643 338 574 267 q 713 524 713 408 l 713 1028 l 1043 1028 l 1043 878 z "},"न":{"ha":1125,"x_min":-29,"x_max":1154,"o":"m 1154 878 l 1000 878 l 1000 0 l 821 0 l 821 543 l 611 543 q 660 383 660 476 q 622 242 660 301 q 520 151 585 182 q 376 121 456 121 q 225 156 293 121 q 117 255 157 190 q 76 407 76 319 q 118 563 76 499 q 231 660 160 628 q 392 693 303 693 l 821 693 l 821 878 l -29 878 l -29 1028 l 1154 1028 l 1154 878 m 379 272 q 478 310 439 272 q 517 408 517 349 q 478 505 517 467 q 379 543 439 543 q 277 505 317 543 q 238 407 238 467 q 277 310 238 347 q 379 272 317 272 z "},"प":{"ha":928,"x_min":-29,"x_max":957,"o":"m 957 878 l 803 878 l 803 0 l 625 0 l 625 335 q 408 242 551 242 q 182 338 261 242 q 103 594 103 435 l 103 878 l -29 878 l -29 1028 l 957 1028 l 957 878 m 625 878 l 283 878 l 283 594 q 326 447 283 500 q 454 393 368 393 q 580 445 535 393 q 625 575 625 497 l 625 878 z "},"फ":{"ha":1368,"x_min":-29,"x_max":1397,"o":"m 779 878 l 779 639 q 869 722 813 692 q 1004 753 926 753 q 1153 712 1089 753 q 1252 600 1217 671 q 1288 440 1288 529 q 1251 267 1288 340 q 1148 156 1214 194 q 999 118 1082 118 q 901 131 946 118 l 901 269 q 953 263 926 263 q 1063 308 1021 263 q 1106 431 1106 354 q 1061 551 1106 504 q 947 599 1017 599 q 822 542 864 599 q 779 399 779 485 l 779 0 l 600 0 l 600 332 q 397 242 532 242 q 179 336 256 242 q 103 586 103 431 l 103 878 l -29 878 l -29 1028 l 1397 1028 l 1397 878 l 779 878 m 600 878 l 283 878 l 283 586 q 323 444 283 496 q 442 393 363 393 q 558 442 517 393 q 600 567 600 492 l 600 878 z "},"ब":{"ha":957,"x_min":-29,"x_max":985,"o":"m 985 1028 l 985 878 l 832 878 l 832 0 l 658 0 l 658 210 q 563 128 624 158 q 421 99 501 99 q 248 141 325 99 q 126 260 171 183 q 82 436 82 338 q 126 608 82 533 q 246 725 169 683 q 418 767 322 767 q 558 738 497 767 q 658 658 618 708 l 658 878 l -29 878 l -29 1028 l 985 1028 m 456 649 q 315 601 374 649 l 644 336 q 668 438 668 386 q 643 542 668 493 q 570 619 618 590 q 456 649 522 649 m 239 436 q 268 325 239 372 q 347 253 297 278 q 456 228 397 228 q 597 276 539 228 l 265 542 q 239 436 239 493 z "},"भ":{"ha":1154,"x_min":88,"x_max":1183,"o":"m 1183 1028 l 1183 878 l 1028 878 l 1028 0 l 849 0 l 849 493 l 656 493 l 656 411 q 583 186 656 267 q 375 106 510 106 q 225 139 290 106 q 124 233 160 172 q 88 374 88 294 q 171 570 88 501 q 385 639 254 639 l 488 639 l 488 754 q 465 852 488 817 q 393 888 442 888 q 324 857 350 888 q 297 776 297 826 q 303 729 297 751 l 122 729 q 117 783 117 760 q 187 969 117 899 q 386 1040 257 1040 q 592 954 528 1040 q 656 722 656 868 l 656 639 l 849 639 l 849 1028 l 1183 1028 m 488 493 l 389 493 q 291 462 328 493 q 254 375 254 431 q 288 289 254 321 q 372 257 321 257 q 458 296 428 257 q 488 401 488 335 l 488 493 z "},"म":{"ha":1142,"x_min":-29,"x_max":1169,"o":"m 1169 878 l 1015 878 l 1015 0 l 835 0 l 835 493 l 628 493 l 628 411 q 555 186 628 267 q 346 106 482 106 q 138 179 217 106 q 60 374 60 253 q 142 570 60 501 q 356 639 225 639 l 461 639 l 461 878 l -29 878 l -29 1028 l 1169 1028 l 1169 878 m 835 878 l 628 878 l 628 639 l 835 639 l 835 878 m 461 493 l 361 493 q 263 462 300 493 q 226 375 226 431 q 259 289 226 321 q 343 257 292 257 q 430 296 399 257 q 461 401 461 335 l 461 493 z "},"य":{"ha":1040,"x_min":-29,"x_max":1069,"o":"m 1069 878 l 915 878 l 915 0 l 736 0 l 736 249 q 622 161 693 193 q 457 129 551 129 q 181 235 279 129 q 83 521 83 340 q 89 599 83 546 l 106 599 q 274 649 222 599 q 326 803 326 699 l 326 878 l -29 878 l -29 1028 l 1069 1028 l 1069 878 m 736 878 l 504 878 l 504 771 q 444 581 504 650 q 261 503 383 513 q 323 340 261 401 q 494 279 385 279 q 669 346 603 279 q 736 517 736 413 l 736 878 z "},"र":{"ha":740,"x_min":-29,"x_max":768,"o":"m 275 436 l 275 279 q 303 178 275 217 q 388 140 332 140 q 469 176 439 140 q 499 269 499 211 l 499 304 l 671 304 q 672 275 672 292 q 597 65 672 143 q 390 -12 522 -12 q 173 71 249 -12 q 97 288 97 154 l 97 582 l 240 582 q 402 633 351 582 q 453 782 453 683 l 453 878 l -29 878 l -29 1028 l 768 1028 l 768 878 l 632 878 l 632 782 q 306 436 632 436 l 275 436 z "},"ल":{"ha":1264,"x_min":-29,"x_max":1292,"o":"m 996 878 l 996 718 q 1131 606 1081 686 q 1182 410 1182 526 q 1142 229 1182 308 q 1023 106 1101 150 q 833 61 944 61 q 786 64 822 61 l 786 221 l 824 218 q 953 269 906 218 q 1000 407 1000 321 q 962 532 1000 483 q 854 581 924 581 q 744 526 781 581 q 707 382 707 471 l 707 353 l 557 353 l 557 382 q 521 525 557 469 q 414 581 485 581 q 303 533 342 581 q 264 407 264 485 q 311 269 264 321 q 440 218 358 218 l 478 221 l 478 64 q 431 61 442 61 q 242 106 321 61 q 122 230 163 151 q 82 410 82 308 q 122 589 82 515 q 233 700 163 663 q 389 738 303 738 q 544 689 485 738 q 629 564 603 640 l 633 564 q 702 672 657 628 q 819 732 747 717 l 819 878 l -29 878 l -29 1028 l 1292 1028 l 1292 878 l 996 878 z "},"व":{"ha":931,"x_min":-29,"x_max":958,"o":"m 958 1028 l 958 878 l 806 878 l 806 0 l 631 0 l 631 219 q 534 135 594 165 q 396 104 474 104 q 230 147 301 104 q 120 264 158 189 q 82 436 82 339 q 121 603 82 529 q 231 717 160 676 q 396 758 303 758 q 535 728 475 758 q 631 643 594 697 l 631 878 l -29 878 l -29 1028 l 958 1028 m 443 247 q 545 274 503 247 q 609 342 588 300 q 631 429 631 383 l 631 431 q 581 560 631 506 q 443 614 532 614 q 310 564 363 614 q 258 432 258 514 q 310 298 258 349 q 443 247 363 247 z "},"श":{"ha":1167,"x_min":104,"x_max":1196,"o":"m 286 415 l 286 297 q 318 186 286 228 q 419 144 350 144 q 511 183 478 144 q 544 285 544 221 l 544 304 l 719 304 l 719 282 q 640 67 719 144 q 424 -11 561 -11 q 189 76 274 -11 q 104 310 104 163 l 104 567 l 301 567 q 482 610 411 567 q 553 747 553 654 q 519 847 553 810 q 426 885 485 885 q 335 847 368 885 q 301 747 301 810 l 303 694 l 125 694 q 121 753 121 724 q 158 903 121 838 q 265 1004 196 968 q 426 1040 335 1040 q 649 960 565 1040 q 733 736 733 881 q 631 497 733 579 q 367 415 529 415 l 286 415 m 1196 1028 l 1196 878 l 1042 878 l 1042 0 l 860 0 l 860 1028 l 1196 1028 z "},"ष":{"ha":944,"x_min":-29,"x_max":974,"o":"m 974 878 l 819 878 l 819 0 l 643 0 l 643 326 q 419 229 571 229 q 185 329 267 229 q 103 594 103 429 l 103 878 l -29 878 l -29 1028 l 974 1028 l 974 878 m 643 878 l 279 878 l 643 611 l 643 878 m 457 381 q 565 411 521 381 q 629 493 610 442 l 276 749 l 276 589 q 322 437 276 493 q 457 381 367 381 z "},"स":{"ha":1146,"x_min":-29,"x_max":1175,"o":"m 1175 878 l 1019 878 l 1019 0 l 842 0 l 842 443 l 275 443 l 275 282 q 304 179 275 218 q 392 140 333 140 q 476 176 446 140 q 507 269 507 213 l 507 288 l 679 288 q 681 261 681 276 q 604 61 681 135 q 394 -12 528 -12 q 175 72 253 -12 q 97 290 97 156 l 97 571 l 210 571 q 372 624 321 571 q 424 772 424 678 l 424 878 l -29 878 l -29 1028 l 1175 1028 l 1175 878 m 842 878 l 601 878 l 601 772 q 553 589 601 667 l 842 589 l 842 878 z "},"ह":{"ha":814,"x_min":-29,"x_max":842,"o":"m 411 628 q 332 608 363 628 q 301 544 301 589 q 317 496 301 517 q 358 464 332 475 q 428 469 388 469 q 651 400 571 469 q 746 222 732 331 l 574 222 q 525 295 564 264 q 425 326 486 326 q 309 281 353 326 q 265 161 265 235 q 309 42 265 88 q 425 -3 353 -3 q 523 27 483 -3 q 574 99 563 57 l 746 99 q 647 -82 733 -12 q 425 -151 560 -151 q 247 -111 322 -151 q 131 1 171 -71 q 90 165 90 72 q 126 312 90 247 q 225 417 161 376 q 150 484 176 443 q 124 579 124 525 q 184 710 124 663 q 347 757 244 757 l 486 757 l 486 878 l -29 878 l -29 1028 l 842 1028 l 842 878 l 657 878 l 657 628 l 411 628 z "},"ळ":{"ha":1354,"x_min":-29,"x_max":1382,"o":"m 1065 878 l 1065 718 q 1215 607 1158 688 q 1272 414 1272 526 q 1231 247 1272 319 q 1117 135 1189 175 q 956 96 1044 96 q 785 142 858 96 q 679 269 713 189 l 674 269 q 569 142 642 189 q 399 96 496 96 q 238 135 310 96 q 124 247 165 175 q 82 414 82 319 q 124 583 82 510 q 238 697 165 657 q 397 736 310 736 q 561 692 490 736 q 675 565 632 649 l 679 565 q 892 731 747 703 l 892 878 l -29 878 l -29 1028 l 1382 1028 l 1382 878 l 1065 878 m 424 249 q 543 295 497 249 q 589 414 589 342 q 543 536 589 489 q 424 583 497 583 q 303 536 350 583 q 257 413 257 489 q 304 294 257 339 q 424 249 351 249 m 929 249 q 1049 294 1003 249 q 1096 413 1096 339 q 1050 536 1096 489 q 931 583 1004 583 q 811 536 857 583 q 765 414 765 489 q 811 294 765 340 q 929 249 857 249 z "},"क़":{"ha":1356,"x_min":-29,"x_max":1383,"o":"m 774 878 l 774 638 q 859 722 804 690 q 989 753 914 753 q 1140 711 1075 753 q 1239 597 1204 669 q 1274 435 1274 525 q 1237 265 1274 336 q 1135 156 1200 193 q 986 118 1069 118 q 894 128 938 118 l 894 269 q 938 264 911 264 q 1049 308 1006 264 q 1092 431 1092 353 q 1047 551 1092 504 q 933 599 1003 599 q 815 546 856 599 q 774 418 774 493 l 774 0 l 601 0 l 601 225 q 511 138 569 169 q 372 107 453 107 q 219 147 285 107 q 118 261 154 188 q 82 431 82 335 q 119 599 82 526 q 223 713 156 672 q 379 753 290 753 q 513 723 457 753 q 601 640 568 693 l 601 878 l -29 878 l -29 1028 l 1383 1028 l 1383 878 l 774 878 m 432 257 q 524 282 486 257 q 582 347 563 307 q 601 429 601 386 q 558 549 601 499 q 433 600 514 600 q 313 553 361 600 q 264 429 264 506 q 311 304 264 351 q 432 257 358 257 m 456 -94 q 424 -170 456 -139 q 346 -201 392 -201 q 269 -170 301 -201 q 238 -94 238 -139 q 269 -17 238 -49 q 346 15 301 15 q 424 -17 392 15 q 456 -94 456 -49 z "},"ख़":{"ha":1319,"x_min":-29,"x_max":1349,"o":"m 1349 1028 l 1349 878 l 1194 878 l 1194 0 l 1017 0 l 1017 251 q 835 168 957 168 q 789 171 819 168 q 662 42 742 90 q 475 -7 582 -7 q 201 92 301 -7 q 100 367 100 190 l 100 557 l 142 557 q 283 601 235 557 q 332 749 332 646 l 332 878 l -29 878 l -29 1028 l 1349 1028 m 479 147 q 651 236 594 147 q 588 331 610 275 q 565 456 565 388 q 600 602 565 538 q 697 703 635 667 q 835 739 758 739 q 1017 656 954 739 l 1017 878 l 513 878 l 513 725 q 449 513 513 586 q 278 431 385 439 l 278 346 q 331 202 278 257 q 479 147 385 147 m 874 306 q 979 350 942 306 q 1017 454 1017 394 q 980 558 1017 514 q 874 601 943 601 q 767 562 810 601 q 725 456 725 522 q 767 345 725 385 q 874 306 810 306 m 556 -204 q 524 -280 556 -249 q 446 -311 492 -311 q 369 -280 401 -311 q 338 -204 338 -249 q 369 -126 338 -158 q 446 -94 401 -94 q 524 -126 492 -94 q 556 -204 556 -158 z "},"ग़":{"ha":1094,"x_min":-29,"x_max":1124,"o":"m 1124 1028 l 1124 878 l 969 878 l 969 0 l 790 0 l 790 878 l 589 878 l 589 542 q 524 341 589 418 q 325 264 458 264 q 126 335 196 264 q 56 532 56 406 q 57 575 56 561 l 231 575 l 231 532 q 252 449 231 482 q 321 417 274 417 q 408 533 408 417 l 408 878 l -29 878 l -29 1028 l 1124 1028 m 438 60 q 406 -16 438 15 q 328 -47 374 -47 q 251 -16 283 -47 q 219 60 219 15 q 251 138 219 106 q 328 169 283 169 q 406 138 374 169 q 438 60 438 106 z "},"ज़":{"ha":1183,"x_min":-29,"x_max":1213,"o":"m 1213 878 l 1058 878 l 1058 0 l 879 0 l 879 531 l 681 531 l 681 454 q 644 299 681 367 q 541 194 608 232 q 383 156 474 156 q 162 238 240 156 q 83 454 83 319 l 83 683 l 265 683 l 265 458 q 297 352 265 392 q 383 313 328 313 q 474 351 442 313 q 506 458 506 390 l 506 683 l 879 683 l 879 878 l -29 878 l -29 1028 l 1213 1028 l 1213 878 m 496 -44 q 464 -120 496 -89 q 386 -151 432 -151 q 310 -120 342 -151 q 278 -44 278 -89 q 310 33 278 1 q 386 65 342 65 q 464 33 432 65 q 496 -44 496 1 z "},"ड़":{"ha":790,"x_min":-29,"x_max":818,"o":"m 401 624 q 315 605 350 624 q 281 540 281 586 q 311 477 281 497 q 389 457 342 457 l 451 457 q 653 399 571 457 q 736 217 736 342 q 657 40 736 106 q 432 -25 578 -25 q 182 47 278 -25 q 81 243 86 118 l 260 243 q 306 147 261 182 q 426 111 351 111 q 530 140 493 111 q 567 218 567 169 q 526 303 567 276 q 418 331 485 331 l 367 331 q 181 378 260 331 q 101 546 101 426 q 173 699 101 649 q 354 750 244 750 l 476 750 l 476 878 l -29 878 l -29 1028 l 818 1028 l 818 878 l 649 878 l 649 624 l 401 624 m 538 -225 q 506 -301 538 -269 q 428 -332 474 -332 q 351 -301 383 -332 q 319 -225 319 -269 q 351 -147 319 -179 q 428 -115 383 -115 q 506 -147 474 -115 q 538 -225 538 -179 z "},"ढ़":{"ha":903,"x_min":-29,"x_max":931,"o":"m 544 636 q 336 569 417 636 q 256 378 256 503 q 326 197 256 267 q 522 126 397 126 q 665 167 608 126 q 721 275 721 207 q 692 349 721 319 q 621 378 664 378 q 556 353 582 378 q 529 290 529 329 q 533 265 529 276 l 404 265 q 399 315 399 299 q 463 456 399 406 q 628 507 526 507 q 808 443 742 507 q 874 275 874 379 q 780 72 874 146 q 518 -3 686 -3 q 295 44 394 -3 q 139 178 196 90 q 82 383 82 265 q 135 589 82 504 q 279 717 188 674 q 488 760 371 760 l 525 760 l 525 878 l -29 878 l -29 1028 l 931 1028 l 931 878 l 694 878 l 694 636 l 544 636 m 599 -201 q 567 -277 599 -246 q 489 -308 535 -308 q 413 -277 444 -308 q 381 -201 381 -246 q 413 -124 381 -156 q 489 -92 444 -92 q 567 -124 535 -92 q 599 -201 599 -156 z "},"फ़":{"ha":1368,"x_min":-29,"x_max":1397,"o":"m 779 878 l 779 639 q 869 722 813 692 q 1004 753 926 753 q 1153 712 1089 753 q 1252 600 1217 671 q 1288 440 1288 529 q 1251 267 1288 340 q 1148 156 1214 194 q 999 118 1082 118 q 901 131 946 118 l 901 269 q 953 263 926 263 q 1063 308 1021 263 q 1106 431 1106 354 q 1061 551 1106 504 q 947 599 1017 599 q 822 542 864 599 q 779 399 779 485 l 779 0 l 600 0 l 600 332 q 397 242 532 242 q 179 336 256 242 q 103 586 103 431 l 103 878 l -29 878 l -29 1028 l 1397 1028 l 1397 878 l 779 878 m 600 878 l 283 878 l 283 586 q 323 444 283 496 q 442 393 363 393 q 558 442 517 393 q 600 567 600 492 l 600 878 m 442 47 q 410 -28 442 3 q 332 -60 378 -60 q 256 -28 288 -60 q 224 47 224 3 q 256 125 224 93 q 332 157 288 157 q 410 125 378 157 q 442 47 442 93 z "},"ऱ":{"ha":740,"x_min":-29,"x_max":768,"o":"m 275 436 l 275 279 q 303 178 275 217 q 388 140 332 140 q 469 176 439 140 q 499 269 499 211 l 499 304 l 671 304 q 672 275 672 292 q 597 65 672 143 q 390 -12 522 -12 q 173 71 249 -12 q 97 288 97 154 l 97 582 l 240 582 q 402 633 351 582 q 453 782 453 683 l 453 878 l -29 878 l -29 1028 l 768 1028 l 768 878 l 632 878 l 632 782 q 306 436 632 436 l 275 436 m 264 -161 q 232 -237 264 -206 q 154 -268 200 -268 q 78 -237 110 -268 q 46 -161 46 -206 q 78 -83 46 -115 q 154 -51 110 -51 q 232 -83 200 -51 q 264 -161 264 -115 z "},"ं":{"ha":0,"x_min":-325,"x_max":-108,"o":"m -108 1249 q -140 1173 -108 1204 q -217 1142 -171 1142 q -294 1173 -262 1142 q -325 1249 -325 1204 q -294 1326 -325 1294 q -217 1357 -262 1357 q -140 1326 -171 1357 q -108 1249 -108 1294 z "},"ँ":{"ha":0,"x_min":-537,"x_max":89,"o":"m -150 1442 q -172 1388 -150 1410 q -225 1367 -193 1367 q -277 1389 -256 1367 q -299 1442 -299 1411 q -277 1494 -299 1472 q -225 1515 -256 1515 q -172 1494 -193 1515 q -150 1442 -150 1472 m 89 1404 q 8 1205 89 1279 q -224 1131 -74 1131 q -456 1205 -375 1131 q -537 1404 -537 1279 l -394 1404 q -349 1301 -394 1344 q -224 1258 -304 1258 q -100 1301 -144 1258 q -56 1404 -56 1344 l 89 1404 z "},"ः":{"ha":364,"x_min":72,"x_max":290,"o":"m 290 663 q 258 587 290 618 q 182 556 226 556 q 104 587 136 556 q 72 663 72 618 q 104 740 72 708 q 182 771 136 771 q 258 740 226 771 q 290 663 290 708 m 290 253 q 258 176 290 207 q 182 144 226 144 q 104 176 136 144 q 72 253 72 207 q 104 328 72 297 q 182 360 136 360 q 258 328 226 360 q 290 253 290 297 z "},"ऽ":{"ha":818,"x_min":89,"x_max":701,"o":"m 89 72 l 89 224 l 415 224 q 482 242 458 224 q 506 290 506 260 q 475 360 506 326 q 379 444 444 393 q 274 535 315 496 q 203 629 232 575 q 174 747 174 683 q 235 887 174 840 q 399 933 297 933 l 701 933 l 701 782 l 443 782 q 381 769 404 782 q 357 719 357 756 q 388 650 357 683 q 483 565 418 617 q 588 474 547 514 q 658 381 629 435 q 688 264 688 326 q 626 124 688 176 q 460 72 564 72 l 89 72 z "},"्":{"ha":0,"x_min":-300,"x_max":60,"o":"m -125 -376 l -300 -79 l -121 -79 l 60 -376 l -125 -376 z "},"़":{"ha":0,"x_min":-542,"x_max":-324,"o":"m -324 -197 q -356 -273 -324 -242 q -433 -304 -387 -304 q -510 -273 -478 -304 q -542 -197 -542 -242 q -510 -119 -542 -151 q -433 -87 -478 -87 q -356 -119 -387 -87 q -324 -197 -324 -151 z "},"०":{"ha":897,"x_min":74,"x_max":824,"o":"m 74 519 q 160 896 74 760 q 449 1032 247 1032 q 737 896 650 1032 q 824 519 824 760 q 737 140 824 278 q 449 3 650 3 q 160 140 247 3 q 74 519 74 278 m 632 519 q 619 692 632 622 q 566 807 606 763 q 449 851 526 851 q 331 807 371 851 q 278 692 292 763 q 265 519 265 622 q 278 342 265 414 q 331 227 290 271 q 449 183 371 183 q 567 227 526 183 q 619 342 607 271 q 632 519 632 414 z "},"१":{"ha":503,"x_min":50,"x_max":385,"o":"m 50 833 l 50 1013 l 385 1013 l 385 0 l 185 0 l 185 833 l 50 833 z "},"२":{"ha":797,"x_min":61,"x_max":749,"o":"m 135 219 q 347 405 268 331 q 479 560 426 479 q 532 718 532 640 q 499 829 532 789 q 396 869 465 869 q 289 823 326 869 q 250 696 251 776 l 61 696 q 160 949 67 863 q 399 1035 254 1035 q 642 951 557 1035 q 726 729 726 867 q 668 522 726 621 q 535 351 610 424 q 339 175 460 278 l 749 175 l 749 14 l 63 14 l 63 158 l 135 219 z "},"३":{"ha":832,"x_min":63,"x_max":751,"o":"m 76 746 q 174 960 83 885 q 414 1036 265 1036 q 588 1001 515 1036 q 697 905 660 965 q 733 768 733 844 q 688 620 733 681 q 581 539 643 560 l 581 533 q 706 444 661 508 q 751 281 751 381 q 713 132 751 197 q 601 30 675 67 q 422 -7 526 -7 q 167 72 265 -7 q 63 306 68 151 l 251 306 q 298 197 254 238 q 418 156 342 156 q 527 195 489 156 q 565 297 565 235 q 513 417 565 381 q 349 453 460 453 l 308 453 l 308 613 l 349 613 q 546 744 546 613 q 510 838 546 804 q 408 871 475 871 q 308 835 343 871 q 267 746 272 800 l 76 746 z "},"४":{"ha":918,"x_min":65,"x_max":868,"o":"m 65 197 l 65 350 l 519 1000 l 746 1000 l 746 367 l 868 367 l 868 197 l 746 197 l 746 0 l 551 0 l 551 197 l 65 197 m 564 792 l 279 367 l 564 367 l 564 792 z "},"५":{"ha":894,"x_min":110,"x_max":819,"o":"m 754 844 l 304 844 l 304 607 q 388 666 333 643 q 503 689 442 689 q 685 640 614 689 q 788 516 756 592 q 819 354 819 440 q 728 97 819 194 q 469 0 638 0 q 217 79 311 0 q 110 286 122 158 l 299 286 q 355 197 311 231 q 467 164 399 164 q 590 215 549 164 q 632 351 632 267 q 590 483 632 438 q 465 528 547 528 q 368 499 407 528 q 313 421 329 469 l 126 421 l 126 1015 l 754 1015 l 754 844 z "},"६":{"ha":889,"x_min":96,"x_max":808,"o":"m 599 760 q 551 847 585 818 q 453 876 517 876 q 312 799 357 876 q 265 549 267 722 q 363 635 299 604 q 501 667 426 667 q 661 628 592 667 q 769 515 731 589 q 808 336 808 440 q 769 160 808 238 q 653 40 729 83 q 471 -3 576 -3 q 244 61 326 -3 q 128 240 161 125 q 96 522 96 354 q 183 906 96 776 q 460 1036 271 1036 q 686 957 606 1036 q 779 760 767 878 l 599 760 m 457 507 q 333 464 383 507 q 283 339 283 421 q 330 210 283 257 q 461 163 376 163 q 580 208 536 163 q 624 332 624 254 q 581 460 624 413 q 457 507 539 507 z "},"७":{"ha":761,"x_min":49,"x_max":718,"o":"m 718 865 l 349 0 l 151 0 l 524 843 l 49 843 l 49 1010 l 718 1010 l 718 865 z "},"८":{"ha":893,"x_min":81,"x_max":813,"o":"m 243 536 q 104 760 104 608 q 142 897 104 835 q 258 995 181 958 q 446 1032 335 1032 q 634 995 557 1032 q 749 897 711 958 q 788 760 788 835 q 750 626 788 683 q 650 536 713 568 q 769 439 726 503 q 813 288 813 375 q 765 123 813 193 q 633 15 717 53 q 446 -22 550 -22 q 259 15 342 -22 q 128 123 176 53 q 81 288 81 193 q 124 440 81 375 q 243 536 167 504 m 599 732 q 558 838 599 800 q 446 875 517 875 q 335 838 376 875 q 294 731 294 800 q 337 631 294 668 q 446 593 379 593 q 556 631 513 593 q 599 732 599 669 m 446 451 q 317 411 367 451 q 268 296 268 371 q 316 183 268 226 q 446 139 364 139 q 575 183 528 139 q 622 296 622 228 q 574 410 622 369 q 446 451 525 451 z "},"९":{"ha":869,"x_min":90,"x_max":792,"o":"m 299 285 q 349 191 310 224 q 456 158 389 158 q 581 230 542 158 q 619 471 619 301 q 530 401 588 426 q 406 376 472 376 q 245 413 317 376 q 132 523 174 450 q 90 700 90 596 q 182 945 90 854 q 432 1036 274 1036 q 710 910 629 1036 q 792 529 792 783 q 760 233 792 349 q 653 58 729 118 q 447 -1 578 -1 q 272 38 344 -1 q 162 142 200 78 q 118 285 124 207 l 299 285 m 446 535 q 560 579 518 535 q 601 699 601 624 q 558 826 601 781 q 439 871 514 871 q 320 824 364 871 q 276 701 276 778 q 319 581 276 628 q 446 535 361 535 z "},"ॐ":{"ha":1481,"x_min":100,"x_max":1374,"o":"m 788 1256 q 735 1276 756 1256 q 714 1329 714 1297 q 735 1383 714 1361 q 788 1404 757 1404 q 840 1383 819 1404 q 861 1329 861 1361 q 840 1276 861 1297 q 788 1256 819 1256 m 788 1018 q 556 1092 636 1018 q 475 1292 475 1167 l 617 1292 q 662 1190 617 1232 q 788 1147 707 1147 q 912 1190 867 1147 q 957 1292 957 1232 l 1101 1292 q 1020 1092 1101 1167 q 788 1018 939 1018 m 1082 950 q 1305 863 1236 950 q 1374 607 1374 776 l 1374 431 q 1282 129 1374 232 q 1007 26 1190 26 q 868 40 951 26 l 868 190 q 975 179 931 179 q 1150 244 1100 179 q 1200 436 1200 308 l 1200 629 q 1173 754 1200 711 q 1082 797 1146 797 q 968 657 968 797 q 942 494 968 556 q 856 405 915 433 q 697 374 797 376 q 710 290 710 335 q 673 145 710 207 q 570 49 636 83 q 418 15 504 15 q 251 51 324 15 q 140 153 179 88 q 100 304 100 218 l 269 304 q 308 208 269 246 q 408 169 346 169 q 508 208 471 169 q 544 307 544 246 q 506 406 544 365 q 389 447 467 447 l 329 447 l 329 599 l 389 599 q 494 634 456 599 q 532 724 532 669 q 496 817 532 782 q 406 851 460 851 q 313 819 349 851 q 276 732 276 786 l 110 732 q 147 874 110 813 q 252 969 185 936 q 407 1003 319 1003 q 616 933 538 1003 q 694 747 694 864 q 654 610 694 667 q 539 531 614 553 l 539 525 q 574 514 551 522 l 656 514 q 767 545 732 514 q 801 658 801 576 q 867 875 801 800 q 1082 950 932 950 z "},"॰":{"ha":669,"x_min":100,"x_max":571,"o":"m 338 703 q 506 638 440 703 q 571 472 571 574 q 506 308 571 372 q 338 244 440 244 q 215 274 269 244 q 131 356 161 303 q 100 474 100 408 q 167 639 100 575 q 338 703 233 703 m 338 596 q 246 561 282 596 q 210 474 210 526 q 246 385 210 419 q 338 351 282 351 q 425 385 390 351 q 460 472 460 419 q 425 560 460 525 q 338 596 390 596 z "},"।":{"ha":444,"x_min":210,"x_max":388,"o":"m 388 1029 l 388 0 l 210 0 l 210 1029 l 388 1029 z "},"॥":{"ha":792,"x_min":210,"x_max":732,"o":"m 388 1029 l 388 0 l 210 0 l 210 1029 l 388 1029 m 732 1029 l 732 0 l 554 0 l 554 1029 l 732 1029 z "},"₨":{"ha":1621,"x_min":96,"x_max":1521,"o":"m 810 674 q 751 498 810 575 q 576 394 693 421 l 821 0 l 592 0 l 365 382 l 290 382 l 290 0 l 96 0 l 96 969 l 460 969 q 651 931 572 969 q 770 824 731 892 q 810 674 810 757 m 290 526 l 453 526 q 571 564 532 526 q 610 669 610 601 q 571 775 610 738 q 453 813 532 813 l 290 813 l 290 526 m 1068 547 q 1111 483 1068 503 q 1243 444 1154 463 q 1386 405 1331 425 q 1481 340 1442 385 q 1521 219 1521 296 q 1483 100 1521 153 q 1375 17 1444 47 q 1215 -12 1306 -12 q 984 54 1072 -12 q 885 243 896 121 l 1082 243 q 1122 165 1086 193 q 1214 138 1157 138 q 1303 161 1272 138 q 1335 224 1335 185 q 1291 289 1335 268 q 1157 328 1247 310 q 1016 365 1071 346 q 922 428 961 385 q 883 546 883 471 q 920 664 883 610 q 1028 750 957 718 q 1194 782 1099 782 q 1417 713 1333 782 q 1511 528 1500 644 l 1315 528 q 1276 604 1310 576 q 1186 632 1242 632 q 1099 608 1131 632 q 1068 547 1068 585 z "},"₹":{"ha":849,"x_min":58,"x_max":804,"o":"m 664 835 l 664 729 l 804 729 l 804 601 l 656 601 q 547 410 633 469 q 285 350 460 350 l 285 276 q 312 174 285 211 q 404 136 339 136 q 494 172 467 136 q 522 275 522 207 l 703 275 q 624 60 700 135 q 406 -14 547 -14 q 181 65 258 -14 q 103 296 103 144 l 103 481 q 322 488 251 481 q 428 521 393 496 q 474 601 463 546 l 58 601 l 58 729 l 481 729 l 481 835 l 58 835 l 58 971 l 804 971 l 804 835 l 664 835 z "},"‌":{"ha":0,"x_min":-32,"x_max":33,"o":"m -32 -319 l -32 1126 l 33 1126 l 33 -319 l -32 -319 z "},"‍":{"ha":0,"x_min":-178,"x_max":178,"o":"m 132 778 l 32 882 l 32 -319 l -33 -319 l -33 882 l -129 781 l -175 826 l -46 956 l -178 1088 l -132 1133 l 0 1001 l 133 1133 l 178 1089 l 44 956 l 178 824 l 132 778 z "},"◌":{"ha":904,"x_min":69,"x_max":835,"o":"m 478 692 q 461 649 478 665 q 418 633 444 633 q 375 649 392 633 q 358 692 358 665 q 375 734 358 718 q 418 750 392 750 q 461 734 444 750 q 478 692 478 718 m 646 671 q 629 628 646 644 q 586 613 613 613 q 543 628 560 613 q 526 671 526 644 q 543 713 526 697 q 586 729 560 729 q 629 713 613 729 q 646 671 646 697 m 315 633 q 299 591 315 607 q 256 575 282 575 q 213 591 229 575 q 196 633 196 607 q 213 676 196 660 q 256 692 229 692 q 299 676 282 692 q 315 633 315 660 m 774 568 q 757 526 774 542 q 714 510 740 510 q 671 526 688 510 q 654 568 654 542 q 671 610 654 594 q 714 626 688 626 q 757 610 740 626 q 774 568 774 594 m 210 496 q 193 453 210 469 q 150 438 176 438 q 107 453 124 438 q 90 496 90 469 q 107 538 90 522 q 150 554 124 554 q 193 538 176 554 q 210 496 210 522 m 835 410 q 818 367 835 383 q 775 351 801 351 q 732 367 749 351 q 715 410 715 383 q 732 452 715 436 q 775 468 749 468 q 818 452 801 468 q 835 410 835 436 m 189 328 q 172 285 189 301 q 129 269 156 269 q 86 285 103 269 q 69 328 69 301 q 86 370 69 354 q 129 386 103 386 q 172 370 156 386 q 189 328 189 354 m 821 243 q 804 201 821 217 q 761 185 788 185 q 718 201 735 185 q 701 243 701 217 q 718 285 701 269 q 761 301 735 301 q 804 285 788 301 q 821 243 821 269 m 251 171 q 235 128 251 144 q 192 113 218 113 q 149 128 165 113 q 132 171 132 144 q 149 213 132 197 q 192 229 165 229 q 235 213 218 229 q 251 171 251 197 m 719 110 q 703 67 719 83 q 660 51 686 51 q 617 67 633 51 q 600 110 600 83 q 617 152 600 136 q 660 168 633 168 q 703 152 686 168 q 719 110 719 136 m 388 65 q 371 23 388 39 q 328 7 354 7 q 285 23 301 7 q 268 65 268 39 q 285 108 268 92 q 328 124 301 124 q 371 108 354 124 q 388 65 388 92 m 560 46 q 543 3 560 19 q 500 -12 526 -12 q 457 3 474 -12 q 440 46 440 19 q 457 88 440 72 q 500 104 474 104 q 543 88 526 104 q 560 46 560 72 z "},"!":{"ha":492,"x_min":126,"x_max":365,"o":"m 347 986 l 325 315 l 161 315 l 138 986 l 347 986 m 247 -10 q 160 23 194 -10 q 126 104 126 56 q 160 185 126 153 q 247 218 194 218 q 332 185 299 218 q 365 104 365 153 q 332 23 365 56 q 247 -10 299 -10 z "},"\"":{"ha":506,"x_min":51,"x_max":454,"o":"m 218 1108 l 201 814 l 69 814 l 51 1108 l 218 1108 m 454 1108 l 436 814 l 304 814 l 286 1108 l 454 1108 z "},"#":{"ha":1232,"x_min":36,"x_max":1165,"o":"m 950 624 l 904 410 l 1081 410 l 1081 236 l 867 236 l 817 0 l 632 0 l 682 236 l 429 236 l 379 0 l 196 0 l 246 236 l 36 236 l 36 410 l 283 410 l 329 624 l 121 624 l 121 797 l 367 797 l 415 1028 l 599 1028 l 550 797 l 803 797 l 851 1028 l 1036 1028 l 988 797 l 1165 797 l 1165 624 l 950 624 m 765 624 l 513 624 l 467 410 l 719 410 l 765 624 z "},"$":{"ha":908,"x_min":74,"x_max":788,"o":"m 788 279 q 751 144 788 207 q 642 40 714 81 q 474 -8 571 -1 l 474 -121 l 385 -121 l 385 -7 q 161 77 246 6 q 74 271 76 149 l 282 271 q 385 150 290 171 l 385 415 q 224 465 285 440 q 118 546 163 490 q 74 697 74 601 q 160 894 74 818 q 385 982 247 971 l 385 1094 l 474 1094 l 474 982 q 687 901 607 971 q 776 710 767 832 l 567 710 q 538 780 563 750 q 474 822 514 810 l 474 560 q 638 509 578 533 q 743 430 699 485 q 788 279 788 375 m 276 707 q 304 633 276 661 q 385 586 332 604 l 385 826 q 306 789 335 819 q 276 707 276 758 m 474 147 q 556 190 526 157 q 586 271 586 224 q 557 344 586 317 q 474 390 528 372 l 474 147 z "},"%":{"ha":1151,"x_min":51,"x_max":1100,"o":"m 51 764 q 113 929 51 869 q 272 989 175 989 q 431 929 369 989 q 493 764 493 869 q 431 597 493 657 q 272 538 369 538 q 113 597 175 538 q 51 764 51 657 m 943 972 l 397 0 l 208 0 l 753 972 l 943 972 m 271 872 q 194 764 194 872 q 271 654 194 654 q 329 681 308 654 q 350 764 350 708 q 271 872 350 872 m 661 210 q 723 376 661 317 q 882 435 785 435 q 1040 376 979 435 q 1100 210 1100 317 q 1040 43 1100 103 q 882 -17 979 -17 q 722 43 783 -17 q 661 210 661 103 m 881 318 q 801 210 801 318 q 881 100 801 100 q 958 210 958 100 q 881 318 958 318 z "},"&":{"ha":1081,"x_min":49,"x_max":1081,"o":"m 842 0 l 736 104 q 407 -17 601 -17 q 219 20 300 -17 q 93 124 138 57 q 49 281 49 192 q 103 453 49 376 q 263 576 157 529 q 208 665 225 622 q 192 756 192 707 q 226 876 192 822 q 326 960 261 929 q 476 990 390 990 q 626 957 564 990 q 719 868 689 924 q 746 744 750 813 l 557 744 q 535 815 558 790 q 471 839 511 839 q 406 816 432 839 q 381 757 381 793 q 401 688 381 722 q 469 604 422 654 l 714 363 q 718 368 717 365 q 721 374 719 371 l 800 506 l 1003 506 l 906 335 q 846 232 878 281 l 1081 0 l 842 0 m 413 144 q 614 225 526 144 l 375 461 q 240 292 240 401 q 288 187 240 229 q 413 144 335 144 z "},"'":{"ha":271,"x_min":51,"x_max":218,"o":"m 218 1108 l 201 814 l 69 814 l 51 1108 l 218 1108 z "},"(":{"ha":674,"x_min":149,"x_max":649,"o":"m 432 -274 q 223 60 297 -143 q 149 494 149 263 q 226 941 149 732 q 453 1283 304 1150 l 649 1283 l 649 1265 q 416 915 496 1119 q 336 494 336 711 q 412 87 336 283 q 628 -254 488 -110 l 628 -274 l 432 -274 z "},")":{"ha":674,"x_min":25,"x_max":525,"o":"m 46 -274 l 46 -254 q 262 87 186 -110 q 338 494 338 283 q 258 915 338 711 q 25 1265 178 1119 l 25 1283 l 221 1283 q 447 941 369 1150 q 525 494 525 732 q 451 60 525 263 q 242 -274 376 -143 l 46 -274 z "},"*":{"ha":719,"x_min":94,"x_max":624,"o":"m 554 953 l 624 828 l 443 763 l 624 697 l 551 568 l 401 692 l 433 500 l 289 500 l 319 692 l 171 565 l 94 699 l 275 764 l 96 826 l 167 954 l 321 832 l 289 1025 l 435 1025 l 401 832 l 554 953 z "},"+":{"ha":936,"x_min":114,"x_max":822,"o":"m 822 410 l 560 410 l 560 140 l 376 140 l 376 410 l 114 410 l 114 579 l 376 579 l 376 849 l 560 849 l 560 579 l 822 579 l 822 410 z "},",":{"ha":353,"x_min":21,"x_max":308,"o":"m 308 204 l 146 -186 l 21 -186 l 111 204 l 308 204 z "},"-":{"ha":810,"x_min":99,"x_max":688,"o":"m 688 578 l 688 414 l 99 414 l 99 578 l 688 578 z "},".":{"ha":361,"x_min":61,"x_max":300,"o":"m 182 -10 q 95 23 129 -10 q 61 104 61 56 q 95 185 61 153 q 182 218 129 218 q 267 185 233 218 q 300 104 300 153 q 267 23 300 56 q 182 -10 233 -10 z "},"/":{"ha":675,"x_min":51,"x_max":617,"o":"m 617 1315 l 242 -251 l 51 -251 l 426 1315 l 617 1315 z "},":":{"ha":365,"x_min":61,"x_max":300,"o":"m 182 -10 q 95 23 129 -10 q 61 104 61 56 q 95 185 61 153 q 182 218 129 218 q 267 185 233 218 q 300 104 300 153 q 267 23 300 56 q 182 -10 233 -10 m 182 565 q 95 598 129 565 q 61 679 61 631 q 95 760 61 728 q 182 793 129 793 q 267 760 233 793 q 300 679 300 728 q 267 598 300 631 q 182 565 233 565 z "},";":{"ha":450,"x_min":57,"x_max":344,"o":"m 217 560 q 130 592 164 560 q 96 674 96 625 q 130 755 96 722 q 217 788 164 788 q 301 755 268 788 q 335 674 335 722 q 301 592 335 625 q 217 560 268 560 m 344 204 l 182 -186 l 57 -186 l 147 204 l 344 204 z "},"<":{"ha":811,"x_min":110,"x_max":657,"o":"m 413 183 l 110 494 l 413 806 l 657 806 l 354 494 l 657 183 l 413 183 z "},"=":{"ha":1025,"x_min":133,"x_max":890,"o":"m 890 746 l 890 576 l 133 576 l 133 746 l 890 746 m 890 413 l 890 243 l 133 243 l 133 413 l 890 413 z "},">":{"ha":788,"x_min":124,"x_max":672,"o":"m 124 806 l 369 806 l 672 494 l 369 183 l 124 183 l 428 494 l 124 806 z "},"?":{"ha":747,"x_min":47,"x_max":688,"o":"m 367 1003 q 599 924 511 1003 q 688 708 688 846 q 600 501 688 572 q 368 429 513 429 l 363 322 l 192 322 l 185 558 l 247 558 q 433 590 368 558 q 499 707 499 622 q 463 804 499 768 q 367 840 428 840 q 267 806 303 840 q 232 710 232 771 l 49 710 q 85 861 47 794 q 195 965 122 928 q 367 1003 268 1003 m 276 -10 q 190 23 224 -10 q 156 104 156 56 q 190 185 156 153 q 276 218 224 218 q 361 185 328 218 q 394 104 394 153 q 361 23 394 56 q 276 -10 328 -10 z "},"@":{"ha":1460,"x_min":99,"x_max":1360,"o":"m 836 911 q 1115 851 997 911 q 1297 683 1233 792 q 1360 433 1360 575 q 1320 218 1360 319 q 1206 54 1281 117 q 1028 -8 1131 -8 q 911 22 956 -8 q 854 107 867 51 q 750 22 814 53 q 615 -10 686 -10 q 450 53 510 -10 q 390 226 390 117 q 433 421 390 331 q 553 566 476 511 q 725 621 629 621 q 889 538 844 621 l 901 610 l 1064 610 l 999 235 q 994 186 994 208 q 1008 136 994 153 q 1056 119 1022 119 q 1140 167 1106 119 q 1191 285 1174 214 q 1208 426 1208 356 q 1106 687 1208 594 q 815 779 1003 779 q 526 702 656 779 q 324 492 397 625 q 251 197 251 360 q 353 -68 251 25 q 643 -161 456 -161 q 881 -112 778 -161 l 908 -240 q 615 -296 776 -296 q 343 -237 460 -296 q 163 -69 226 -178 q 99 182 99 39 q 194 553 99 386 q 458 815 289 719 q 836 911 626 911 m 676 135 q 768 164 726 135 q 834 242 810 193 q 858 346 858 290 q 826 440 858 404 q 738 476 794 476 q 647 445 686 476 q 587 364 608 414 q 565 258 565 314 q 593 168 565 201 q 676 135 621 135 z "},"A":{"ha":994,"x_min":36,"x_max":960,"o":"m 690 185 l 304 185 l 240 0 l 36 0 l 385 971 l 611 971 l 960 0 l 754 0 l 690 185 m 638 340 l 497 746 l 357 340 l 638 340 z "},"B":{"ha":893,"x_min":96,"x_max":833,"o":"m 646 497 q 781 415 728 482 q 833 263 833 349 q 795 126 833 185 q 685 33 757 67 q 514 0 613 0 l 96 0 l 96 969 l 496 969 q 666 938 594 969 q 774 849 738 906 q 811 719 811 792 q 766 578 811 635 q 646 497 721 521 m 290 569 l 468 569 q 575 601 538 569 q 613 690 613 632 q 575 781 613 749 q 468 813 538 813 l 290 813 l 290 569 m 486 158 q 597 192 557 158 q 636 286 636 225 q 594 384 636 349 q 482 419 553 419 l 290 419 l 290 158 l 486 158 z "},"C":{"ha":1067,"x_min":49,"x_max":996,"o":"m 49 486 q 113 742 49 629 q 290 919 178 856 q 540 982 401 982 q 825 899 703 982 q 996 668 947 815 l 772 668 q 678 772 739 738 q 539 807 618 807 q 388 767 454 807 q 285 656 322 728 q 249 486 249 583 q 285 317 249 390 q 388 205 322 244 q 539 165 454 165 q 678 201 618 165 q 772 306 739 236 l 996 306 q 826 74 947 157 q 540 -8 704 -8 q 290 55 401 -8 q 113 231 178 118 q 49 486 49 343 z "},"D":{"ha":996,"x_min":96,"x_max":946,"o":"m 435 969 q 703 910 588 969 q 883 740 819 850 q 946 483 946 629 q 883 228 946 338 q 703 60 819 119 q 435 0 588 0 l 96 0 l 96 969 l 435 969 m 428 165 q 664 249 581 165 q 747 483 747 332 q 664 720 747 635 q 428 806 581 806 l 290 806 l 290 165 l 428 165 z "},"E":{"ha":739,"x_min":96,"x_max":658,"o":"m 290 813 l 290 569 l 617 569 l 617 415 l 290 415 l 290 158 l 658 158 l 658 0 l 96 0 l 96 971 l 658 971 l 658 813 l 290 813 z "},"F":{"ha":736,"x_min":96,"x_max":694,"o":"m 694 969 l 694 813 l 290 813 l 290 564 l 600 564 l 600 410 l 290 410 l 290 0 l 96 0 l 96 969 l 694 969 z "},"G":{"ha":1067,"x_min":49,"x_max":1018,"o":"m 771 678 q 679 771 738 739 q 543 803 621 803 q 390 764 457 803 q 286 653 324 725 q 249 486 249 581 q 287 317 249 389 q 393 206 325 244 q 551 167 461 167 q 733 226 663 167 q 826 390 804 285 l 493 390 l 493 539 l 1018 539 l 1018 369 q 935 182 999 268 q 770 44 871 96 q 544 -8 669 -8 q 291 55 404 -8 q 113 231 178 118 q 49 486 49 343 q 113 742 49 629 q 291 919 178 856 q 543 982 404 982 q 828 902 707 982 q 994 678 949 822 l 771 678 z "},"H":{"ha":996,"x_min":96,"x_max":900,"o":"m 900 969 l 900 0 l 706 0 l 706 413 l 290 413 l 290 0 l 96 0 l 96 969 l 290 969 l 290 571 l 706 571 l 706 969 l 900 969 z "},"I":{"ha":386,"x_min":96,"x_max":290,"o":"m 290 969 l 290 0 l 96 0 l 96 969 l 290 969 z "},"J":{"ha":792,"x_min":50,"x_max":661,"o":"m 661 969 l 661 289 q 579 69 661 147 q 360 -10 497 -10 q 135 71 221 -10 q 50 296 50 151 l 244 296 q 274 199 246 233 q 357 164 303 164 q 438 197 410 164 q 465 289 465 231 l 465 969 l 661 969 z "},"K":{"ha":921,"x_min":96,"x_max":889,"o":"m 643 0 l 290 432 l 290 0 l 96 0 l 96 969 l 290 969 l 290 535 l 643 969 l 878 969 l 478 489 l 889 0 l 643 0 z "},"L":{"ha":638,"x_min":96,"x_max":610,"o":"m 290 154 l 610 154 l 610 0 l 96 0 l 96 969 l 290 969 l 290 154 z "},"M":{"ha":1249,"x_min":96,"x_max":1153,"o":"m 1153 969 l 1153 0 l 958 0 l 958 631 l 699 0 l 551 0 l 290 631 l 290 0 l 96 0 l 96 969 l 317 969 l 625 249 l 933 969 l 1153 969 z "},"N":{"ha":1021,"x_min":96,"x_max":925,"o":"m 925 0 l 731 0 l 290 665 l 290 0 l 96 0 l 96 971 l 290 971 l 731 304 l 731 971 l 925 971 l 925 0 z "},"O":{"ha":1090,"x_min":49,"x_max":1042,"o":"m 546 -10 q 296 54 410 -10 q 115 231 182 118 q 49 488 49 344 q 115 742 49 629 q 296 919 182 856 q 546 983 410 983 q 797 919 683 983 q 976 742 910 856 q 1042 488 1042 629 q 976 231 1042 344 q 796 54 910 118 q 546 -10 682 -10 m 546 164 q 700 203 633 164 q 804 317 767 243 q 842 488 842 390 q 804 658 842 585 q 700 769 767 731 q 546 808 633 808 q 391 769 458 808 q 286 658 324 731 q 249 488 249 585 q 286 317 249 390 q 391 203 324 243 q 546 164 458 164 z "},"P":{"ha":844,"x_min":96,"x_max":803,"o":"m 803 669 q 766 524 803 592 q 651 414 729 456 q 453 372 572 372 l 290 372 l 290 0 l 96 0 l 96 969 l 453 969 q 644 931 565 969 q 763 824 724 892 q 803 669 803 756 m 444 529 q 564 566 525 529 q 603 669 603 603 q 444 811 603 811 l 290 811 l 290 529 l 444 529 z "},"Q":{"ha":1093,"x_min":49,"x_max":1060,"o":"m 818 -171 l 671 6 q 546 -10 610 -10 q 296 54 410 -10 q 115 231 182 118 q 49 488 49 344 q 115 742 49 629 q 296 919 182 856 q 546 983 410 983 q 797 919 683 983 q 976 742 910 856 q 1042 488 1042 629 q 987 252 1042 358 q 838 79 932 146 l 1060 -171 l 818 -171 m 249 488 q 286 317 249 390 q 391 203 324 243 q 546 164 458 164 q 700 203 633 164 q 804 317 767 243 q 842 488 842 390 q 804 658 842 585 q 700 769 767 731 q 546 808 633 808 q 391 769 458 808 q 286 658 324 731 q 249 488 249 585 z "},"R":{"ha":890,"x_min":96,"x_max":821,"o":"m 596 0 l 382 378 l 290 378 l 290 0 l 96 0 l 96 969 l 460 969 q 651 930 572 969 q 770 823 731 890 q 810 672 810 756 q 754 499 810 576 q 589 393 699 422 l 821 0 l 596 0 m 290 524 l 453 524 q 571 562 532 524 q 610 668 610 600 q 571 772 610 735 q 453 808 532 808 l 290 808 l 290 524 z "},"S":{"ha":846,"x_min":71,"x_max":774,"o":"m 431 -10 q 248 25 329 -10 q 119 125 167 60 q 71 279 72 190 l 279 279 q 322 185 283 219 q 426 150 360 150 q 533 183 494 150 q 572 268 572 215 q 546 339 572 311 q 480 383 519 367 q 371 418 440 399 q 217 473 276 446 q 116 555 158 500 q 74 701 74 610 q 117 851 74 788 q 238 949 160 915 q 415 983 315 983 q 659 910 565 983 q 763 707 753 838 l 549 707 q 506 790 546 757 q 401 822 467 822 q 310 793 344 822 q 276 708 276 764 q 302 644 276 669 q 366 602 328 618 q 474 565 404 586 q 628 510 568 538 q 731 426 688 482 q 774 281 774 371 q 733 136 774 203 q 615 30 693 69 q 431 -10 538 -10 z "},"T":{"ha":801,"x_min":44,"x_max":756,"o":"m 756 969 l 756 813 l 497 813 l 497 0 l 303 0 l 303 813 l 44 813 l 44 969 l 756 969 z "},"U":{"ha":968,"x_min":93,"x_max":876,"o":"m 288 969 l 288 369 q 339 219 288 271 q 483 167 390 167 q 629 219 578 167 q 681 369 681 271 l 681 969 l 876 969 l 876 371 q 823 162 876 247 q 680 33 769 76 q 481 -10 590 -10 q 284 33 372 -10 q 144 162 196 76 q 93 371 93 247 l 93 969 l 288 969 z "},"V":{"ha":988,"x_min":19,"x_max":967,"o":"m 967 969 l 611 0 l 375 0 l 19 969 l 228 969 l 494 199 l 760 969 l 967 969 z "},"W":{"ha":1422,"x_min":31,"x_max":1392,"o":"m 1392 969 l 1121 0 l 892 0 l 710 690 l 519 0 l 292 -1 l 31 969 l 239 969 l 410 217 l 607 969 l 824 969 l 1010 221 l 1182 969 l 1392 969 z "},"X":{"ha":953,"x_min":53,"x_max":900,"o":"m 676 0 l 467 326 l 276 0 l 57 0 l 363 489 l 53 969 l 276 969 l 486 644 l 675 969 l 894 969 l 590 482 l 900 0 l 676 0 z "},"Y":{"ha":883,"x_min":15,"x_max":867,"o":"m 867 969 l 539 338 l 539 0 l 344 0 l 344 338 l 15 969 l 235 969 l 443 526 l 650 969 l 867 969 z "},"Z":{"ha":800,"x_min":69,"x_max":731,"o":"m 294 164 l 731 164 l 731 0 l 69 0 l 69 150 l 503 806 l 69 806 l 69 969 l 731 969 l 731 819 l 294 164 z "},"[":{"ha":690,"x_min":188,"x_max":536,"o":"m 536 1283 l 536 1125 l 371 1125 l 371 -112 l 536 -112 l 536 -274 l 188 -274 l 188 1283 l 536 1283 z "},"\\":{"ha":1050,"x_min":240,"x_max":826,"o":"m 636 -251 l 240 1315 l 429 1315 l 826 -251 l 636 -251 z "},"]":{"ha":689,"x_min":153,"x_max":501,"o":"m 501 -274 l 153 -274 l 153 -112 l 318 -112 l 318 1125 l 153 1125 l 153 1283 l 501 1283 l 501 -274 z "},"^":{"ha":944,"x_min":46,"x_max":899,"o":"m 244 232 l 46 232 l 379 972 l 565 972 l 899 232 l 699 232 l 474 742 l 244 232 z "},"_":{"ha":1097,"x_min":149,"x_max":964,"o":"m 964 -56 l 964 -240 l 149 -240 l 149 -56 l 964 -56 z "},"`":{"ha":376,"x_min":14,"x_max":333,"o":"m 333 963 l 333 824 l 14 969 l 14 1128 l 333 963 z "},"a":{"ha":942,"x_min":46,"x_max":847,"o":"m 46 388 q 92 594 46 504 q 219 733 139 685 q 397 782 299 782 q 548 747 483 782 q 651 660 613 713 l 651 769 l 847 769 l 847 0 l 651 0 l 651 113 q 548 23 614 58 q 396 -12 482 -12 q 219 38 299 -12 q 92 178 139 88 q 46 388 46 269 m 651 385 q 624 506 651 456 q 549 584 596 557 q 447 611 501 611 q 347 585 393 611 q 273 508 301 558 q 244 388 244 457 q 273 266 244 318 q 348 186 301 214 q 447 158 394 158 q 549 185 501 158 q 624 263 596 213 q 651 385 651 314 z "},"b":{"ha":942,"x_min":96,"x_max":896,"o":"m 290 657 q 394 747 328 713 q 544 782 460 782 q 723 733 643 782 q 849 595 803 685 q 896 388 896 506 q 849 178 896 269 q 723 38 803 88 q 544 -12 643 -12 q 394 22 458 -12 q 290 110 329 56 l 290 0 l 96 0 l 96 1028 l 290 1028 l 290 657 m 697 388 q 669 508 697 457 q 594 585 640 558 q 493 611 547 611 q 394 584 440 611 q 319 506 347 557 q 290 385 290 454 q 319 264 290 315 q 394 185 347 213 q 493 158 440 158 q 594 186 547 158 q 669 265 640 214 q 697 388 697 317 z "},"c":{"ha":836,"x_min":46,"x_max":789,"o":"m 46 385 q 94 594 46 504 q 229 733 143 683 q 426 782 315 782 q 663 710 569 782 q 789 510 757 639 l 579 510 q 523 588 563 560 q 425 617 483 617 q 293 556 342 617 q 244 385 244 496 q 293 215 244 275 q 425 154 342 154 q 579 260 543 154 l 789 260 q 663 61 757 135 q 426 -12 568 -12 q 229 37 315 -12 q 94 176 143 86 q 46 385 46 265 z "},"d":{"ha":942,"x_min":46,"x_max":847,"o":"m 46 388 q 92 594 46 504 q 219 733 139 685 q 399 782 300 782 q 542 749 474 782 q 650 663 610 717 l 650 1028 l 847 1028 l 847 0 l 650 0 l 650 114 q 549 22 614 57 q 397 -12 483 -12 q 219 38 300 -12 q 92 178 139 88 q 46 388 46 269 m 651 385 q 624 506 651 456 q 549 584 596 557 q 447 611 501 611 q 347 585 393 611 q 273 508 301 558 q 244 388 244 457 q 273 266 244 318 q 348 186 301 214 q 447 158 394 158 q 549 185 501 158 q 624 263 596 213 q 651 385 651 314 z "},"e":{"ha":857,"x_min":46,"x_max":811,"o":"m 811 401 q 806 326 811 360 l 243 326 q 301 196 250 243 q 428 149 353 149 q 582 242 536 149 l 792 242 q 664 59 758 131 q 432 -12 569 -12 q 233 37 321 -12 q 95 176 144 86 q 46 385 46 267 q 94 594 46 504 q 231 733 143 685 q 432 782 318 782 q 628 735 542 782 q 763 601 715 688 q 811 401 811 514 m 610 457 q 556 577 608 532 q 426 622 503 622 q 305 578 354 622 q 244 457 256 535 l 610 457 z "},"f":{"ha":479,"x_min":29,"x_max":449,"o":"m 449 610 l 314 610 l 314 0 l 117 0 l 117 610 l 29 610 l 29 769 l 117 769 l 117 808 q 197 1017 117 950 q 440 1079 278 1083 l 440 915 q 342 892 369 917 q 314 801 314 867 l 314 769 l 449 769 l 449 610 z "},"g":{"ha":942,"x_min":46,"x_max":847,"o":"m 397 782 q 549 748 483 782 q 651 660 614 714 l 651 769 l 847 769 l 847 -6 q 804 -197 847 -112 q 675 -330 761 -281 q 467 -379 589 -379 q 198 -303 303 -379 q 79 -94 93 -226 l 272 -94 q 338 -178 288 -147 q 461 -210 389 -210 q 599 -159 546 -210 q 651 -6 651 -108 l 651 114 q 548 24 614 60 q 397 -12 482 -12 q 219 38 300 -12 q 92 178 139 88 q 46 388 46 269 q 92 594 46 504 q 219 733 139 685 q 397 782 299 782 m 651 385 q 624 506 651 456 q 549 584 596 557 q 447 611 501 611 q 347 585 393 611 q 273 508 301 558 q 244 388 244 457 q 273 266 244 318 q 348 186 301 214 q 447 158 394 158 q 549 185 501 158 q 624 263 596 213 q 651 385 651 314 z "},"h":{"ha":918,"x_min":96,"x_max":829,"o":"m 529 781 q 685 742 617 781 q 791 630 753 704 q 829 451 829 556 l 829 0 l 635 0 l 635 425 q 589 566 635 517 q 464 615 543 615 q 337 566 383 615 q 290 425 290 517 l 290 0 l 96 0 l 96 1028 l 290 1028 l 290 674 q 390 752 328 724 q 529 781 453 781 z "},"i":{"ha":386,"x_min":75,"x_max":314,"o":"m 194 861 q 109 894 143 861 q 75 975 75 926 q 109 1056 75 1024 q 194 1089 143 1089 q 280 1056 246 1089 q 314 975 314 1024 q 280 894 314 926 q 194 861 246 861 m 290 769 l 290 0 l 96 0 l 96 769 l 290 769 z "},"j":{"ha":386,"x_min":-40,"x_max":313,"o":"m 194 861 q 108 894 142 861 q 74 975 74 926 q 108 1056 74 1024 q 194 1089 142 1089 q 279 1056 246 1089 q 313 975 313 1024 q 279 894 313 926 q 194 861 246 861 m 290 -126 q 227 -310 290 -254 q 46 -367 164 -367 l -40 -367 l -40 -201 l 15 -201 q 78 -184 60 -201 q 96 -128 96 -167 l 96 769 l 290 769 l 290 -126 z "},"k":{"ha":811,"x_min":96,"x_max":804,"o":"m 551 0 l 290 328 l 290 0 l 96 0 l 96 1028 l 290 1028 l 290 443 l 549 769 l 801 769 l 463 383 l 804 0 l 551 0 z "},"l":{"ha":386,"x_min":96,"x_max":290,"o":"m 290 1028 l 290 0 l 96 0 l 96 1028 l 290 1028 z "},"m":{"ha":1456,"x_min":96,"x_max":1367,"o":"m 1051 781 q 1280 694 1193 781 q 1367 451 1367 607 l 1367 0 l 1172 0 l 1172 425 q 1126 563 1172 515 q 1001 611 1081 611 q 876 563 922 611 q 829 425 829 515 l 829 0 l 635 0 l 635 425 q 589 563 635 515 q 464 611 543 611 q 337 563 383 611 q 290 425 290 515 l 290 0 l 96 0 l 96 769 l 290 769 l 290 676 q 387 753 328 725 q 517 781 446 781 q 678 742 607 781 q 788 633 749 704 q 897 740 825 700 q 1051 781 968 781 z "},"n":{"ha":918,"x_min":96,"x_max":829,"o":"m 522 781 q 744 694 660 781 q 829 451 829 607 l 829 0 l 635 0 l 635 425 q 589 566 635 517 q 464 615 543 615 q 337 566 383 615 q 290 425 290 517 l 290 0 l 96 0 l 96 769 l 290 769 l 290 674 q 390 752 329 724 q 522 781 450 781 z "},"o":{"ha":886,"x_min":47,"x_max":839,"o":"m 438 -12 q 238 37 326 -12 q 98 176 149 86 q 47 385 47 267 q 99 593 47 503 q 242 733 151 683 q 443 782 332 782 q 644 733 554 782 q 787 593 735 683 q 839 385 839 503 q 785 176 839 267 q 641 37 732 86 q 438 -12 550 -12 m 438 157 q 537 183 490 157 q 611 260 583 208 q 639 385 639 311 q 581 553 639 494 q 440 613 524 613 q 301 553 357 613 q 244 385 244 494 q 299 216 244 275 q 438 157 354 157 z "},"p":{"ha":942,"x_min":96,"x_max":896,"o":"m 290 658 q 394 747 328 711 q 544 782 460 782 q 723 733 643 782 q 849 595 803 685 q 896 388 896 506 q 849 178 896 269 q 723 38 803 88 q 544 -12 643 -12 q 395 22 460 -12 q 290 110 331 57 l 290 -367 l 96 -367 l 96 769 l 290 769 l 290 658 m 697 388 q 669 508 697 457 q 594 585 640 558 q 493 611 547 611 q 394 584 440 611 q 319 506 347 557 q 290 385 290 454 q 319 264 290 315 q 394 185 347 213 q 493 158 440 158 q 594 186 547 158 q 669 265 640 214 q 697 388 697 317 z "},"q":{"ha":942,"x_min":46,"x_max":847,"o":"m 46 386 q 94 591 46 501 q 224 731 142 681 q 404 781 306 781 q 549 749 486 781 q 651 669 613 718 l 651 769 l 847 769 l 847 -367 l 651 -367 l 651 106 q 547 22 613 56 q 400 -11 482 -11 q 222 40 303 -11 q 93 181 140 90 q 46 386 46 271 m 651 385 q 622 507 651 456 q 547 585 593 558 q 447 611 500 611 q 349 585 396 611 q 274 508 303 558 q 244 386 244 457 q 274 263 244 315 q 349 185 303 211 q 447 158 396 158 q 547 185 500 158 q 622 263 593 211 q 651 385 651 314 z "},"r":{"ha":561,"x_min":96,"x_max":526,"o":"m 290 650 q 388 746 328 711 q 526 781 449 781 l 526 576 l 475 576 q 337 533 383 576 q 290 383 290 490 l 290 0 l 96 0 l 96 769 l 290 769 l 290 650 z "},"s":{"ha":757,"x_min":54,"x_max":693,"o":"m 390 -12 q 221 22 296 -12 q 102 114 146 56 q 54 243 58 172 l 250 243 q 294 169 256 199 q 389 140 332 140 q 476 163 444 140 q 507 219 507 185 q 469 276 507 257 q 347 317 431 294 q 206 360 261 338 q 112 428 151 382 q 72 551 72 474 q 109 668 72 615 q 215 751 146 721 q 376 782 283 782 q 596 713 514 782 q 686 528 678 644 l 500 528 q 462 601 496 574 q 371 628 428 628 q 290 608 318 628 q 261 554 261 589 q 300 495 261 515 q 421 454 339 475 q 558 411 504 433 q 652 342 613 389 q 693 219 692 296 q 656 100 693 153 q 551 17 619 47 q 390 -12 482 -12 z "},"t":{"ha":539,"x_min":35,"x_max":494,"o":"m 322 610 l 322 238 q 341 181 322 199 q 404 164 360 164 l 494 164 l 494 0 l 372 0 q 126 239 126 0 l 126 610 l 35 610 l 35 769 l 126 769 l 126 960 l 322 960 l 322 769 l 494 769 l 494 610 l 322 610 z "},"u":{"ha":918,"x_min":89,"x_max":822,"o":"m 822 769 l 822 0 l 626 0 l 626 97 q 528 19 589 47 q 397 -10 468 -10 q 238 28 307 -10 q 128 141 168 67 q 89 318 89 215 l 89 769 l 283 769 l 283 346 q 329 205 283 254 q 454 156 375 156 q 581 205 535 156 q 626 346 626 254 l 626 769 l 822 769 z "},"v":{"ha":832,"x_min":14,"x_max":818,"o":"m 417 179 l 611 769 l 818 769 l 533 0 l 297 0 l 14 769 l 222 769 l 417 179 z "},"w":{"ha":1172,"x_min":10,"x_max":1163,"o":"m 1163 769 l 938 0 l 728 0 l 588 538 l 447 0 l 236 0 l 10 769 l 207 769 l 343 183 l 490 769 l 696 769 l 840 185 l 976 769 l 1163 769 z "},"x":{"ha":750,"x_min":11,"x_max":740,"o":"m 521 0 l 363 239 l 222 0 l 14 0 l 265 386 l 11 769 l 231 769 l 388 532 l 529 769 l 738 769 l 485 386 l 740 0 l 521 0 z "},"y":{"ha":840,"x_min":7,"x_max":832,"o":"m 832 769 l 356 -364 l 149 -364 l 315 19 l 7 769 l 225 769 l 424 232 l 625 769 l 832 769 z "},"z":{"ha":671,"x_min":53,"x_max":617,"o":"m 274 160 l 617 160 l 617 0 l 53 0 l 53 157 l 389 610 l 54 610 l 54 769 l 613 769 l 613 613 l 274 160 z "},"{":{"ha":706,"x_min":153,"x_max":593,"o":"m 153 581 q 253 617 219 586 q 288 699 288 647 q 275 867 288 757 q 261 1057 261 997 q 326 1226 261 1165 q 497 1286 390 1286 l 593 1286 l 593 1122 l 535 1122 q 449 1040 449 1122 q 460 885 449 1001 q 467 806 461 871 q 472 692 472 742 q 436 569 472 618 q 326 507 400 521 l 326 504 q 436 441 400 489 q 472 318 472 393 q 467 206 472 271 q 460 125 461 142 q 449 -29 449 8 q 469 -92 449 -72 q 535 -111 490 -111 l 593 -111 l 593 -276 l 497 -276 q 326 -216 390 -276 q 261 -47 261 -156 q 275 144 261 14 q 288 311 288 254 q 253 393 288 363 q 153 429 219 424 l 153 581 z "},"|":{"ha":429,"x_min":117,"x_max":313,"o":"m 313 -168 l 117 -168 l 117 1122 l 313 1122 l 313 -168 z "},"}":{"ha":706,"x_min":113,"x_max":553,"o":"m 553 429 q 452 393 486 424 q 418 311 418 363 q 431 144 418 254 q 444 -47 444 14 q 380 -216 444 -156 q 208 -276 315 -276 l 113 -276 l 113 -111 l 171 -111 q 236 -92 215 -111 q 257 -29 257 -72 q 246 125 257 8 q 239 206 244 142 q 233 318 233 271 q 269 441 233 393 q 379 504 306 489 l 379 507 q 269 569 306 521 q 233 692 233 618 q 239 806 233 742 q 246 885 244 871 q 257 1040 257 1001 q 171 1122 257 1122 l 113 1122 l 113 1286 l 208 1286 q 380 1226 315 1286 q 444 1057 444 1165 q 431 867 444 997 q 418 699 418 757 q 452 617 418 647 q 553 581 486 586 l 553 429 z "},"~":{"ha":822,"x_min":44,"x_max":778,"o":"m 44 311 q 132 510 68 446 q 292 574 196 574 q 367 560 333 574 q 440 522 401 547 q 495 493 472 503 q 543 483 518 483 q 603 506 579 483 q 633 572 628 528 l 778 572 q 690 374 754 438 q 529 310 625 310 q 455 323 488 310 q 382 361 422 336 q 326 390 347 381 q 279 400 304 400 q 218 377 243 400 q 186 311 193 354 l 44 311 z "}," ":{"ha":331,"x_min":0,"x_max":0,"o":""},"¡":{"ha":492,"x_min":126,"x_max":365,"o":"m 247 790 q 332 758 299 790 q 365 676 365 725 q 332 595 365 628 q 247 563 299 563 q 160 595 194 563 q 126 676 126 628 q 160 758 126 725 q 247 790 194 790 m 161 465 l 325 465 l 347 -206 l 138 -206 l 161 465 z "},"¢":{"ha":921,"x_min":76,"x_max":783,"o":"m 447 154 q 549 180 510 154 q 603 253 589 206 l 783 253 q 692 78 774 147 q 489 -3 611 8 l 489 -121 l 400 -121 l 400 -3 q 161 110 246 11 q 76 358 76 208 q 161 607 76 508 q 400 719 246 706 l 400 838 l 489 838 l 489 719 q 692 639 611 708 q 783 464 774 569 l 603 464 q 447 563 571 563 q 311 508 361 563 q 261 358 261 454 q 311 208 261 263 q 447 154 361 154 z "},"£":{"ha":908,"x_min":54,"x_max":794,"o":"m 794 151 l 794 -4 l 121 -4 l 90 96 q 182 220 153 157 q 211 378 211 283 q 208 410 211 388 l 54 410 l 54 543 l 169 543 q 142 714 142 638 q 183 877 142 808 q 297 982 224 946 q 467 1018 371 1018 q 702 933 621 1018 q 788 714 783 847 l 608 714 q 574 819 607 781 q 469 857 540 857 q 366 818 404 857 q 328 699 328 779 q 335 627 328 663 q 358 543 343 592 l 619 543 l 619 410 l 393 410 q 396 376 396 388 q 373 258 396 317 q 303 151 350 199 l 794 151 z "},"¤":{"ha":779,"x_min":83,"x_max":696,"o":"m 664 524 q 618 378 664 442 l 696 300 l 617 219 l 529 306 q 389 275 465 275 q 250 306 311 275 l 164 219 l 83 300 l 163 379 q 119 524 119 439 q 164 671 119 608 l 83 751 l 164 832 l 253 743 q 390 772 311 772 q 528 743 469 772 l 617 832 l 696 751 l 618 672 q 664 524 664 611 m 389 392 q 472 426 438 392 q 506 524 506 461 q 472 622 506 588 q 390 657 439 657 q 308 622 342 657 q 275 524 275 588 q 308 426 275 460 q 389 392 340 392 z "},"¥":{"ha":883,"x_min":15,"x_max":867,"o":"m 658 568 l 817 568 l 817 433 l 588 431 l 539 338 l 539 325 l 817 325 l 817 190 l 539 190 l 539 0 l 344 0 l 344 190 l 67 190 l 67 325 l 344 325 l 344 338 l 296 432 l 67 433 l 67 568 l 225 568 l 15 969 l 235 969 l 442 517 l 647 969 l 867 969 l 658 568 z "},"¦":{"ha":486,"x_min":146,"x_max":340,"o":"m 146 1122 l 340 1122 l 340 568 l 146 568 l 146 1122 m 340 -168 l 146 -168 l 146 386 l 340 386 l 340 -168 z "},"§":{"ha":808,"x_min":50,"x_max":758,"o":"m 600 124 q 711 -64 711 49 q 674 -185 711 -131 q 567 -271 638 -239 q 403 -303 497 -303 q 186 -237 268 -303 q 101 -58 104 -171 l 296 -58 q 404 -167 304 -167 q 486 -144 457 -167 q 515 -78 515 -121 q 497 -24 515 -47 q 433 22 478 -1 q 300 79 388 44 q 112 190 174 129 q 50 339 50 250 q 89 467 50 411 q 208 554 128 522 q 97 742 97 629 q 134 863 97 808 q 241 949 171 917 q 406 981 311 981 q 622 915 540 981 q 707 736 704 849 l 513 736 q 483 817 510 789 q 404 844 456 844 q 322 822 351 844 q 293 756 293 799 q 312 702 293 725 q 376 656 331 679 q 508 599 421 633 q 697 488 635 549 q 758 339 758 428 q 600 124 758 193 m 254 339 q 296 248 254 285 q 406 211 338 211 q 515 248 474 211 q 556 339 556 285 q 514 430 556 393 q 404 467 472 467 q 295 430 336 467 q 254 339 254 393 z "},"¨":{"ha":469,"x_min":14,"x_max":456,"o":"m 106 861 q 40 888 67 861 q 14 953 14 914 q 40 1019 14 992 q 106 1046 67 1046 q 172 1019 144 1046 q 199 953 199 992 q 172 888 199 914 q 106 861 144 861 m 363 861 q 297 888 324 861 q 271 953 271 914 q 297 1019 271 992 q 363 1046 324 1046 q 428 1019 401 1046 q 456 953 456 992 q 428 888 456 914 q 363 861 401 861 z "},"©":{"ha":1090,"x_min":58,"x_max":1032,"o":"m 546 983 q 798 920 688 983 q 970 744 908 857 q 1032 486 1032 631 q 970 228 1032 342 q 798 52 908 115 q 546 -11 688 -11 q 292 52 403 -11 q 120 228 182 115 q 58 486 58 342 q 120 744 58 631 q 292 920 182 857 q 546 983 403 983 m 546 913 q 328 860 421 913 q 185 712 235 808 q 135 486 135 615 q 185 262 135 358 q 328 112 235 165 q 546 58 421 58 q 763 112 669 58 q 906 262 856 165 q 956 486 956 358 q 906 712 956 615 q 763 860 856 808 q 546 913 671 913 m 544 803 q 388 764 457 803 q 278 653 318 725 q 239 488 239 582 q 278 321 239 393 q 388 210 318 249 q 544 171 457 171 q 729 230 651 171 q 831 386 807 289 l 660 386 q 616 326 644 347 q 540 306 588 306 q 440 352 476 306 q 403 488 403 399 q 440 622 403 576 q 540 668 476 668 q 616 647 585 668 q 660 588 647 626 l 831 588 q 730 745 807 688 q 544 803 653 803 z "},"ª":{"ha":642,"x_min":39,"x_max":592,"o":"m 39 736 q 70 867 39 810 q 154 955 101 924 q 271 986 207 986 q 442 914 385 986 l 442 978 l 592 978 l 592 490 l 442 490 l 442 553 q 374 502 417 521 q 275 483 332 483 q 156 515 210 483 q 70 605 101 547 q 39 736 39 663 m 193 735 q 230 636 193 672 q 318 600 267 600 q 406 636 369 600 q 442 735 442 672 q 406 833 442 797 q 318 869 369 869 q 230 833 267 869 q 193 735 193 797 z "},"«":{"ha":724,"x_min":63,"x_max":657,"o":"m 185 167 l 63 410 l 185 653 l 369 653 l 242 410 l 369 167 l 185 167 m 474 167 l 350 410 l 474 653 l 657 653 l 529 410 l 657 167 l 474 167 z "},"¬":{"ha":946,"x_min":57,"x_max":876,"o":"m 876 608 l 876 271 l 682 271 l 682 458 l 57 458 l 57 608 l 876 608 z "},"­":{"ha":810,"x_min":99,"x_max":688,"o":"m 688 578 l 688 414 l 99 414 l 99 578 l 688 578 z "},"®":{"ha":717,"x_min":63,"x_max":653,"o":"m 358 985 q 510 947 443 985 q 615 842 578 910 q 653 689 653 775 q 615 538 653 604 q 510 433 578 471 q 358 394 443 394 q 206 433 274 394 q 101 538 139 471 q 63 689 63 604 q 101 842 63 775 q 206 947 139 910 q 358 985 274 985 m 358 465 q 519 527 458 465 q 579 689 579 589 q 519 852 579 790 q 358 914 458 914 q 199 852 258 914 q 139 689 139 790 q 199 526 139 588 q 358 465 258 465 m 489 744 q 474 692 489 714 q 433 658 460 669 l 506 544 l 397 544 l 338 649 l 329 649 l 329 544 l 236 544 l 236 842 l 382 842 q 460 815 431 842 q 489 744 489 788 m 328 718 l 372 718 q 389 724 382 718 q 396 740 396 729 q 372 761 396 761 l 328 761 l 328 718 z "},"¯":{"ha":558,"x_min":14,"x_max":544,"o":"m 544 1017 l 544 878 l 14 878 l 14 1017 l 544 1017 z "},"°":{"ha":617,"x_min":38,"x_max":579,"o":"m 38 732 q 113 913 38 846 q 310 979 189 979 q 504 912 429 979 q 579 732 579 844 q 503 550 579 618 q 307 482 428 482 q 113 550 188 482 q 38 732 38 618 m 426 731 q 392 835 426 799 q 307 872 357 872 q 224 835 258 872 q 189 731 189 799 q 223 628 189 664 q 307 592 257 592 q 391 628 356 592 q 426 731 426 664 z "},"±":{"ha":939,"x_min":115,"x_max":824,"o":"m 563 507 l 563 335 l 824 335 l 824 165 l 115 165 l 115 335 l 378 335 l 378 507 l 115 507 l 115 676 l 378 676 l 378 865 l 563 865 l 563 676 l 824 676 l 824 507 l 563 507 z "},"²":{"ha":500,"x_min":42,"x_max":449,"o":"m 207 607 l 446 607 l 446 489 l 47 489 l 47 600 l 206 707 q 270 765 249 736 q 292 824 292 793 q 278 864 292 849 q 242 879 264 879 q 192 828 199 879 l 42 828 q 101 944 46 900 q 253 989 157 989 q 358 967 314 989 q 426 909 403 944 q 449 833 449 874 q 415 745 449 783 q 303 661 382 707 l 207 607 z "},"³":{"ha":496,"x_min":24,"x_max":456,"o":"m 31 835 q 90 946 33 903 q 246 989 146 989 q 391 947 333 989 q 449 843 449 906 q 425 774 449 801 q 360 738 401 747 l 360 733 q 430 692 404 721 q 456 621 456 663 q 396 521 456 560 q 243 482 336 482 q 84 525 140 482 q 24 643 28 568 l 174 643 q 236 590 182 590 q 279 605 263 590 q 296 644 296 619 q 278 684 296 669 q 229 699 260 699 l 181 699 l 181 778 l 224 778 q 289 831 289 778 q 274 867 289 854 q 232 881 258 881 q 172 835 181 881 l 31 835 z "},"´":{"ha":347,"x_min":14,"x_max":333,"o":"m 333 969 l 14 824 l 14 963 l 333 1128 l 333 969 z "},"µ":{"ha":942,"x_min":104,"x_max":838,"o":"m 838 769 l 838 0 l 642 0 l 642 118 q 544 24 606 57 q 401 -10 482 -10 q 297 17 340 -10 l 297 -367 l 104 -367 l 104 769 l 297 769 l 297 346 q 344 207 297 256 q 469 158 390 158 q 595 207 549 158 q 642 346 642 256 l 642 769 l 838 769 z "},"¶":{"ha":925,"x_min":44,"x_max":821,"o":"m 821 0 l 656 0 l 656 819 l 565 819 l 565 0 l 399 0 l 399 386 l 374 386 q 127 469 210 386 q 44 678 44 551 q 80 824 44 758 q 189 930 115 890 q 374 969 263 969 l 821 969 l 821 0 z "},"·":{"ha":375,"x_min":71,"x_max":310,"o":"m 192 339 q 105 372 139 339 q 71 453 71 404 q 105 534 71 501 q 192 567 139 567 q 276 534 243 567 q 310 453 310 501 q 276 372 310 404 q 192 339 243 339 z "},"¸":{"ha":410,"x_min":14,"x_max":396,"o":"m 215 -60 q 344 -99 292 -60 q 396 -211 396 -137 q 342 -326 396 -286 q 211 -367 289 -367 l 14 -367 l 14 -253 l 179 -253 q 230 -243 213 -253 q 247 -208 247 -233 q 230 -174 247 -183 q 179 -165 213 -165 l 93 -165 l 93 10 l 215 10 l 215 -60 z "},"¹":{"ha":317,"x_min":28,"x_max":256,"o":"m 28 864 l 28 978 l 256 978 l 256 489 l 107 489 l 107 864 l 28 864 z "},"º":{"ha":625,"x_min":39,"x_max":586,"o":"m 39 733 q 74 865 39 808 q 172 953 110 922 q 313 985 233 985 q 454 953 392 985 q 551 865 517 922 q 586 733 586 808 q 551 603 586 660 q 453 514 515 546 q 311 482 390 482 q 170 514 232 482 q 74 603 108 546 q 39 733 39 660 m 433 732 q 398 833 433 797 q 311 869 363 869 q 227 833 261 869 q 193 732 193 797 q 227 634 193 669 q 311 599 261 599 q 397 634 361 599 q 433 732 433 669 z "},"»":{"ha":724,"x_min":69,"x_max":664,"o":"m 196 410 l 69 653 l 253 653 l 376 410 l 253 167 l 69 167 l 196 410 m 485 410 l 357 653 l 540 653 l 664 410 l 540 167 l 357 167 l 485 410 z "},"¼":{"ha":1014,"x_min":51,"x_max":965,"o":"m 51 864 l 51 978 l 279 978 l 279 489 l 131 489 l 131 864 l 51 864 m 822 971 l 290 0 l 104 0 l 638 971 l 822 971 m 965 90 l 907 90 l 907 0 l 757 0 l 757 90 l 493 90 l 493 171 l 700 490 l 907 490 l 907 179 l 965 179 l 965 90 m 763 383 l 639 181 l 763 181 l 763 383 z "},"½":{"ha":1051,"x_min":51,"x_max":979,"o":"m 131 864 l 51 864 l 51 978 l 279 978 l 279 489 l 131 489 l 131 864 m 815 972 l 290 0 l 104 0 l 628 972 l 815 972 m 738 117 l 976 117 l 976 -1 l 578 -1 l 578 110 l 736 217 q 801 274 779 246 q 822 333 822 303 q 808 374 822 358 q 772 389 794 389 q 722 338 729 389 l 572 338 q 632 454 576 410 q 783 499 688 499 q 889 476 844 499 q 956 419 933 454 q 979 343 979 383 q 946 255 979 293 q 833 171 913 217 l 738 117 z "},"¾":{"ha":1126,"x_min":57,"x_max":1094,"o":"m 64 835 q 123 946 67 903 q 279 989 179 989 q 424 947 367 989 q 482 843 482 906 q 458 774 482 801 q 393 738 435 747 l 393 733 q 463 692 438 721 q 489 621 489 663 q 429 521 489 560 q 276 482 369 482 q 117 525 174 482 q 57 643 61 568 l 207 643 q 269 590 215 590 q 313 605 296 590 q 329 644 329 619 q 311 684 329 669 q 263 699 293 699 l 214 699 l 214 778 l 257 778 q 322 831 322 778 q 307 867 322 854 q 265 881 292 881 q 206 835 214 881 l 64 835 m 968 972 l 421 0 l 235 0 l 782 972 l 968 972 m 1094 90 l 1035 90 l 1035 0 l 886 0 l 886 90 l 622 90 l 622 171 l 821 490 l 1035 490 l 1035 179 l 1094 179 l 1094 90 m 892 390 l 767 179 l 892 179 l 892 390 z "},"¿":{"ha":747,"x_min":60,"x_max":700,"o":"m 471 786 q 558 753 524 786 q 592 672 592 721 q 558 591 592 624 q 471 558 524 558 q 386 591 419 558 q 353 672 353 624 q 386 753 353 721 q 471 786 419 786 m 381 -226 q 148 -148 236 -226 q 60 68 60 -69 q 147 276 60 204 q 379 347 235 347 l 385 454 l 556 454 l 563 218 l 500 218 q 313 186 378 218 q 249 67 247 154 q 284 -29 249 6 q 381 -64 319 -64 q 480 -29 444 -64 q 515 67 515 6 l 699 67 q 663 -85 700 -18 q 552 -189 625 -151 q 381 -226 479 -226 z "},"À":{"ha":994,"x_min":36,"x_max":960,"o":"m 690 185 l 304 185 l 240 0 l 36 0 l 385 971 l 611 971 l 960 0 l 754 0 l 690 185 m 638 340 l 497 746 l 357 340 l 638 340 m 649 1164 l 649 1025 l 329 1171 l 329 1329 l 649 1164 z "},"Á":{"ha":994,"x_min":36,"x_max":960,"o":"m 690 185 l 304 185 l 240 0 l 36 0 l 385 971 l 611 971 l 960 0 l 754 0 l 690 185 m 638 340 l 497 746 l 357 340 l 638 340 m 649 1171 l 329 1025 l 329 1164 l 649 1329 l 649 1171 z "},"Â":{"ha":994,"x_min":36,"x_max":960,"o":"m 690 185 l 304 185 l 240 0 l 36 0 l 385 971 l 611 971 l 960 0 l 754 0 l 690 185 m 638 340 l 497 746 l 357 340 l 638 340 m 499 1142 l 292 1025 l 292 1167 l 499 1279 l 704 1167 l 704 1025 l 499 1142 z "},"Ã":{"ha":994,"x_min":36,"x_max":960,"o":"m 690 185 l 304 185 l 240 0 l 36 0 l 385 971 l 611 971 l 960 0 l 754 0 l 690 185 m 638 340 l 497 746 l 357 340 l 638 340 m 247 1044 q 305 1181 260 1136 q 419 1226 350 1226 q 471 1217 449 1226 q 521 1192 493 1208 q 590 1165 563 1165 q 650 1225 642 1165 l 754 1225 q 697 1088 742 1133 q 582 1043 651 1043 q 531 1052 553 1043 q 481 1078 508 1061 q 411 1106 440 1106 q 350 1044 360 1106 l 247 1044 z "},"Ä":{"ha":994,"x_min":36,"x_max":960,"o":"m 690 185 l 304 185 l 240 0 l 36 0 l 385 971 l 611 971 l 960 0 l 754 0 l 690 185 m 638 340 l 497 746 l 357 340 l 638 340 m 368 1063 q 303 1089 329 1063 q 276 1154 276 1115 q 303 1220 276 1193 q 368 1247 329 1247 q 434 1220 407 1247 q 461 1154 461 1193 q 434 1089 461 1115 q 368 1063 407 1063 m 625 1063 q 560 1089 586 1063 q 533 1154 533 1115 q 560 1220 533 1193 q 625 1247 586 1247 q 691 1220 664 1247 q 718 1154 718 1193 q 691 1089 718 1115 q 625 1063 664 1063 z "},"Å":{"ha":994,"x_min":36,"x_max":960,"o":"m 690 185 l 304 185 l 240 0 l 36 0 l 385 971 l 611 971 l 960 0 l 754 0 l 690 185 m 638 340 l 497 746 l 357 340 l 638 340 m 661 1197 q 615 1081 661 1125 q 499 1038 568 1038 q 383 1081 431 1038 q 336 1197 336 1125 q 383 1313 336 1269 q 499 1357 431 1357 q 615 1313 568 1357 q 661 1197 661 1269 m 565 1197 q 546 1248 565 1229 q 499 1267 526 1267 q 451 1248 471 1267 q 432 1197 432 1229 q 451 1148 432 1168 q 499 1128 471 1128 q 546 1148 526 1128 q 565 1197 565 1168 z "},"Æ":{"ha":1301,"x_min":13,"x_max":1221,"o":"m 857 818 l 857 568 l 1179 568 l 1179 418 l 857 418 l 857 154 l 1221 154 l 1221 0 l 661 0 l 661 182 l 321 182 l 225 0 l 13 0 l 529 971 l 1221 971 l 1221 818 l 857 818 m 661 332 l 661 829 l 400 332 l 661 332 z "},"Ç":{"ha":1067,"x_min":49,"x_max":996,"o":"m 539 165 q 678 201 618 165 q 772 306 739 236 l 996 306 q 848 91 953 172 q 601 -6 743 10 l 601 -62 q 730 -101 678 -62 q 782 -214 782 -140 q 728 -329 782 -289 q 597 -369 675 -369 l 400 -369 l 400 -256 l 565 -256 q 616 -246 599 -256 q 633 -211 633 -236 q 616 -177 633 -186 q 565 -168 599 -168 l 479 -168 l 479 -6 q 258 74 356 8 q 104 247 160 140 q 49 486 49 354 q 113 742 49 629 q 290 919 178 856 q 540 982 401 982 q 825 899 703 982 q 996 668 947 815 l 772 668 q 678 772 739 738 q 539 807 618 807 q 388 767 454 807 q 285 656 322 728 q 249 486 249 583 q 285 317 249 390 q 388 205 322 244 q 539 165 454 165 z "},"È":{"ha":739,"x_min":96,"x_max":658,"o":"m 290 813 l 290 569 l 617 569 l 617 415 l 290 415 l 290 158 l 658 158 l 658 0 l 96 0 l 96 971 l 658 971 l 658 813 l 290 813 m 522 1164 l 522 1025 l 203 1171 l 203 1329 l 522 1164 z "},"É":{"ha":739,"x_min":96,"x_max":658,"o":"m 290 813 l 290 569 l 617 569 l 617 415 l 290 415 l 290 158 l 658 158 l 658 0 l 96 0 l 96 971 l 658 971 l 658 813 l 290 813 m 522 1171 l 203 1025 l 203 1164 l 522 1329 l 522 1171 z "},"Ê":{"ha":739,"x_min":96,"x_max":658,"o":"m 290 813 l 290 569 l 617 569 l 617 415 l 290 415 l 290 158 l 658 158 l 658 0 l 96 0 l 96 971 l 658 971 l 658 813 l 290 813 m 371 1142 l 164 1025 l 164 1167 l 371 1279 l 576 1167 l 576 1025 l 371 1142 z "},"Ë":{"ha":739,"x_min":96,"x_max":658,"o":"m 290 813 l 290 569 l 617 569 l 617 415 l 290 415 l 290 158 l 658 158 l 658 0 l 96 0 l 96 971 l 658 971 l 658 813 l 290 813 m 242 1063 q 176 1089 203 1063 q 150 1154 150 1115 q 176 1220 150 1193 q 242 1247 203 1247 q 308 1220 281 1247 q 335 1154 335 1193 q 308 1089 335 1115 q 242 1063 281 1063 m 499 1063 q 433 1089 460 1063 q 407 1154 407 1115 q 433 1220 407 1193 q 499 1247 460 1247 q 565 1220 538 1247 q 592 1154 592 1193 q 565 1089 592 1115 q 499 1063 538 1063 z "},"Ì":{"ha":386,"x_min":25,"x_max":344,"o":"m 290 969 l 290 0 l 96 0 l 96 969 l 290 969 m 344 1164 l 344 1025 l 25 1171 l 25 1329 l 344 1164 z "},"Í":{"ha":386,"x_min":25,"x_max":344,"o":"m 290 969 l 290 0 l 96 0 l 96 969 l 290 969 m 344 1171 l 25 1025 l 25 1164 l 344 1329 l 344 1171 z "},"Î":{"ha":386,"x_min":-12,"x_max":400,"o":"m 290 969 l 290 0 l 96 0 l 96 969 l 290 969 m 194 1142 l -12 1025 l -12 1167 l 194 1279 l 400 1167 l 400 1025 l 194 1142 z "},"Ï":{"ha":386,"x_min":-28,"x_max":414,"o":"m 290 969 l 290 0 l 96 0 l 96 969 l 290 969 m 64 1063 q -1 1089 25 1063 q -28 1154 -28 1115 q -1 1220 -28 1193 q 64 1247 25 1247 q 130 1220 103 1247 q 157 1154 157 1193 q 130 1089 157 1115 q 64 1063 103 1063 m 321 1063 q 256 1089 282 1063 q 229 1154 229 1115 q 256 1220 229 1193 q 321 1247 282 1247 q 387 1220 360 1247 q 414 1154 414 1193 q 387 1089 414 1115 q 321 1063 360 1063 z "},"Ð":{"ha":1008,"x_min":10,"x_max":958,"o":"m 447 969 q 716 910 600 969 q 895 740 832 850 q 958 483 958 629 q 895 228 958 338 q 716 60 832 119 q 447 0 600 0 l 107 0 l 107 399 l 10 399 l 10 568 l 107 568 l 107 969 l 447 969 m 440 158 q 675 244 592 158 q 758 483 758 331 q 675 722 758 636 q 440 807 592 807 l 303 807 l 303 568 l 535 568 l 535 399 l 303 399 l 303 158 l 440 158 z "},"Ñ":{"ha":1021,"x_min":96,"x_max":925,"o":"m 925 0 l 731 0 l 290 665 l 290 0 l 96 0 l 96 971 l 290 971 l 731 304 l 731 971 l 925 971 l 925 0 m 261 1044 q 319 1181 274 1136 q 433 1226 364 1226 q 485 1217 463 1226 q 535 1192 507 1208 q 604 1165 576 1165 q 664 1225 656 1165 l 768 1225 q 710 1088 756 1133 q 596 1043 665 1043 q 544 1052 567 1043 q 494 1078 522 1061 q 425 1106 454 1106 q 364 1044 374 1106 l 261 1044 z "},"Ò":{"ha":1090,"x_min":49,"x_max":1042,"o":"m 546 -10 q 296 54 410 -10 q 115 231 182 118 q 49 488 49 344 q 115 742 49 629 q 296 919 182 856 q 546 983 410 983 q 797 919 683 983 q 976 742 910 856 q 1042 488 1042 629 q 976 231 1042 344 q 796 54 910 118 q 546 -10 682 -10 m 546 164 q 700 203 633 164 q 804 317 767 243 q 842 488 842 390 q 804 658 842 585 q 700 769 767 731 q 546 808 633 808 q 391 769 458 808 q 286 658 324 731 q 249 488 249 585 q 286 317 249 390 q 391 203 324 243 q 546 164 458 164 m 697 1164 l 697 1025 l 378 1171 l 378 1329 l 697 1164 z "},"Ó":{"ha":1090,"x_min":49,"x_max":1042,"o":"m 546 -10 q 296 54 410 -10 q 115 231 182 118 q 49 488 49 344 q 115 742 49 629 q 296 919 182 856 q 546 983 410 983 q 797 919 683 983 q 976 742 910 856 q 1042 488 1042 629 q 976 231 1042 344 q 796 54 910 118 q 546 -10 682 -10 m 546 164 q 700 203 633 164 q 804 317 767 243 q 842 488 842 390 q 804 658 842 585 q 700 769 767 731 q 546 808 633 808 q 391 769 458 808 q 286 658 324 731 q 249 488 249 585 q 286 317 249 390 q 391 203 324 243 q 546 164 458 164 m 697 1171 l 378 1025 l 378 1164 l 697 1329 l 697 1171 z "},"Ô":{"ha":1090,"x_min":49,"x_max":1042,"o":"m 546 -10 q 296 54 410 -10 q 115 231 182 118 q 49 488 49 344 q 115 742 49 629 q 296 919 182 856 q 546 983 410 983 q 797 919 683 983 q 976 742 910 856 q 1042 488 1042 629 q 976 231 1042 344 q 796 54 910 118 q 546 -10 682 -10 m 546 164 q 700 203 633 164 q 804 317 767 243 q 842 488 842 390 q 804 658 842 585 q 700 769 767 731 q 546 808 633 808 q 391 769 458 808 q 286 658 324 731 q 249 488 249 585 q 286 317 249 390 q 391 203 324 243 q 546 164 458 164 m 546 1142 l 339 1025 l 339 1167 l 546 1279 l 751 1167 l 751 1025 l 546 1142 z "},"Õ":{"ha":1090,"x_min":49,"x_max":1042,"o":"m 546 -10 q 296 54 410 -10 q 115 231 182 118 q 49 488 49 344 q 115 742 49 629 q 296 919 182 856 q 546 983 410 983 q 797 919 683 983 q 976 742 910 856 q 1042 488 1042 629 q 976 231 1042 344 q 796 54 910 118 q 546 -10 682 -10 m 546 164 q 700 203 633 164 q 804 317 767 243 q 842 488 842 390 q 804 658 842 585 q 700 769 767 731 q 546 808 633 808 q 391 769 458 808 q 286 658 324 731 q 249 488 249 585 q 286 317 249 390 q 391 203 324 243 q 546 164 458 164 m 296 1044 q 353 1181 308 1136 q 468 1226 399 1226 q 519 1217 497 1226 q 569 1192 542 1208 q 639 1165 611 1165 q 699 1225 690 1165 l 803 1225 q 745 1088 790 1133 q 631 1043 700 1043 q 579 1052 601 1043 q 529 1078 557 1061 q 460 1106 489 1106 q 399 1044 408 1106 l 296 1044 z "},"Ö":{"ha":1090,"x_min":49,"x_max":1042,"o":"m 546 -10 q 296 54 410 -10 q 115 231 182 118 q 49 488 49 344 q 115 742 49 629 q 296 919 182 856 q 546 983 410 983 q 797 919 683 983 q 976 742 910 856 q 1042 488 1042 629 q 976 231 1042 344 q 796 54 910 118 q 546 -10 682 -10 m 546 164 q 700 203 633 164 q 804 317 767 243 q 842 488 842 390 q 804 658 842 585 q 700 769 767 731 q 546 808 633 808 q 391 769 458 808 q 286 658 324 731 q 249 488 249 585 q 286 317 249 390 q 391 203 324 243 q 546 164 458 164 m 417 1063 q 351 1089 378 1063 q 325 1154 325 1115 q 351 1220 325 1193 q 417 1247 378 1247 q 483 1220 456 1247 q 510 1154 510 1193 q 483 1089 510 1115 q 417 1063 456 1063 m 674 1063 q 608 1089 635 1063 q 582 1154 582 1115 q 608 1220 582 1193 q 674 1247 635 1247 q 740 1220 713 1247 q 767 1154 767 1193 q 740 1089 767 1115 q 674 1063 713 1063 z "},"×":{"ha":931,"x_min":136,"x_max":794,"o":"m 667 171 l 464 374 l 263 172 l 136 299 l 338 501 l 142 697 l 268 824 l 464 628 l 660 824 l 788 697 l 592 501 l 794 297 l 667 171 z "},"Ø":{"ha":1090,"x_min":33,"x_max":1057,"o":"m 919 821 q 1010 671 978 756 q 1042 488 1042 586 q 976 231 1042 344 q 796 54 910 118 q 546 -10 682 -10 q 385 15 463 -10 q 246 86 308 40 l 168 0 l 33 0 l 172 153 q 81 305 114 219 q 49 488 49 390 q 115 742 49 629 q 296 919 182 856 q 546 983 410 983 q 706 959 629 983 q 846 889 782 935 l 922 972 l 1057 972 l 919 821 m 249 488 q 300 292 249 374 l 722 754 q 546 808 649 808 q 391 769 458 808 q 286 658 324 731 q 249 488 249 585 m 842 488 q 790 681 842 601 l 368 218 q 546 164 444 164 q 700 203 633 164 q 804 317 767 243 q 842 488 842 390 z "},"Ù":{"ha":968,"x_min":93,"x_max":876,"o":"m 288 969 l 288 369 q 339 219 288 271 q 483 167 390 167 q 629 219 578 167 q 681 369 681 271 l 681 969 l 876 969 l 876 371 q 823 162 876 247 q 680 33 769 76 q 481 -10 590 -10 q 284 33 372 -10 q 144 162 196 76 q 93 371 93 247 l 93 969 l 288 969 m 635 1164 l 635 1025 l 315 1171 l 315 1329 l 635 1164 z "},"Ú":{"ha":968,"x_min":93,"x_max":876,"o":"m 288 969 l 288 369 q 339 219 288 271 q 483 167 390 167 q 629 219 578 167 q 681 369 681 271 l 681 969 l 876 969 l 876 371 q 823 162 876 247 q 680 33 769 76 q 481 -10 590 -10 q 284 33 372 -10 q 144 162 196 76 q 93 371 93 247 l 93 969 l 288 969 m 635 1171 l 315 1025 l 315 1164 l 635 1329 l 635 1171 z "},"Û":{"ha":968,"x_min":93,"x_max":876,"o":"m 288 969 l 288 369 q 339 219 288 271 q 483 167 390 167 q 629 219 578 167 q 681 369 681 271 l 681 969 l 876 969 l 876 371 q 823 162 876 247 q 680 33 769 76 q 481 -10 590 -10 q 284 33 372 -10 q 144 162 196 76 q 93 371 93 247 l 93 969 l 288 969 m 485 1142 l 278 1025 l 278 1167 l 485 1279 l 690 1167 l 690 1025 l 485 1142 z "},"Ü":{"ha":968,"x_min":93,"x_max":876,"o":"m 288 969 l 288 369 q 339 219 288 271 q 483 167 390 167 q 629 219 578 167 q 681 369 681 271 l 681 969 l 876 969 l 876 371 q 823 162 876 247 q 680 33 769 76 q 481 -10 590 -10 q 284 33 372 -10 q 144 162 196 76 q 93 371 93 247 l 93 969 l 288 969 m 356 1063 q 290 1089 317 1063 q 264 1154 264 1115 q 290 1220 264 1193 q 356 1247 317 1247 q 422 1220 394 1247 q 449 1154 449 1193 q 422 1089 449 1115 q 356 1063 394 1063 m 613 1063 q 547 1089 574 1063 q 521 1154 521 1115 q 547 1220 521 1193 q 613 1247 574 1247 q 678 1220 651 1247 q 706 1154 706 1193 q 678 1089 706 1115 q 613 1063 651 1063 z "},"Ý":{"ha":883,"x_min":15,"x_max":867,"o":"m 867 969 l 539 338 l 539 0 l 344 0 l 344 338 l 15 969 l 235 969 l 443 526 l 650 969 l 867 969 m 593 1171 l 274 1025 l 274 1164 l 593 1329 l 593 1171 z "},"Þ":{"ha":844,"x_min":96,"x_max":803,"o":"m 803 486 q 766 342 803 408 q 651 233 729 275 q 453 192 572 192 l 290 192 l 290 0 l 96 0 l 96 971 l 289 971 l 289 782 l 453 782 q 644 743 565 782 q 763 638 724 704 q 803 486 803 571 m 444 340 q 563 379 524 340 q 603 486 603 418 q 563 593 603 554 q 444 632 524 632 l 290 632 l 290 340 l 444 340 z "},"ß":{"ha":1010,"x_min":72,"x_max":939,"o":"m 72 763 q 114 922 72 851 q 238 1031 156 992 q 439 1071 321 1071 q 618 1037 542 1071 q 734 947 694 1003 q 774 825 774 890 q 743 713 774 757 q 658 618 713 668 q 616 576 629 592 q 603 544 603 560 q 630 503 603 521 q 739 456 657 485 q 892 363 844 418 q 939 224 939 308 q 860 51 939 117 q 649 -14 782 -14 q 435 54 517 -14 q 340 246 354 122 l 528 246 q 563 163 532 193 q 646 133 593 133 q 720 153 694 133 q 746 211 746 172 q 720 274 746 250 q 625 322 694 299 q 458 406 508 363 q 407 514 407 449 q 431 596 407 560 q 501 676 456 632 q 560 743 542 717 q 579 801 579 769 q 540 880 579 851 q 432 908 500 908 q 306 866 346 908 q 267 743 267 824 l 267 0 l 72 0 l 72 763 z "},"à":{"ha":942,"x_min":46,"x_max":847,"o":"m 46 388 q 92 594 46 504 q 219 733 139 685 q 397 782 299 782 q 548 747 483 782 q 651 660 613 713 l 651 769 l 847 769 l 847 0 l 651 0 l 651 113 q 548 23 614 58 q 396 -12 482 -12 q 219 38 299 -12 q 92 178 139 88 q 46 388 46 269 m 651 385 q 624 506 651 456 q 549 584 596 557 q 447 611 501 611 q 347 585 393 611 q 273 508 301 558 q 244 388 244 457 q 273 266 244 318 q 348 186 301 214 q 447 158 394 158 q 549 185 501 158 q 624 263 596 213 q 651 385 651 314 m 625 963 l 625 824 l 306 969 l 306 1128 l 625 963 z "},"á":{"ha":942,"x_min":46,"x_max":847,"o":"m 46 388 q 92 594 46 504 q 219 733 139 685 q 397 782 299 782 q 548 747 483 782 q 651 660 613 713 l 651 769 l 847 769 l 847 0 l 651 0 l 651 113 q 548 23 614 58 q 396 -12 482 -12 q 219 38 299 -12 q 92 178 139 88 q 46 388 46 269 m 651 385 q 624 506 651 456 q 549 584 596 557 q 447 611 501 611 q 347 585 393 611 q 273 508 301 558 q 244 388 244 457 q 273 266 244 318 q 348 186 301 214 q 447 158 394 158 q 549 185 501 158 q 624 263 596 213 q 651 385 651 314 m 625 969 l 306 824 l 306 963 l 625 1128 l 625 969 z "},"â":{"ha":942,"x_min":46,"x_max":847,"o":"m 46 388 q 92 594 46 504 q 219 733 139 685 q 397 782 299 782 q 548 747 483 782 q 651 660 613 713 l 651 769 l 847 769 l 847 0 l 651 0 l 651 113 q 548 23 614 58 q 396 -12 482 -12 q 219 38 299 -12 q 92 178 139 88 q 46 388 46 269 m 651 385 q 624 506 651 456 q 549 584 596 557 q 447 611 501 611 q 347 585 393 611 q 273 508 301 558 q 244 388 244 457 q 273 266 244 318 q 348 186 301 214 q 447 158 394 158 q 549 185 501 158 q 624 263 596 213 q 651 385 651 314 m 474 940 l 267 824 l 267 965 l 474 1078 l 679 965 l 679 824 l 474 940 z "},"ã":{"ha":942,"x_min":46,"x_max":847,"o":"m 46 388 q 92 594 46 504 q 219 733 139 685 q 397 782 299 782 q 548 747 483 782 q 651 660 613 713 l 651 769 l 847 769 l 847 0 l 651 0 l 651 113 q 548 23 614 58 q 396 -12 482 -12 q 219 38 299 -12 q 92 178 139 88 q 46 388 46 269 m 651 385 q 624 506 651 456 q 549 584 596 557 q 447 611 501 611 q 347 585 393 611 q 273 508 301 558 q 244 388 244 457 q 273 266 244 318 q 348 186 301 214 q 447 158 394 158 q 549 185 501 158 q 624 263 596 213 q 651 385 651 314 m 224 843 q 281 980 236 935 q 396 1025 326 1025 q 447 1016 425 1025 q 497 990 469 1007 q 567 964 539 964 q 626 1024 618 964 l 731 1024 q 673 887 718 932 q 558 842 628 842 q 507 851 529 842 q 457 876 485 860 q 388 904 417 904 q 326 843 336 904 l 224 843 z "},"ä":{"ha":942,"x_min":46,"x_max":847,"o":"m 46 388 q 92 594 46 504 q 219 733 139 685 q 397 782 299 782 q 548 747 483 782 q 651 660 613 713 l 651 769 l 847 769 l 847 0 l 651 0 l 651 113 q 548 23 614 58 q 396 -12 482 -12 q 219 38 299 -12 q 92 178 139 88 q 46 388 46 269 m 651 385 q 624 506 651 456 q 549 584 596 557 q 447 611 501 611 q 347 585 393 611 q 273 508 301 558 q 244 388 244 457 q 273 266 244 318 q 348 186 301 214 q 447 158 394 158 q 549 185 501 158 q 624 263 596 213 q 651 385 651 314 m 344 861 q 279 888 306 861 q 253 953 253 914 q 279 1019 253 992 q 344 1046 306 1046 q 410 1019 383 1046 q 438 953 438 992 q 410 888 438 914 q 344 861 383 861 m 601 861 q 536 888 563 861 q 510 953 510 914 q 536 1019 510 992 q 601 1046 563 1046 q 667 1019 640 1046 q 694 953 694 992 q 667 888 694 914 q 601 861 640 861 z "},"å":{"ha":942,"x_min":46,"x_max":847,"o":"m 46 388 q 92 594 46 504 q 219 733 139 685 q 397 782 299 782 q 548 747 483 782 q 651 660 613 713 l 651 769 l 847 769 l 847 0 l 651 0 l 651 113 q 548 23 614 58 q 396 -12 482 -12 q 219 38 299 -12 q 92 178 139 88 q 46 388 46 269 m 651 385 q 624 506 651 456 q 549 584 596 557 q 447 611 501 611 q 347 585 393 611 q 273 508 301 558 q 244 388 244 457 q 273 266 244 318 q 348 186 301 214 q 447 158 394 158 q 549 185 501 158 q 624 263 596 213 q 651 385 651 314 m 636 996 q 590 880 636 924 q 474 836 543 836 q 358 880 406 836 q 311 996 311 924 q 358 1112 311 1068 q 474 1156 406 1156 q 590 1112 543 1156 q 636 996 636 1068 m 540 996 q 521 1047 540 1028 q 474 1065 501 1065 q 426 1047 446 1065 q 407 996 407 1028 q 426 947 407 967 q 474 926 446 926 q 521 947 501 926 q 540 996 540 967 z "},"æ":{"ha":1496,"x_min":46,"x_max":1451,"o":"m 1451 403 q 1444 331 1451 372 l 851 331 q 920 196 863 243 q 1050 149 978 149 q 1160 174 1117 149 q 1221 242 1203 199 l 1431 242 q 1311 59 1399 131 q 1099 -12 1224 -12 q 944 22 1014 -12 q 833 114 874 57 l 833 0 l 656 0 l 656 114 q 546 22 613 57 q 397 -12 479 -12 q 219 38 300 -12 q 92 178 139 88 q 46 388 46 269 q 92 595 46 506 q 221 733 139 685 q 404 782 303 782 q 658 661 565 782 l 658 769 l 833 769 l 833 661 q 949 753 883 724 q 1099 782 1014 782 q 1281 734 1201 782 q 1406 599 1361 686 q 1451 403 1451 513 m 1250 449 q 1193 575 1249 528 q 1054 622 1138 622 q 922 576 978 622 q 851 449 865 529 l 1250 449 m 447 158 q 549 185 501 158 q 624 263 596 213 q 651 385 651 314 q 624 506 651 456 q 549 584 596 557 q 447 611 501 611 q 347 585 393 611 q 273 508 301 558 q 244 388 244 457 q 273 266 244 318 q 348 186 301 214 q 447 158 394 158 z "},"ç":{"ha":836,"x_min":46,"x_max":789,"o":"m 425 154 q 579 260 543 154 l 789 260 q 681 76 760 147 q 485 -8 603 6 l 485 -62 q 613 -101 561 -62 q 665 -214 665 -140 q 612 -329 665 -289 q 481 -369 558 -369 l 283 -369 l 283 -256 l 449 -256 q 499 -246 482 -256 q 517 -211 517 -236 q 499 -177 517 -186 q 449 -168 482 -168 l 363 -168 l 363 -8 q 197 58 268 6 q 85 194 125 110 q 46 385 46 278 q 94 594 46 504 q 229 733 143 683 q 426 782 315 782 q 663 710 569 782 q 789 510 757 639 l 579 510 q 523 588 563 560 q 425 617 483 617 q 293 556 342 617 q 244 385 244 496 q 293 215 244 275 q 425 154 342 154 z "},"è":{"ha":857,"x_min":46,"x_max":811,"o":"m 811 401 q 806 326 811 360 l 243 326 q 301 196 250 243 q 428 149 353 149 q 582 242 536 149 l 792 242 q 664 59 758 131 q 432 -12 569 -12 q 233 37 321 -12 q 95 176 144 86 q 46 385 46 267 q 94 594 46 504 q 231 733 143 685 q 432 782 318 782 q 628 735 542 782 q 763 601 715 688 q 811 401 811 514 m 610 457 q 556 577 608 532 q 426 622 503 622 q 305 578 354 622 q 244 457 256 535 l 610 457 m 581 965 l 581 826 l 261 972 l 261 1131 l 581 965 z "},"é":{"ha":857,"x_min":46,"x_max":811,"o":"m 811 401 q 806 326 811 360 l 243 326 q 301 196 250 243 q 428 149 353 149 q 582 242 536 149 l 792 242 q 664 59 758 131 q 432 -12 569 -12 q 233 37 321 -12 q 95 176 144 86 q 46 385 46 267 q 94 594 46 504 q 231 733 143 685 q 432 782 318 782 q 628 735 542 782 q 763 601 715 688 q 811 401 811 514 m 610 457 q 556 577 608 532 q 426 622 503 622 q 305 578 354 622 q 244 457 256 535 l 610 457 m 581 972 l 261 826 l 261 965 l 581 1131 l 581 972 z "},"ê":{"ha":857,"x_min":46,"x_max":811,"o":"m 811 401 q 806 326 811 360 l 243 326 q 301 196 250 243 q 428 149 353 149 q 582 242 536 149 l 792 242 q 664 59 758 131 q 432 -12 569 -12 q 233 37 321 -12 q 95 176 144 86 q 46 385 46 267 q 94 594 46 504 q 231 733 143 685 q 432 782 318 782 q 628 735 542 782 q 763 601 715 688 q 811 401 811 514 m 610 457 q 556 577 608 532 q 426 622 503 622 q 305 578 354 622 q 244 457 256 535 l 610 457 m 429 943 l 222 826 l 222 968 l 429 1081 l 635 968 l 635 826 l 429 943 z "},"ë":{"ha":857,"x_min":46,"x_max":811,"o":"m 811 401 q 806 326 811 360 l 243 326 q 301 196 250 243 q 428 149 353 149 q 582 242 536 149 l 792 242 q 664 59 758 131 q 432 -12 569 -12 q 233 37 321 -12 q 95 176 144 86 q 46 385 46 267 q 94 594 46 504 q 231 733 143 685 q 432 782 318 782 q 628 735 542 782 q 763 601 715 688 q 811 401 811 514 m 610 457 q 556 577 608 532 q 426 622 503 622 q 305 578 354 622 q 244 457 256 535 l 610 457 m 300 864 q 235 890 261 864 q 208 956 208 917 q 235 1022 208 994 q 300 1049 261 1049 q 366 1022 339 1049 q 393 956 393 994 q 366 890 393 917 q 300 864 339 864 m 557 864 q 492 890 518 864 q 465 956 465 917 q 492 1022 465 994 q 557 1049 518 1049 q 623 1022 596 1049 q 650 956 650 994 q 623 890 650 917 q 557 864 596 864 z "},"ì":{"ha":403,"x_min":33,"x_max":353,"o":"m 299 769 l 299 0 l 104 0 l 104 769 l 299 769 m 353 963 l 353 824 l 33 969 l 33 1128 l 353 963 z "},"í":{"ha":403,"x_min":33,"x_max":353,"o":"m 299 769 l 299 0 l 104 0 l 104 769 l 299 769 m 353 969 l 33 824 l 33 963 l 353 1128 l 353 969 z "},"î":{"ha":403,"x_min":-4,"x_max":408,"o":"m 299 769 l 299 0 l 104 0 l 104 769 l 299 769 m 203 940 l -4 824 l -4 965 l 203 1078 l 408 965 l 408 824 l 203 940 z "},"ï":{"ha":403,"x_min":-19,"x_max":422,"o":"m 299 769 l 299 0 l 104 0 l 104 769 l 299 769 m 72 861 q 7 888 33 861 q -19 953 -19 914 q 7 1019 -19 992 q 72 1046 33 1046 q 138 1019 111 1046 q 165 953 165 992 q 138 888 165 914 q 72 861 111 861 m 329 861 q 264 888 290 861 q 238 953 238 914 q 264 1019 238 992 q 329 1046 290 1046 q 395 1019 368 1046 q 422 953 422 992 q 395 888 422 914 q 329 861 368 861 z "},"ð":{"ha":886,"x_min":46,"x_max":840,"o":"m 665 911 q 795 687 750 806 q 840 440 840 568 q 788 194 840 296 q 646 40 736 92 q 440 -11 556 -11 q 240 38 329 -11 q 98 178 150 88 q 46 386 46 268 q 97 594 46 504 q 233 732 147 683 q 425 781 319 781 q 618 718 532 781 q 528 867 585 794 l 367 817 l 367 906 l 465 938 q 367 1028 432 974 l 553 1028 q 603 981 571 1013 l 758 1029 l 758 940 l 665 911 m 440 154 q 539 180 493 154 q 613 258 585 206 q 640 385 640 310 q 613 512 640 460 q 539 590 585 564 q 442 615 493 615 q 344 590 389 615 q 273 512 300 564 q 246 385 246 460 q 302 214 246 274 q 440 154 358 154 z "},"ñ":{"ha":918,"x_min":96,"x_max":829,"o":"m 522 781 q 744 694 660 781 q 829 451 829 607 l 829 0 l 635 0 l 635 425 q 589 566 635 517 q 464 615 543 615 q 337 566 383 615 q 290 425 290 517 l 290 0 l 96 0 l 96 769 l 290 769 l 290 674 q 390 752 329 724 q 522 781 450 781 m 232 843 q 290 980 244 935 q 404 1025 335 1025 q 456 1016 433 1025 q 506 990 478 1007 q 575 964 547 964 q 635 1024 626 964 l 739 1024 q 681 887 726 932 q 567 842 636 842 q 515 851 538 842 q 465 876 493 860 q 396 904 425 904 q 335 843 344 904 l 232 843 z "},"ò":{"ha":886,"x_min":47,"x_max":839,"o":"m 438 -12 q 238 37 326 -12 q 98 176 149 86 q 47 385 47 267 q 99 593 47 503 q 242 733 151 683 q 443 782 332 782 q 644 733 554 782 q 787 593 735 683 q 839 385 839 503 q 785 176 839 267 q 641 37 732 86 q 438 -12 550 -12 m 438 157 q 537 183 490 157 q 611 260 583 208 q 639 385 639 311 q 581 553 639 494 q 440 613 524 613 q 301 553 357 613 q 244 385 244 494 q 299 216 244 275 q 438 157 354 157 m 603 972 l 603 833 l 283 979 l 283 1138 l 603 972 z "},"ó":{"ha":886,"x_min":47,"x_max":839,"o":"m 438 -12 q 238 37 326 -12 q 98 176 149 86 q 47 385 47 267 q 99 593 47 503 q 242 733 151 683 q 443 782 332 782 q 644 733 554 782 q 787 593 735 683 q 839 385 839 503 q 785 176 839 267 q 641 37 732 86 q 438 -12 550 -12 m 438 157 q 537 183 490 157 q 611 260 583 208 q 639 385 639 311 q 581 553 639 494 q 440 613 524 613 q 301 553 357 613 q 244 385 244 494 q 299 216 244 275 q 438 157 354 157 m 603 979 l 283 833 l 283 972 l 603 1138 l 603 979 z "},"ô":{"ha":886,"x_min":47,"x_max":839,"o":"m 438 -12 q 238 37 326 -12 q 98 176 149 86 q 47 385 47 267 q 99 593 47 503 q 242 733 151 683 q 443 782 332 782 q 644 733 554 782 q 787 593 735 683 q 839 385 839 503 q 785 176 839 267 q 641 37 732 86 q 438 -12 550 -12 m 438 157 q 537 183 490 157 q 611 260 583 208 q 639 385 639 311 q 581 553 639 494 q 440 613 524 613 q 301 553 357 613 q 244 385 244 494 q 299 216 244 275 q 438 157 354 157 m 451 950 l 244 833 l 244 975 l 451 1088 l 657 975 l 657 833 l 451 950 z "},"õ":{"ha":886,"x_min":47,"x_max":839,"o":"m 438 -12 q 238 37 326 -12 q 98 176 149 86 q 47 385 47 267 q 99 593 47 503 q 242 733 151 683 q 443 782 332 782 q 644 733 554 782 q 787 593 735 683 q 839 385 839 503 q 785 176 839 267 q 641 37 732 86 q 438 -12 550 -12 m 438 157 q 537 183 490 157 q 611 260 583 208 q 639 385 639 311 q 581 553 639 494 q 440 613 524 613 q 301 553 357 613 q 244 385 244 494 q 299 216 244 275 q 438 157 354 157 m 201 853 q 259 990 214 944 q 374 1035 304 1035 q 425 1026 403 1035 q 475 1000 447 1017 q 544 974 517 974 q 604 1033 596 974 l 708 1033 q 651 897 696 942 q 536 851 606 851 q 485 860 507 851 q 435 886 463 869 q 365 914 394 914 q 304 853 314 914 l 201 853 z "},"ö":{"ha":886,"x_min":47,"x_max":839,"o":"m 438 -12 q 238 37 326 -12 q 98 176 149 86 q 47 385 47 267 q 99 593 47 503 q 242 733 151 683 q 443 782 332 782 q 644 733 554 782 q 787 593 735 683 q 839 385 839 503 q 785 176 839 267 q 641 37 732 86 q 438 -12 550 -12 m 438 157 q 537 183 490 157 q 611 260 583 208 q 639 385 639 311 q 581 553 639 494 q 440 613 524 613 q 301 553 357 613 q 244 385 244 494 q 299 216 244 275 q 438 157 354 157 m 322 871 q 257 897 283 871 q 231 963 231 924 q 257 1028 231 1001 q 322 1056 283 1056 q 388 1028 361 1056 q 415 963 415 1001 q 388 897 415 924 q 322 871 361 871 m 579 871 q 514 897 540 871 q 488 963 488 924 q 514 1028 488 1001 q 579 1056 540 1056 q 645 1028 618 1056 q 672 963 672 1001 q 645 897 672 924 q 579 871 618 871 z "},"÷":{"ha":900,"x_min":101,"x_max":810,"o":"m 460 689 q 373 722 407 689 q 339 803 339 754 q 373 884 339 851 q 460 917 407 917 q 544 884 511 917 q 578 803 578 851 q 544 722 578 754 q 460 689 511 689 m 810 581 l 810 411 l 101 411 l 101 581 l 810 581 m 460 76 q 373 109 407 76 q 339 190 339 142 q 373 272 339 239 q 460 304 407 304 q 544 272 511 304 q 578 190 578 239 q 544 109 578 142 q 460 76 511 76 z "},"ø":{"ha":881,"x_min":29,"x_max":851,"o":"m 743 651 q 812 532 788 600 q 836 385 836 464 q 783 176 836 267 q 638 37 729 86 q 435 -12 547 -12 q 200 58 301 -12 l 147 0 l 29 0 l 136 117 q 68 238 92 169 q 44 385 44 306 q 97 593 44 503 q 239 733 149 683 q 440 782 329 782 q 679 710 578 782 l 733 769 l 851 769 l 743 651 m 242 385 q 267 260 242 314 l 556 575 q 438 613 504 613 q 298 553 354 613 q 242 385 242 494 m 636 385 q 611 507 636 453 l 324 192 q 435 157 371 157 q 534 183 488 157 q 608 260 581 208 q 636 385 636 311 z "},"ù":{"ha":918,"x_min":89,"x_max":822,"o":"m 822 769 l 822 0 l 626 0 l 626 97 q 528 19 589 47 q 397 -10 468 -10 q 238 28 307 -10 q 128 141 168 67 q 89 318 89 215 l 89 769 l 283 769 l 283 346 q 329 205 283 254 q 454 156 375 156 q 581 205 535 156 q 626 346 626 254 l 626 769 l 822 769 m 611 963 l 611 824 l 292 969 l 292 1128 l 611 963 z "},"ú":{"ha":918,"x_min":89,"x_max":822,"o":"m 822 769 l 822 0 l 626 0 l 626 97 q 528 19 589 47 q 397 -10 468 -10 q 238 28 307 -10 q 128 141 168 67 q 89 318 89 215 l 89 769 l 283 769 l 283 346 q 329 205 283 254 q 454 156 375 156 q 581 205 535 156 q 626 346 626 254 l 626 769 l 822 769 m 611 969 l 292 824 l 292 963 l 611 1128 l 611 969 z "},"û":{"ha":918,"x_min":89,"x_max":822,"o":"m 822 769 l 822 0 l 626 0 l 626 97 q 528 19 589 47 q 397 -10 468 -10 q 238 28 307 -10 q 128 141 168 67 q 89 318 89 215 l 89 769 l 283 769 l 283 346 q 329 205 283 254 q 454 156 375 156 q 581 205 535 156 q 626 346 626 254 l 626 769 l 822 769 m 460 940 l 253 824 l 253 965 l 460 1078 l 665 965 l 665 824 l 460 940 z "},"ü":{"ha":918,"x_min":89,"x_max":822,"o":"m 822 769 l 822 0 l 626 0 l 626 97 q 528 19 589 47 q 397 -10 468 -10 q 238 28 307 -10 q 128 141 168 67 q 89 318 89 215 l 89 769 l 283 769 l 283 346 q 329 205 283 254 q 454 156 375 156 q 581 205 535 156 q 626 346 626 254 l 626 769 l 822 769 m 331 861 q 265 888 292 861 q 239 953 239 914 q 265 1019 239 992 q 331 1046 292 1046 q 397 1019 369 1046 q 424 953 424 992 q 397 888 424 914 q 331 861 369 861 m 588 861 q 522 888 549 861 q 496 953 496 914 q 522 1019 496 992 q 588 1046 549 1046 q 653 1019 626 1046 q 681 953 681 992 q 653 888 681 914 q 588 861 626 861 z "},"ý":{"ha":840,"x_min":7,"x_max":832,"o":"m 832 769 l 356 -364 l 149 -364 l 315 19 l 7 769 l 225 769 l 424 232 l 625 769 l 832 769 m 572 969 l 253 824 l 253 963 l 572 1128 l 572 969 z "},"þ":{"ha":942,"x_min":96,"x_max":896,"o":"m 290 650 q 392 746 329 711 q 539 781 456 781 q 719 731 638 781 q 849 591 801 681 q 896 386 896 501 q 849 180 896 271 q 719 39 801 89 q 539 -11 638 -11 q 393 26 456 -11 q 290 129 331 64 l 290 -367 l 96 -367 l 96 1028 l 290 1028 l 290 650 m 697 386 q 669 508 697 457 q 594 585 640 560 q 494 611 547 611 q 395 585 442 611 q 319 507 349 558 q 290 385 290 456 q 319 263 290 314 q 395 185 349 211 q 494 158 442 158 q 594 185 547 158 q 669 263 640 211 q 697 386 697 315 z "},"ÿ":{"ha":840,"x_min":7,"x_max":832,"o":"m 832 769 l 356 -364 l 149 -364 l 315 19 l 7 769 l 225 769 l 424 232 l 625 769 l 832 769 m 292 861 q 226 888 253 861 q 200 953 200 914 q 226 1019 200 992 q 292 1046 253 1046 q 358 1019 331 1046 q 385 953 385 992 q 358 888 385 914 q 292 861 331 861 m 549 861 q 483 888 510 861 q 457 953 457 914 q 483 1019 457 992 q 549 1046 510 1046 q 615 1019 588 1046 q 642 953 642 992 q 615 888 642 914 q 549 861 588 861 z "},"Ā":{"ha":994,"x_min":36,"x_max":960,"o":"m 690 185 l 304 185 l 240 0 l 36 0 l 385 971 l 611 971 l 960 0 l 754 0 l 690 185 m 638 340 l 497 746 l 357 340 l 638 340 m 763 1218 l 763 1079 l 232 1079 l 232 1218 l 763 1218 z "},"ā":{"ha":942,"x_min":46,"x_max":847,"o":"m 46 388 q 92 594 46 504 q 219 733 139 685 q 397 782 299 782 q 548 747 483 782 q 651 660 613 713 l 651 769 l 847 769 l 847 0 l 651 0 l 651 113 q 548 23 614 58 q 396 -12 482 -12 q 219 38 299 -12 q 92 178 139 88 q 46 388 46 269 m 651 385 q 624 506 651 456 q 549 584 596 557 q 447 611 501 611 q 347 585 393 611 q 273 508 301 558 q 244 388 244 457 q 273 266 244 318 q 348 186 301 214 q 447 158 394 158 q 549 185 501 158 q 624 263 596 213 q 651 385 651 314 m 739 1017 l 739 878 l 208 878 l 208 1017 l 739 1017 z "},"Ă":{"ha":994,"x_min":36,"x_max":960,"o":"m 690 185 l 304 185 l 240 0 l 36 0 l 385 971 l 611 971 l 960 0 l 754 0 l 690 185 m 638 340 l 497 746 l 357 340 l 638 340 m 719 1246 q 660 1089 719 1146 q 497 1032 600 1032 q 337 1090 397 1032 q 276 1247 276 1147 l 276 1275 l 379 1275 q 406 1203 379 1228 q 497 1179 432 1179 q 589 1203 563 1179 q 615 1275 615 1228 l 719 1275 l 719 1246 z "},"ă":{"ha":942,"x_min":46,"x_max":847,"o":"m 46 388 q 92 594 46 504 q 219 733 139 685 q 397 782 299 782 q 548 747 483 782 q 651 660 613 713 l 651 769 l 847 769 l 847 0 l 651 0 l 651 113 q 548 23 614 58 q 396 -12 482 -12 q 219 38 299 -12 q 92 178 139 88 q 46 388 46 269 m 651 385 q 624 506 651 456 q 549 584 596 557 q 447 611 501 611 q 347 585 393 611 q 273 508 301 558 q 244 388 244 457 q 273 266 244 318 q 348 186 301 214 q 447 158 394 158 q 549 185 501 158 q 624 263 596 213 q 651 385 651 314 m 696 1044 q 636 888 696 944 q 474 831 576 831 q 313 888 374 831 q 253 1046 253 946 l 253 1074 l 356 1074 q 382 1002 356 1026 q 474 978 408 978 q 565 1002 539 978 q 592 1074 592 1026 l 696 1074 l 696 1044 z "},"Ą":{"ha":994,"x_min":36,"x_max":975,"o":"m 878 -181 q 975 -160 924 -181 l 975 -276 q 851 -297 917 -297 q 713 -258 769 -297 q 657 -142 657 -219 q 678 -60 657 -99 q 750 14 700 -22 l 690 185 l 304 185 l 240 0 l 36 0 l 385 971 l 611 971 l 960 0 l 893 -33 q 827 -77 846 -56 q 808 -124 808 -99 q 827 -165 808 -150 q 878 -181 846 -181 m 638 340 l 497 746 l 357 340 l 638 340 z "},"ą":{"ha":942,"x_min":46,"x_max":863,"o":"m 764 -181 q 863 -160 808 -181 l 863 -276 q 739 -297 803 -297 q 601 -259 657 -297 q 544 -143 544 -221 q 569 -58 544 -97 q 651 19 594 -18 l 651 113 q 548 23 614 58 q 396 -12 482 -12 q 219 38 299 -12 q 92 178 139 88 q 46 388 46 269 q 92 594 46 504 q 219 733 139 685 q 397 782 299 782 q 548 747 483 782 q 651 660 613 713 l 651 769 l 847 769 l 847 0 l 846 0 l 781 -33 q 714 -78 733 -57 q 694 -125 694 -100 q 713 -165 694 -150 q 764 -181 732 -181 m 447 158 q 549 185 501 158 q 624 263 596 213 q 651 385 651 314 q 624 506 651 456 q 549 584 596 557 q 447 611 501 611 q 347 585 393 611 q 273 508 301 558 q 244 388 244 457 q 273 266 244 318 q 348 186 301 214 q 447 158 394 158 z "},"Ć":{"ha":1067,"x_min":49,"x_max":996,"o":"m 49 486 q 113 742 49 629 q 290 919 178 856 q 540 982 401 982 q 825 899 703 982 q 996 668 947 815 l 772 668 q 678 772 739 738 q 539 807 618 807 q 388 767 454 807 q 285 656 322 728 q 249 486 249 583 q 285 317 249 390 q 388 205 322 244 q 539 165 454 165 q 678 201 618 165 q 772 306 739 236 l 996 306 q 826 74 947 157 q 540 -8 704 -8 q 290 55 401 -8 q 113 231 178 118 q 49 486 49 343 m 690 1181 l 371 1035 l 371 1174 l 690 1339 l 690 1181 z "},"ć":{"ha":836,"x_min":46,"x_max":789,"o":"m 46 385 q 94 594 46 504 q 229 733 143 683 q 426 782 315 782 q 663 710 569 782 q 789 510 757 639 l 579 510 q 523 588 563 560 q 425 617 483 617 q 293 556 342 617 q 244 385 244 496 q 293 215 244 275 q 425 154 342 154 q 579 260 543 154 l 789 260 q 663 61 757 135 q 426 -12 568 -12 q 229 37 315 -12 q 94 176 143 86 q 46 385 46 265 m 568 969 l 249 824 l 249 963 l 568 1128 l 568 969 z "},"Ċ":{"ha":1067,"x_min":49,"x_max":996,"o":"m 49 486 q 113 742 49 629 q 290 919 178 856 q 540 982 401 982 q 825 899 703 982 q 996 668 947 815 l 772 668 q 678 772 739 738 q 539 807 618 807 q 388 767 454 807 q 285 656 322 728 q 249 486 249 583 q 285 317 249 390 q 388 205 322 244 q 539 165 454 165 q 678 201 618 165 q 772 306 739 236 l 996 306 q 826 74 947 157 q 540 -8 704 -8 q 290 55 401 -8 q 113 231 178 118 q 49 486 49 343 m 539 1072 q 474 1099 500 1072 q 447 1164 447 1125 q 474 1230 447 1203 q 539 1257 500 1257 q 605 1230 578 1257 q 632 1164 632 1203 q 605 1099 632 1125 q 539 1072 578 1072 z "},"ċ":{"ha":836,"x_min":46,"x_max":789,"o":"m 46 385 q 94 594 46 504 q 229 733 143 683 q 426 782 315 782 q 663 710 569 782 q 789 510 757 639 l 579 510 q 523 588 563 560 q 425 617 483 617 q 293 556 342 617 q 244 385 244 496 q 293 215 244 275 q 425 154 342 154 q 579 260 543 154 l 789 260 q 663 61 757 135 q 426 -12 568 -12 q 229 37 315 -12 q 94 176 143 86 q 46 385 46 265 m 415 861 q 350 888 376 861 q 324 953 324 914 q 350 1019 324 992 q 415 1046 376 1046 q 481 1019 454 1046 q 508 953 508 992 q 481 888 508 914 q 415 861 454 861 z "},"Č":{"ha":1067,"x_min":49,"x_max":996,"o":"m 49 486 q 113 742 49 629 q 290 919 178 856 q 540 982 401 982 q 825 899 703 982 q 996 668 947 815 l 772 668 q 678 772 739 738 q 539 807 618 807 q 388 767 454 807 q 285 656 322 728 q 249 486 249 583 q 285 317 249 390 q 388 205 322 244 q 539 165 454 165 q 678 201 618 165 q 772 306 739 236 l 996 306 q 826 74 947 157 q 540 -8 704 -8 q 290 55 401 -8 q 113 231 178 118 q 49 486 49 343 m 746 1147 l 540 1035 l 333 1147 l 333 1289 l 540 1169 l 746 1289 l 746 1147 z "},"č":{"ha":836,"x_min":46,"x_max":789,"o":"m 46 385 q 94 594 46 504 q 229 733 143 683 q 426 782 315 782 q 663 710 569 782 q 789 510 757 639 l 579 510 q 523 588 563 560 q 425 617 483 617 q 293 556 342 617 q 244 385 244 496 q 293 215 244 275 q 425 154 342 154 q 579 260 543 154 l 789 260 q 663 61 757 135 q 426 -12 568 -12 q 229 37 315 -12 q 94 176 143 86 q 46 385 46 265 m 622 936 l 417 824 l 210 936 l 210 1078 l 417 958 l 622 1078 l 622 936 z "},"Ď":{"ha":996,"x_min":96,"x_max":946,"o":"m 435 969 q 703 910 588 969 q 883 740 819 850 q 946 483 946 629 q 883 228 946 338 q 703 60 819 119 q 435 0 588 0 l 96 0 l 96 969 l 435 969 m 428 165 q 664 249 581 165 q 747 483 747 332 q 664 720 747 635 q 428 806 581 806 l 290 806 l 290 165 l 428 165 m 700 1138 l 494 1025 l 288 1138 l 288 1279 l 494 1160 l 700 1279 l 700 1138 z "},"ď":{"ha":1119,"x_min":46,"x_max":1106,"o":"m 46 388 q 92 594 46 504 q 219 733 139 685 q 399 782 300 782 q 542 749 474 782 q 650 663 610 717 l 650 1028 l 847 1028 l 847 0 l 650 0 l 650 114 q 549 22 614 57 q 397 -12 483 -12 q 219 38 300 -12 q 92 178 139 88 q 46 388 46 269 m 1082 1028 q 1106 878 1106 944 q 1062 737 1106 786 q 931 688 1018 688 l 931 767 q 1000 850 1000 767 l 1000 876 l 921 876 l 921 1028 l 1082 1028 m 651 385 q 624 506 651 456 q 549 584 596 557 q 447 611 501 611 q 347 585 393 611 q 273 508 301 558 q 244 388 244 457 q 273 266 244 318 q 348 186 301 214 q 447 158 394 158 q 549 185 501 158 q 624 263 596 213 q 651 385 651 314 z "},"Đ":{"ha":1008,"x_min":10,"x_max":958,"o":"m 447 969 q 716 910 600 969 q 895 740 832 850 q 958 483 958 629 q 895 228 958 338 q 716 60 832 119 q 447 0 600 0 l 107 0 l 107 399 l 10 399 l 10 568 l 107 568 l 107 969 l 447 969 m 440 158 q 675 244 592 158 q 758 483 758 331 q 675 722 758 636 q 440 807 592 807 l 303 807 l 303 568 l 535 568 l 535 399 l 303 399 l 303 158 l 440 158 z "},"đ":{"ha":950,"x_min":46,"x_max":931,"o":"m 931 819 l 847 819 l 847 0 l 650 0 l 650 114 q 549 22 614 57 q 397 -12 483 -12 q 219 38 300 -12 q 92 178 139 88 q 46 388 46 269 q 92 594 46 504 q 219 733 139 685 q 399 782 300 782 q 542 749 474 782 q 650 663 610 717 l 650 819 l 544 819 l 544 922 l 650 922 l 650 1028 l 847 1028 l 847 922 l 931 922 l 931 819 m 447 158 q 549 185 501 158 q 624 263 596 213 q 651 385 651 314 q 624 506 651 456 q 549 584 596 557 q 447 611 501 611 q 347 585 393 611 q 273 508 301 558 q 244 388 244 457 q 273 266 244 318 q 348 186 301 214 q 447 158 394 158 z "},"Ē":{"ha":739,"x_min":96,"x_max":658,"o":"m 290 813 l 290 569 l 617 569 l 617 415 l 290 415 l 290 158 l 658 158 l 658 0 l 96 0 l 96 971 l 658 971 l 658 813 l 290 813 m 636 1218 l 636 1079 l 106 1079 l 106 1218 l 636 1218 z "},"ē":{"ha":857,"x_min":46,"x_max":811,"o":"m 811 401 q 806 326 811 360 l 243 326 q 301 196 250 243 q 428 149 353 149 q 582 242 536 149 l 792 242 q 664 59 758 131 q 432 -12 569 -12 q 233 37 321 -12 q 95 176 144 86 q 46 385 46 267 q 94 594 46 504 q 231 733 143 685 q 432 782 318 782 q 628 735 542 782 q 763 601 715 688 q 811 401 811 514 m 610 457 q 556 577 608 532 q 426 622 503 622 q 305 578 354 622 q 244 457 256 535 l 610 457 m 694 1019 l 694 881 l 164 881 l 164 1019 l 694 1019 z "},"Ĕ":{"ha":739,"x_min":96,"x_max":658,"o":"m 290 813 l 290 569 l 617 569 l 617 415 l 290 415 l 290 158 l 658 158 l 658 0 l 96 0 l 96 971 l 658 971 l 658 813 l 290 813 m 593 1246 q 533 1089 593 1146 q 371 1032 474 1032 q 210 1090 271 1032 q 150 1247 150 1147 l 150 1275 l 253 1275 q 279 1203 253 1228 q 371 1179 306 1179 q 463 1203 436 1179 q 489 1275 489 1228 l 593 1275 l 593 1246 z "},"ĕ":{"ha":857,"x_min":46,"x_max":811,"o":"m 811 401 q 806 326 811 360 l 243 326 q 301 196 250 243 q 428 149 353 149 q 582 242 536 149 l 792 242 q 664 59 758 131 q 432 -12 569 -12 q 233 37 321 -12 q 95 176 144 86 q 46 385 46 267 q 94 594 46 504 q 231 733 143 685 q 432 782 318 782 q 628 735 542 782 q 763 601 715 688 q 811 401 811 514 m 610 457 q 556 577 608 532 q 426 622 503 622 q 305 578 354 622 q 244 457 256 535 l 610 457 m 650 1047 q 590 890 650 947 q 428 833 531 833 q 267 891 328 833 q 207 1049 207 949 l 207 1076 l 310 1076 q 336 1005 310 1029 q 428 981 363 981 q 519 1005 493 981 q 546 1076 546 1029 l 650 1076 l 650 1047 z "},"Ė":{"ha":739,"x_min":96,"x_max":658,"o":"m 290 813 l 290 569 l 617 569 l 617 415 l 290 415 l 290 158 l 658 158 l 658 0 l 96 0 l 96 971 l 658 971 l 658 813 l 290 813 m 369 1063 q 304 1089 331 1063 q 278 1154 278 1115 q 304 1220 278 1193 q 369 1247 331 1247 q 435 1220 408 1247 q 463 1154 463 1193 q 435 1089 463 1115 q 369 1063 408 1063 z "},"ė":{"ha":857,"x_min":46,"x_max":811,"o":"m 811 401 q 806 326 811 360 l 243 326 q 301 196 250 243 q 428 149 353 149 q 582 242 536 149 l 792 242 q 664 59 758 131 q 432 -12 569 -12 q 233 37 321 -12 q 95 176 144 86 q 46 385 46 267 q 94 594 46 504 q 231 733 143 685 q 432 782 318 782 q 628 735 542 782 q 763 601 715 688 q 811 401 811 514 m 610 457 q 556 577 608 532 q 426 622 503 622 q 305 578 354 622 q 244 457 256 535 l 610 457 m 428 864 q 363 890 389 864 q 336 956 336 917 q 363 1022 336 994 q 428 1049 389 1049 q 494 1022 467 1049 q 521 956 521 994 q 494 890 521 917 q 428 864 467 864 z "},"Ę":{"ha":739,"x_min":96,"x_max":675,"o":"m 576 -181 q 675 -160 621 -181 l 675 -276 q 551 -297 615 -297 q 413 -259 469 -297 q 357 -143 357 -221 q 436 0 357 -62 l 96 0 l 96 971 l 658 971 l 658 813 l 290 813 l 290 569 l 617 569 l 617 415 l 290 415 l 290 158 l 658 158 l 658 0 l 593 -33 q 526 -78 546 -57 q 507 -125 507 -100 q 526 -165 507 -150 q 576 -181 544 -181 z "},"ę":{"ha":857,"x_min":46,"x_max":811,"o":"m 811 401 q 806 326 811 360 l 243 326 q 301 196 250 243 q 428 149 353 149 q 582 242 536 149 l 792 242 q 701 90 765 154 q 542 1 638 26 l 510 -15 q 443 -60 463 -39 q 424 -107 424 -82 q 442 -147 424 -132 q 493 -162 461 -162 q 592 -142 538 -162 l 592 -258 q 468 -279 532 -279 q 330 -241 386 -279 q 274 -125 274 -203 q 331 -1 274 -54 q 124 132 201 29 q 46 385 46 235 q 94 594 46 504 q 231 733 143 685 q 432 782 318 782 q 628 735 542 782 q 763 601 715 688 q 811 401 811 514 m 610 457 q 556 577 608 532 q 426 622 503 622 q 305 578 354 622 q 244 457 256 535 l 610 457 z "},"Ě":{"ha":739,"x_min":96,"x_max":658,"o":"m 290 813 l 290 569 l 617 569 l 617 415 l 290 415 l 290 158 l 658 158 l 658 0 l 96 0 l 96 971 l 658 971 l 658 813 l 290 813 m 576 1138 l 371 1025 l 164 1138 l 164 1279 l 371 1160 l 576 1279 l 576 1138 z "},"ě":{"ha":857,"x_min":46,"x_max":811,"o":"m 811 401 q 806 326 811 360 l 243 326 q 301 196 250 243 q 428 149 353 149 q 582 242 536 149 l 792 242 q 664 59 758 131 q 432 -12 569 -12 q 233 37 321 -12 q 95 176 144 86 q 46 385 46 267 q 94 594 46 504 q 231 733 143 685 q 432 782 318 782 q 628 735 542 782 q 763 601 715 688 q 811 401 811 514 m 610 457 q 556 577 608 532 q 426 622 503 622 q 305 578 354 622 q 244 457 256 535 l 610 457 m 635 939 l 429 826 l 222 939 l 222 1081 l 429 961 l 635 1081 l 635 939 z "},"Ğ":{"ha":1067,"x_min":49,"x_max":1018,"o":"m 771 678 q 679 771 738 739 q 543 803 621 803 q 390 764 457 803 q 286 653 324 725 q 249 486 249 581 q 287 317 249 389 q 393 206 325 244 q 551 167 461 167 q 733 226 663 167 q 826 390 804 285 l 493 390 l 493 539 l 1018 539 l 1018 369 q 935 182 999 268 q 770 44 871 96 q 544 -8 669 -8 q 291 55 404 -8 q 113 231 178 118 q 49 486 49 343 q 113 742 49 629 q 291 919 178 856 q 543 982 404 982 q 828 902 707 982 q 994 678 949 822 l 771 678 m 754 1246 q 694 1089 754 1146 q 532 1032 635 1032 q 372 1090 432 1032 q 311 1247 311 1147 l 311 1275 l 414 1275 q 440 1203 414 1228 q 532 1179 467 1179 q 624 1203 597 1179 q 650 1275 650 1228 l 754 1275 l 754 1246 z "},"ğ":{"ha":942,"x_min":46,"x_max":847,"o":"m 397 782 q 549 748 483 782 q 651 660 614 714 l 651 769 l 847 769 l 847 -6 q 804 -197 847 -112 q 675 -330 761 -281 q 467 -379 589 -379 q 198 -303 303 -379 q 79 -94 93 -226 l 272 -94 q 338 -178 288 -147 q 461 -210 389 -210 q 599 -159 546 -210 q 651 -6 651 -108 l 651 114 q 548 24 614 60 q 397 -12 482 -12 q 219 38 300 -12 q 92 178 139 88 q 46 388 46 269 q 92 594 46 504 q 219 733 139 685 q 397 782 299 782 m 651 385 q 624 506 651 456 q 549 584 596 557 q 447 611 501 611 q 347 585 393 611 q 273 508 301 558 q 244 388 244 457 q 273 266 244 318 q 348 186 301 214 q 447 158 394 158 q 549 185 501 158 q 624 263 596 213 q 651 385 651 314 m 696 1044 q 636 888 696 944 q 474 831 576 831 q 313 888 374 831 q 253 1046 253 946 l 253 1074 l 356 1074 q 382 1002 356 1026 q 474 978 408 978 q 565 1002 539 978 q 592 1074 592 1026 l 696 1074 l 696 1044 z "},"Ġ":{"ha":1067,"x_min":49,"x_max":1018,"o":"m 771 678 q 679 771 738 739 q 543 803 621 803 q 390 764 457 803 q 286 653 324 725 q 249 486 249 581 q 287 317 249 389 q 393 206 325 244 q 551 167 461 167 q 733 226 663 167 q 826 390 804 285 l 493 390 l 493 539 l 1018 539 l 1018 369 q 935 182 999 268 q 770 44 871 96 q 544 -8 669 -8 q 291 55 404 -8 q 113 231 178 118 q 49 486 49 343 q 113 742 49 629 q 291 919 178 856 q 543 982 404 982 q 828 902 707 982 q 994 678 949 822 l 771 678 m 532 1063 q 467 1089 493 1063 q 440 1154 440 1115 q 467 1220 440 1193 q 532 1247 493 1247 q 598 1220 571 1247 q 625 1154 625 1193 q 598 1089 625 1115 q 532 1063 571 1063 z "},"ġ":{"ha":942,"x_min":46,"x_max":847,"o":"m 397 782 q 549 748 483 782 q 651 660 614 714 l 651 769 l 847 769 l 847 -6 q 804 -197 847 -112 q 675 -330 761 -281 q 467 -379 589 -379 q 198 -303 303 -379 q 79 -94 93 -226 l 272 -94 q 338 -178 288 -147 q 461 -210 389 -210 q 599 -159 546 -210 q 651 -6 651 -108 l 651 114 q 548 24 614 60 q 397 -12 482 -12 q 219 38 300 -12 q 92 178 139 88 q 46 388 46 269 q 92 594 46 504 q 219 733 139 685 q 397 782 299 782 m 651 385 q 624 506 651 456 q 549 584 596 557 q 447 611 501 611 q 347 585 393 611 q 273 508 301 558 q 244 388 244 457 q 273 266 244 318 q 348 186 301 214 q 447 158 394 158 q 549 185 501 158 q 624 263 596 213 q 651 385 651 314 m 472 861 q 407 888 433 861 q 381 953 381 914 q 407 1019 381 992 q 472 1046 433 1046 q 538 1019 511 1046 q 565 953 565 992 q 538 888 565 914 q 472 861 511 861 z "},"Ģ":{"ha":1068,"x_min":49,"x_max":1018,"o":"m 771 678 q 679 771 738 739 q 543 803 621 803 q 390 764 457 803 q 286 653 324 725 q 249 486 249 581 q 287 317 249 389 q 393 206 325 244 q 551 167 461 167 q 733 226 663 167 q 826 390 804 285 l 493 390 l 493 539 l 1018 539 l 1018 369 q 935 182 999 268 q 770 44 871 96 q 544 -8 669 -8 q 291 55 404 -8 q 113 231 178 118 q 49 486 49 343 q 113 742 49 629 q 291 919 178 856 q 543 982 404 982 q 828 902 707 982 q 994 678 949 822 l 771 678 m 611 -60 q 635 -210 635 -146 q 590 -351 635 -301 q 460 -401 546 -401 l 460 -322 q 529 -236 529 -322 l 529 -211 l 450 -211 l 450 -60 l 611 -60 z "},"ģ":{"ha":942,"x_min":46,"x_max":847,"o":"m 400 829 q 378 979 378 910 q 422 1121 378 1071 q 551 1171 465 1171 l 551 1092 q 482 1007 482 1092 l 482 982 l 561 982 l 561 829 l 400 829 m 397 782 q 549 748 483 782 q 651 660 614 714 l 651 769 l 847 769 l 847 -6 q 804 -197 847 -112 q 675 -330 761 -281 q 467 -379 589 -379 q 198 -303 303 -379 q 79 -94 93 -226 l 272 -94 q 338 -178 288 -147 q 461 -210 389 -210 q 599 -159 546 -210 q 651 -6 651 -108 l 651 114 q 548 24 614 60 q 397 -12 482 -12 q 219 38 300 -12 q 92 178 139 88 q 46 388 46 269 q 92 594 46 504 q 219 733 139 685 q 397 782 299 782 m 651 385 q 624 506 651 456 q 549 584 596 557 q 447 611 501 611 q 347 585 393 611 q 273 508 301 558 q 244 388 244 457 q 273 266 244 318 q 348 186 301 214 q 447 158 394 158 q 549 185 501 158 q 624 263 596 213 q 651 385 651 314 z "},"Ĩ":{"ha":386,"x_min":-57,"x_max":450,"o":"m 290 969 l 290 0 l 96 0 l 96 969 l 290 969 m -57 1044 q 1 1181 -44 1136 q 115 1226 46 1226 q 167 1217 144 1226 q 217 1192 189 1208 q 286 1165 258 1165 q 346 1225 338 1165 l 450 1225 q 392 1088 438 1133 q 278 1043 347 1043 q 226 1052 249 1043 q 176 1078 204 1061 q 107 1106 136 1106 q 46 1044 56 1106 l -57 1044 z "},"ĩ":{"ha":403,"x_min":-47,"x_max":460,"o":"m 299 769 l 299 0 l 104 0 l 104 769 l 299 769 m -47 843 q 10 980 -35 935 q 125 1025 56 1025 q 176 1016 154 1025 q 226 990 199 1007 q 296 964 268 964 q 356 1024 347 964 l 460 1024 q 402 887 447 932 q 288 842 357 842 q 236 851 258 842 q 186 876 214 860 q 117 904 146 904 q 56 843 65 904 l -47 843 z "},"Ī":{"ha":386,"x_min":-71,"x_max":460,"o":"m 290 969 l 290 0 l 96 0 l 96 969 l 290 969 m 460 1218 l 460 1079 l -71 1079 l -71 1218 l 460 1218 z "},"ī":{"ha":403,"x_min":-62,"x_max":468,"o":"m 299 769 l 299 0 l 104 0 l 104 769 l 299 769 m 468 1017 l 468 878 l -62 878 l -62 1017 l 468 1017 z "},"Ĭ":{"ha":386,"x_min":-28,"x_max":415,"o":"m 290 969 l 290 0 l 96 0 l 96 969 l 290 969 m 415 1246 q 356 1089 415 1146 q 193 1032 296 1032 q 33 1090 93 1032 q -28 1247 -28 1147 l -28 1275 l 75 1275 q 101 1203 75 1228 q 193 1179 128 1179 q 285 1203 258 1179 q 311 1275 311 1228 l 415 1275 l 415 1246 z "},"ĭ":{"ha":403,"x_min":-19,"x_max":424,"o":"m 299 769 l 299 0 l 104 0 l 104 769 l 299 769 m 424 1044 q 364 888 424 944 q 201 831 304 831 q 41 888 101 831 q -19 1046 -19 946 l -19 1074 l 83 1074 q 110 1002 83 1026 q 201 978 136 978 q 293 1002 267 978 q 319 1074 319 1026 l 424 1074 l 424 1044 z "},"Į":{"ha":386,"x_min":-11,"x_max":307,"o":"m 208 -179 q 307 -158 253 -179 l 307 -275 q 183 -296 247 -296 q 45 -258 101 -296 q -11 -142 -11 -219 q 14 -56 -11 -96 q 96 21 39 -17 l 96 969 l 290 969 l 290 0 l 288 0 l 225 -32 q 158 -77 178 -56 q 139 -124 139 -99 q 158 -164 139 -149 q 208 -179 176 -179 z "},"į":{"ha":386,"x_min":-11,"x_max":314,"o":"m 194 861 q 109 894 143 861 q 75 975 75 926 q 109 1056 75 1024 q 194 1089 143 1089 q 280 1056 246 1089 q 314 975 314 1024 q 280 894 314 926 q 194 861 246 861 m 139 -124 q 158 -164 139 -149 q 208 -179 176 -179 q 307 -158 253 -179 l 307 -275 q 183 -296 247 -296 q 45 -258 101 -296 q -11 -142 -11 -219 q 14 -56 -11 -96 q 96 21 39 -17 l 96 769 l 290 769 l 290 0 l 288 0 l 225 -32 q 158 -77 178 -56 q 139 -124 139 -99 z "},"İ":{"ha":386,"x_min":96,"x_max":290,"o":"m 290 969 l 290 0 l 96 0 l 96 969 l 290 969 m 193 1063 q 128 1089 154 1063 q 101 1154 101 1115 q 128 1220 101 1193 q 193 1247 154 1247 q 259 1220 232 1247 q 286 1154 286 1193 q 259 1089 286 1115 q 193 1063 232 1063 z "},"ı":{"ha":403,"x_min":104,"x_max":299,"o":"m 299 769 l 299 0 l 104 0 l 104 769 l 299 769 z "},"Ķ":{"ha":935,"x_min":96,"x_max":889,"o":"m 889 0 l 643 0 l 290 432 l 290 0 l 96 0 l 96 969 l 290 969 l 290 535 l 643 969 l 878 969 l 478 489 l 889 0 m 544 -60 q 568 -210 568 -139 q 524 -351 568 -301 q 394 -401 479 -401 l 394 -322 q 464 -236 464 -322 l 464 -211 l 383 -211 l 383 -60 l 544 -60 z "},"ķ":{"ha":811,"x_min":96,"x_max":804,"o":"m 804 0 l 551 0 l 290 328 l 290 0 l 96 0 l 96 1028 l 290 1028 l 290 443 l 549 769 l 801 769 l 463 383 l 804 0 m 485 -60 q 507 -210 507 -140 q 463 -351 507 -301 q 333 -401 418 -401 l 333 -322 q 403 -236 403 -322 l 403 -211 l 324 -211 l 324 -60 l 485 -60 z "},"Ĺ":{"ha":638,"x_min":96,"x_max":610,"o":"m 290 154 l 610 154 l 610 0 l 96 0 l 96 969 l 290 969 l 290 154 m 463 1171 l 143 1025 l 143 1164 l 463 1329 l 463 1171 z "},"ĺ":{"ha":386,"x_min":25,"x_max":344,"o":"m 290 1028 l 290 0 l 96 0 l 96 1028 l 290 1028 m 344 1228 l 25 1082 l 25 1221 l 344 1386 l 344 1228 z "},"Ļ":{"ha":639,"x_min":96,"x_max":610,"o":"m 290 154 l 610 154 l 610 0 l 96 0 l 96 969 l 290 969 l 290 154 m 435 -60 q 458 -210 458 -139 q 415 -351 458 -301 q 283 -401 371 -401 l 283 -322 q 337 -301 319 -322 q 354 -236 354 -281 l 354 -211 l 274 -211 l 274 -60 l 435 -60 z "},"ļ":{"ha":386,"x_min":96,"x_max":296,"o":"m 290 1028 l 290 0 l 96 0 l 96 1028 l 290 1028 m 272 -60 q 296 -210 296 -146 q 251 -351 296 -301 q 121 -401 207 -401 l 121 -322 q 192 -236 192 -322 l 192 -211 l 111 -211 l 111 -60 l 272 -60 z "},"Ľ":{"ha":682,"x_min":96,"x_max":621,"o":"m 290 154 l 610 154 l 610 0 l 96 0 l 96 969 l 290 969 l 290 154 m 599 969 q 621 821 621 897 q 577 679 621 729 q 449 629 533 629 l 449 708 q 517 793 517 708 l 517 819 l 438 819 l 438 969 l 599 969 z "},"ľ":{"ha":624,"x_min":96,"x_max":575,"o":"m 290 1028 l 290 0 l 96 0 l 96 1028 l 290 1028 m 551 1028 q 575 878 575 951 q 531 737 575 786 q 401 688 488 688 l 401 767 q 471 850 471 767 l 471 876 l 390 876 l 390 1028 l 551 1028 z "},"Ŀ":{"ha":638,"x_min":96,"x_max":610,"o":"m 96 969 l 290 969 l 290 154 l 610 154 l 610 0 l 96 0 l 96 969 m 510 442 q 444 468 471 442 q 418 533 418 494 q 444 599 418 572 q 510 626 471 626 q 576 599 549 626 q 603 533 603 572 q 576 468 603 494 q 510 442 549 442 z "},"ŀ":{"ha":479,"x_min":96,"x_max":524,"o":"m 96 1028 l 290 1028 l 290 0 l 96 0 l 96 1028 m 432 414 q 366 440 393 414 q 339 506 339 467 q 366 572 339 544 q 432 599 393 599 q 497 572 471 599 q 524 506 524 544 q 497 440 524 467 q 432 414 471 414 z "},"Ł":{"ha":643,"x_min":13,"x_max":626,"o":"m 626 149 l 626 0 l 113 0 l 113 393 l 13 363 l 13 519 l 113 550 l 113 969 l 308 969 l 308 613 l 431 650 l 431 492 l 308 454 l 308 149 l 626 149 z "},"ł":{"ha":403,"x_min":13,"x_max":392,"o":"m 392 490 l 299 460 l 299 0 l 104 0 l 104 397 l 13 368 l 13 528 l 104 557 l 104 1028 l 299 1028 l 299 619 l 392 649 l 392 490 z "},"Ń":{"ha":1021,"x_min":96,"x_max":925,"o":"m 925 0 l 731 0 l 290 665 l 290 0 l 96 0 l 96 971 l 290 971 l 731 304 l 731 971 l 925 971 l 925 0 m 663 1171 l 343 1025 l 343 1164 l 663 1329 l 663 1171 z "},"ń":{"ha":918,"x_min":96,"x_max":829,"o":"m 522 781 q 744 694 660 781 q 829 451 829 607 l 829 0 l 635 0 l 635 425 q 589 566 635 517 q 464 615 543 615 q 337 566 383 615 q 290 425 290 517 l 290 0 l 96 0 l 96 769 l 290 769 l 290 674 q 390 752 329 724 q 522 781 450 781 m 633 969 l 314 824 l 314 963 l 633 1128 l 633 969 z "},"Ņ":{"ha":1038,"x_min":96,"x_max":925,"o":"m 925 0 l 731 0 l 290 665 l 290 0 l 96 0 l 96 971 l 290 971 l 731 304 l 731 971 l 925 971 l 925 0 m 596 -60 q 619 -210 619 -139 q 576 -351 619 -301 q 446 -401 532 -401 l 446 -322 q 515 -236 515 -322 l 515 -211 l 435 -211 l 435 -60 l 596 -60 z "},"ņ":{"ha":918,"x_min":96,"x_max":829,"o":"m 522 781 q 744 694 660 781 q 829 451 829 607 l 829 0 l 635 0 l 635 425 q 589 566 635 517 q 464 615 543 615 q 337 566 383 615 q 290 425 290 517 l 290 0 l 96 0 l 96 769 l 290 769 l 290 674 q 390 752 329 724 q 522 781 450 781 m 544 -60 q 567 -210 567 -133 q 523 -351 567 -301 q 394 -401 479 -401 l 394 -322 q 463 -236 463 -322 l 463 -211 l 383 -211 l 383 -60 l 544 -60 z "},"Ň":{"ha":1021,"x_min":96,"x_max":925,"o":"m 925 0 l 731 0 l 290 665 l 290 0 l 96 0 l 96 971 l 290 971 l 731 304 l 731 971 l 925 971 l 925 0 m 717 1138 l 511 1025 l 304 1138 l 304 1279 l 511 1160 l 717 1279 l 717 1138 z "},"ň":{"ha":918,"x_min":96,"x_max":829,"o":"m 522 781 q 744 694 660 781 q 829 451 829 607 l 829 0 l 635 0 l 635 425 q 589 566 635 517 q 464 615 543 615 q 337 566 383 615 q 290 425 290 517 l 290 0 l 96 0 l 96 769 l 290 769 l 290 674 q 390 752 329 724 q 522 781 450 781 m 688 936 l 482 824 l 275 936 l 275 1078 l 482 958 l 688 1078 l 688 936 z "},"Ō":{"ha":1090,"x_min":49,"x_max":1042,"o":"m 546 -10 q 296 54 410 -10 q 115 231 182 118 q 49 488 49 344 q 115 742 49 629 q 296 919 182 856 q 546 983 410 983 q 797 919 683 983 q 976 742 910 856 q 1042 488 1042 629 q 976 231 1042 344 q 796 54 910 118 q 546 -10 682 -10 m 546 164 q 700 203 633 164 q 804 317 767 243 q 842 488 842 390 q 804 658 842 585 q 700 769 767 731 q 546 808 633 808 q 391 769 458 808 q 286 658 324 731 q 249 488 249 585 q 286 317 249 390 q 391 203 324 243 q 546 164 458 164 m 811 1218 l 811 1079 l 281 1079 l 281 1218 l 811 1218 z "},"ō":{"ha":886,"x_min":47,"x_max":839,"o":"m 438 -12 q 238 37 326 -12 q 98 176 149 86 q 47 385 47 267 q 99 593 47 503 q 242 733 151 683 q 443 782 332 782 q 644 733 554 782 q 787 593 735 683 q 839 385 839 503 q 785 176 839 267 q 641 37 732 86 q 438 -12 550 -12 m 438 157 q 537 183 490 157 q 611 260 583 208 q 639 385 639 311 q 581 553 639 494 q 440 613 524 613 q 301 553 357 613 q 244 385 244 494 q 299 216 244 275 q 438 157 354 157 m 717 1026 l 717 888 l 186 888 l 186 1026 l 717 1026 z "},"Ŏ":{"ha":1090,"x_min":49,"x_max":1042,"o":"m 546 -10 q 296 54 410 -10 q 115 231 182 118 q 49 488 49 344 q 115 742 49 629 q 296 919 182 856 q 546 983 410 983 q 797 919 683 983 q 976 742 910 856 q 1042 488 1042 629 q 976 231 1042 344 q 796 54 910 118 q 546 -10 682 -10 m 546 164 q 700 203 633 164 q 804 317 767 243 q 842 488 842 390 q 804 658 842 585 q 700 769 767 731 q 546 808 633 808 q 391 769 458 808 q 286 658 324 731 q 249 488 249 585 q 286 317 249 390 q 391 203 324 243 q 546 164 458 164 m 767 1246 q 707 1089 767 1146 q 544 1032 647 1032 q 384 1090 444 1032 q 324 1247 324 1147 l 324 1275 l 426 1275 q 453 1203 426 1228 q 544 1179 479 1179 q 636 1203 610 1179 q 663 1275 663 1228 l 767 1275 l 767 1246 z "},"ŏ":{"ha":886,"x_min":47,"x_max":839,"o":"m 438 -12 q 238 37 326 -12 q 98 176 149 86 q 47 385 47 267 q 99 593 47 503 q 242 733 151 683 q 443 782 332 782 q 644 733 554 782 q 787 593 735 683 q 839 385 839 503 q 785 176 839 267 q 641 37 732 86 q 438 -12 550 -12 m 438 157 q 537 183 490 157 q 611 260 583 208 q 639 385 639 311 q 581 553 639 494 q 440 613 524 613 q 301 553 357 613 q 244 385 244 494 q 299 216 244 275 q 438 157 354 157 m 674 1054 q 614 897 674 954 q 451 840 554 840 q 291 898 351 840 q 231 1056 231 956 l 231 1083 l 333 1083 q 360 1012 333 1036 q 451 988 386 988 q 543 1012 517 988 q 569 1083 569 1036 l 674 1083 l 674 1054 z "},"Ő":{"ha":1090,"x_min":49,"x_max":1042,"o":"m 546 -10 q 296 54 410 -10 q 115 231 182 118 q 49 488 49 344 q 115 742 49 629 q 296 919 182 856 q 546 983 410 983 q 797 919 683 983 q 976 742 910 856 q 1042 488 1042 629 q 976 231 1042 344 q 796 54 910 118 q 546 -10 682 -10 m 546 164 q 700 203 633 164 q 804 317 767 243 q 842 488 842 390 q 804 658 842 585 q 700 769 767 731 q 546 808 633 808 q 391 769 458 808 q 286 658 324 731 q 249 488 249 585 q 286 317 249 390 q 391 203 324 243 q 546 164 458 164 m 468 1036 l 346 1036 l 446 1297 l 607 1297 l 468 1036 m 713 1036 l 589 1036 l 703 1297 l 864 1297 l 713 1036 z "},"ő":{"ha":886,"x_min":47,"x_max":839,"o":"m 438 -12 q 238 37 326 -12 q 98 176 149 86 q 47 385 47 267 q 99 593 47 503 q 242 733 151 683 q 443 782 332 782 q 644 733 554 782 q 787 593 735 683 q 839 385 839 503 q 785 176 839 267 q 641 37 732 86 q 438 -12 550 -12 m 438 157 q 537 183 490 157 q 611 260 583 208 q 639 385 639 311 q 581 553 639 494 q 440 613 524 613 q 301 553 357 613 q 244 385 244 494 q 299 216 244 275 q 438 157 354 157 m 374 844 l 251 844 l 351 1106 l 513 1106 l 374 844 m 618 844 l 494 844 l 608 1106 l 769 1106 l 618 844 z "},"Œ":{"ha":1489,"x_min":49,"x_max":1408,"o":"m 1040 565 l 1367 565 l 1367 417 l 1040 417 l 1040 154 l 1408 154 l 1408 0 l 846 0 l 846 129 q 531 -11 735 -8 q 288 53 399 -11 q 113 230 178 117 q 49 486 49 343 q 113 742 49 629 q 288 919 178 856 q 529 983 399 983 q 708 949 628 983 q 846 846 789 914 l 846 969 l 1408 969 l 1408 817 l 1040 817 l 1040 565 m 249 486 q 286 318 249 390 q 391 206 324 246 q 546 167 458 167 q 700 206 633 167 q 804 318 767 246 q 842 486 842 390 q 804 654 842 582 q 700 765 767 726 q 546 804 633 804 q 391 765 458 804 q 286 654 324 726 q 249 486 249 582 z "},"œ":{"ha":1461,"x_min":46,"x_max":1407,"o":"m 1407 403 q 1401 331 1407 364 l 839 331 q 894 196 844 243 q 1019 149 943 149 q 1174 242 1128 149 l 1383 242 q 1255 59 1350 131 q 1022 -12 1160 -12 q 859 24 932 -12 q 736 129 786 61 q 606 24 685 61 q 438 -12 528 -12 q 237 37 326 -12 q 97 176 147 86 q 46 385 46 267 q 98 593 46 503 q 241 733 150 683 q 443 782 332 782 q 608 746 532 782 q 738 643 685 710 q 861 746 786 710 q 1028 782 936 782 q 1224 735 1138 782 q 1359 601 1311 688 q 1407 403 1407 515 m 1206 444 q 1152 574 1204 526 q 1022 622 1100 622 q 899 575 949 622 q 840 444 849 528 l 1206 444 m 438 154 q 537 181 490 154 q 611 259 583 207 q 639 385 639 311 q 611 510 639 458 q 538 589 583 563 q 439 615 493 615 q 342 589 386 615 q 272 510 299 563 q 244 385 244 458 q 300 215 244 275 q 438 154 356 154 z "},"Ŕ":{"ha":890,"x_min":96,"x_max":821,"o":"m 596 0 l 382 378 l 290 378 l 290 0 l 96 0 l 96 969 l 460 969 q 651 930 572 969 q 770 823 731 890 q 810 672 810 756 q 754 499 810 576 q 589 393 699 422 l 821 0 l 596 0 m 290 524 l 453 524 q 571 562 532 524 q 610 668 610 600 q 571 772 610 735 q 453 808 532 808 l 290 808 l 290 524 m 593 1171 l 274 1025 l 274 1164 l 593 1329 l 593 1171 z "},"ŕ":{"ha":561,"x_min":96,"x_max":526,"o":"m 290 650 q 388 746 328 711 q 526 781 449 781 l 526 576 l 475 576 q 337 533 383 576 q 290 383 290 490 l 290 0 l 96 0 l 96 769 l 290 769 l 290 650 m 497 969 l 178 824 l 178 963 l 497 1128 l 497 969 z "},"Ŗ":{"ha":901,"x_min":96,"x_max":821,"o":"m 821 0 l 596 0 l 382 378 l 290 378 l 290 0 l 96 0 l 96 969 l 460 969 q 651 930 572 969 q 770 823 731 890 q 810 672 810 756 q 754 499 810 576 q 589 393 699 422 l 821 0 m 290 524 l 453 524 q 571 562 532 524 q 610 668 610 600 q 571 772 610 735 q 453 808 532 808 l 290 808 l 290 524 m 528 -60 q 550 -210 550 -140 q 506 -351 550 -301 q 376 -401 463 -401 l 376 -322 q 446 -236 446 -322 l 446 -211 l 367 -211 l 367 -60 l 528 -60 z "},"ŗ":{"ha":561,"x_min":96,"x_max":526,"o":"m 290 650 q 388 746 328 711 q 526 781 449 781 l 526 576 l 475 576 q 337 533 383 576 q 290 383 290 490 l 290 0 l 96 0 l 96 769 l 290 769 l 290 650 m 269 -60 q 292 -210 292 -133 q 248 -351 292 -301 q 119 -401 204 -401 l 119 -322 q 188 -236 188 -322 l 188 -211 l 108 -211 l 108 -60 l 269 -60 z "},"Ř":{"ha":890,"x_min":96,"x_max":821,"o":"m 596 0 l 382 378 l 290 378 l 290 0 l 96 0 l 96 969 l 460 969 q 651 930 572 969 q 770 823 731 890 q 810 672 810 756 q 754 499 810 576 q 589 393 699 422 l 821 0 l 596 0 m 290 524 l 453 524 q 571 562 532 524 q 610 668 610 600 q 571 772 610 735 q 453 808 532 808 l 290 808 l 290 524 m 649 1138 l 443 1025 l 236 1138 l 236 1279 l 443 1160 l 649 1279 l 649 1138 z "},"ř":{"ha":561,"x_min":96,"x_max":553,"o":"m 290 650 q 388 746 328 711 q 526 781 449 781 l 526 576 l 475 576 q 337 533 383 576 q 290 383 290 490 l 290 0 l 96 0 l 96 769 l 290 769 l 290 650 m 553 936 l 347 824 l 140 936 l 140 1078 l 347 958 l 553 1078 l 553 936 z "},"Ś":{"ha":846,"x_min":71,"x_max":774,"o":"m 431 -10 q 248 25 329 -10 q 119 125 167 60 q 71 279 72 190 l 279 279 q 322 185 283 219 q 426 150 360 150 q 533 183 494 150 q 572 268 572 215 q 546 339 572 311 q 480 383 519 367 q 371 418 440 399 q 217 473 276 446 q 116 555 158 500 q 74 701 74 610 q 117 851 74 788 q 238 949 160 915 q 415 983 315 983 q 659 910 565 983 q 763 707 753 838 l 549 707 q 506 790 546 757 q 401 822 467 822 q 310 793 344 822 q 276 708 276 764 q 302 644 276 669 q 366 602 328 618 q 474 565 404 586 q 628 510 568 538 q 731 426 688 482 q 774 281 774 371 q 733 136 774 203 q 615 30 693 69 q 431 -10 538 -10 m 571 1181 l 251 1035 l 251 1174 l 571 1339 l 571 1181 z "},"ś":{"ha":757,"x_min":54,"x_max":693,"o":"m 390 -12 q 221 22 296 -12 q 102 114 146 56 q 54 243 58 172 l 250 243 q 294 169 256 199 q 389 140 332 140 q 476 163 444 140 q 507 219 507 185 q 469 276 507 257 q 347 317 431 294 q 206 360 261 338 q 112 428 151 382 q 72 551 72 474 q 109 668 72 615 q 215 751 146 721 q 376 782 283 782 q 596 713 514 782 q 686 528 678 644 l 500 528 q 462 601 496 574 q 371 628 428 628 q 290 608 318 628 q 261 554 261 589 q 300 495 261 515 q 421 454 339 475 q 558 411 504 433 q 652 342 613 389 q 693 219 692 296 q 656 100 693 153 q 551 17 619 47 q 390 -12 482 -12 m 533 979 l 214 833 l 214 972 l 533 1138 l 533 979 z "},"Ş":{"ha":846,"x_min":71,"x_max":774,"o":"m 774 281 q 741 150 774 211 q 645 47 708 89 q 494 -6 582 6 l 494 -69 q 623 -108 571 -69 q 675 -221 675 -147 q 622 -336 675 -296 q 490 -376 568 -376 l 293 -376 l 293 -262 l 458 -262 q 509 -253 492 -262 q 526 -218 526 -243 q 509 -184 526 -193 q 458 -175 492 -175 l 372 -175 l 372 -7 q 156 83 239 8 q 71 279 72 158 l 279 279 q 322 185 283 219 q 426 150 360 150 q 533 183 494 150 q 572 268 572 215 q 546 339 572 311 q 480 383 519 367 q 371 418 440 399 q 217 473 276 446 q 116 555 158 500 q 74 701 74 610 q 117 851 74 788 q 238 949 160 915 q 415 983 315 983 q 659 910 565 983 q 763 707 753 838 l 549 707 q 506 790 546 757 q 401 822 467 822 q 310 793 344 822 q 276 708 276 764 q 302 644 276 669 q 366 602 328 618 q 474 565 404 586 q 628 510 568 538 q 731 426 688 482 q 774 281 774 371 z "},"ş":{"ha":757,"x_min":54,"x_max":693,"o":"m 451 -62 q 580 -101 528 -62 q 632 -214 632 -140 q 578 -329 632 -289 q 447 -369 525 -369 l 250 -369 l 250 -256 l 415 -256 q 466 -246 449 -256 q 483 -211 483 -236 q 466 -177 483 -186 q 415 -168 449 -168 l 329 -168 l 329 -8 q 135 76 210 7 q 54 243 60 146 l 250 243 q 294 169 256 199 q 389 140 332 140 q 476 163 444 140 q 507 219 507 185 q 469 276 507 257 q 347 317 431 294 q 206 360 261 338 q 112 428 151 382 q 72 551 72 474 q 109 668 72 615 q 215 751 146 721 q 376 782 283 782 q 596 713 514 782 q 686 528 678 644 l 500 528 q 462 601 496 574 q 371 628 428 628 q 290 608 318 628 q 261 554 261 589 q 300 495 261 515 q 421 454 339 475 q 558 411 504 433 q 652 342 613 389 q 693 219 692 296 q 628 68 693 131 q 451 -8 564 6 l 451 -62 z "},"Š":{"ha":846,"x_min":71,"x_max":774,"o":"m 431 -10 q 248 25 329 -10 q 119 125 167 60 q 71 279 72 190 l 279 279 q 322 185 283 219 q 426 150 360 150 q 533 183 494 150 q 572 268 572 215 q 546 339 572 311 q 480 383 519 367 q 371 418 440 399 q 217 473 276 446 q 116 555 158 500 q 74 701 74 610 q 117 851 74 788 q 238 949 160 915 q 415 983 315 983 q 659 910 565 983 q 763 707 753 838 l 549 707 q 506 790 546 757 q 401 822 467 822 q 310 793 344 822 q 276 708 276 764 q 302 644 276 669 q 366 602 328 618 q 474 565 404 586 q 628 510 568 538 q 731 426 688 482 q 774 281 774 371 q 733 136 774 203 q 615 30 693 69 q 431 -10 538 -10 m 626 1147 l 421 1035 l 214 1147 l 214 1289 l 421 1169 l 626 1289 l 626 1147 z "},"š":{"ha":757,"x_min":54,"x_max":693,"o":"m 390 -12 q 221 22 296 -12 q 102 114 146 56 q 54 243 58 172 l 250 243 q 294 169 256 199 q 389 140 332 140 q 476 163 444 140 q 507 219 507 185 q 469 276 507 257 q 347 317 431 294 q 206 360 261 338 q 112 428 151 382 q 72 551 72 474 q 109 668 72 615 q 215 751 146 721 q 376 782 283 782 q 596 713 514 782 q 686 528 678 644 l 500 528 q 462 601 496 574 q 371 628 428 628 q 290 608 318 628 q 261 554 261 589 q 300 495 261 515 q 421 454 339 475 q 558 411 504 433 q 652 342 613 389 q 693 219 692 296 q 656 100 693 153 q 551 17 619 47 q 390 -12 482 -12 m 588 946 l 382 833 l 175 946 l 175 1088 l 382 968 l 588 1088 l 588 946 z "},"Ţ":{"ha":801,"x_min":44,"x_max":756,"o":"m 465 0 l 465 -62 q 594 -101 542 -62 q 646 -214 646 -140 q 592 -329 646 -289 q 461 -369 539 -369 l 264 -369 l 264 -256 l 429 -256 q 480 -246 463 -256 q 497 -211 497 -236 q 480 -177 497 -186 q 429 -168 463 -168 l 343 -168 l 343 0 l 303 0 l 303 813 l 44 813 l 44 969 l 756 969 l 756 813 l 497 813 l 497 0 l 465 0 z "},"ţ":{"ha":539,"x_min":35,"x_max":526,"o":"m 346 -60 q 474 -99 422 -60 q 526 -211 526 -137 q 473 -326 526 -286 q 342 -367 419 -367 l 144 -367 l 144 -253 l 310 -253 q 360 -243 343 -253 q 378 -208 378 -233 q 360 -174 378 -183 q 310 -165 343 -165 l 224 -165 l 224 32 q 126 239 126 88 l 126 610 l 35 610 l 35 769 l 126 769 l 126 960 l 322 960 l 322 769 l 494 769 l 494 610 l 322 610 l 322 238 q 341 181 322 199 q 404 164 360 164 l 494 164 l 494 0 l 372 0 q 346 1 354 0 l 346 -60 z "},"Ť":{"ha":801,"x_min":44,"x_max":756,"o":"m 756 969 l 756 813 l 497 813 l 497 0 l 303 0 l 303 813 l 44 813 l 44 969 l 756 969 m 606 1138 l 400 1025 l 193 1138 l 193 1279 l 400 1160 l 606 1279 l 606 1138 z "},"ť":{"ha":543,"x_min":35,"x_max":594,"o":"m 571 1125 q 589 1051 583 1081 q 594 989 594 1021 q 551 868 594 910 q 419 826 507 826 l 419 906 q 490 951 490 906 l 490 974 l 410 974 l 410 1125 l 571 1125 m 322 769 l 494 769 l 494 610 l 322 610 l 322 238 q 341 181 322 199 q 404 164 360 164 l 494 164 l 494 0 l 372 0 q 126 239 126 0 l 126 610 l 35 610 l 35 769 l 126 769 l 126 960 l 322 960 l 322 769 z "},"Ũ":{"ha":968,"x_min":93,"x_max":876,"o":"m 288 969 l 288 369 q 339 219 288 271 q 483 167 390 167 q 629 219 578 167 q 681 369 681 271 l 681 969 l 876 969 l 876 371 q 823 162 876 247 q 680 33 769 76 q 481 -10 590 -10 q 284 33 372 -10 q 144 162 196 76 q 93 371 93 247 l 93 969 l 288 969 m 235 1044 q 292 1181 247 1136 q 407 1226 338 1226 q 458 1217 436 1226 q 508 1192 481 1208 q 578 1165 550 1165 q 638 1225 629 1165 l 742 1225 q 684 1088 729 1133 q 569 1043 639 1043 q 518 1052 540 1043 q 468 1078 496 1061 q 399 1106 428 1106 q 338 1044 347 1106 l 235 1044 z "},"ũ":{"ha":918,"x_min":89,"x_max":822,"o":"m 822 769 l 822 0 l 626 0 l 626 97 q 528 19 589 47 q 397 -10 468 -10 q 238 28 307 -10 q 128 141 168 67 q 89 318 89 215 l 89 769 l 283 769 l 283 346 q 329 205 283 254 q 454 156 375 156 q 581 205 535 156 q 626 346 626 254 l 626 769 l 822 769 m 210 843 q 267 980 222 935 q 382 1025 313 1025 q 433 1016 411 1025 q 483 990 456 1007 q 553 964 525 964 q 613 1024 604 964 l 717 1024 q 659 887 704 932 q 544 842 614 842 q 493 851 515 842 q 443 876 471 860 q 374 904 403 904 q 313 843 322 904 l 210 843 z "},"Ū":{"ha":968,"x_min":93,"x_max":876,"o":"m 288 969 l 288 369 q 339 219 288 271 q 483 167 390 167 q 629 219 578 167 q 681 369 681 271 l 681 969 l 876 969 l 876 371 q 823 162 876 247 q 680 33 769 76 q 481 -10 590 -10 q 284 33 372 -10 q 144 162 196 76 q 93 371 93 247 l 93 969 l 288 969 m 750 1218 l 750 1079 l 219 1079 l 219 1218 l 750 1218 z "},"ū":{"ha":918,"x_min":89,"x_max":822,"o":"m 822 769 l 822 0 l 626 0 l 626 97 q 528 19 589 47 q 397 -10 468 -10 q 238 28 307 -10 q 128 141 168 67 q 89 318 89 215 l 89 769 l 283 769 l 283 346 q 329 205 283 254 q 454 156 375 156 q 581 205 535 156 q 626 346 626 254 l 626 769 l 822 769 m 725 1017 l 725 878 l 194 878 l 194 1017 l 725 1017 z "},"Ŭ":{"ha":968,"x_min":93,"x_max":876,"o":"m 288 969 l 288 369 q 339 219 288 271 q 483 167 390 167 q 629 219 578 167 q 681 369 681 271 l 681 969 l 876 969 l 876 371 q 823 162 876 247 q 680 33 769 76 q 481 -10 590 -10 q 284 33 372 -10 q 144 162 196 76 q 93 371 93 247 l 93 969 l 288 969 m 706 1246 q 646 1089 706 1146 q 483 1032 586 1032 q 323 1090 383 1032 q 263 1247 263 1147 l 263 1275 l 365 1275 q 392 1203 365 1228 q 483 1179 418 1179 q 575 1203 549 1179 q 601 1275 601 1228 l 706 1275 l 706 1246 z "},"ŭ":{"ha":918,"x_min":89,"x_max":822,"o":"m 822 769 l 822 0 l 626 0 l 626 97 q 528 19 589 47 q 397 -10 468 -10 q 238 28 307 -10 q 128 141 168 67 q 89 318 89 215 l 89 769 l 283 769 l 283 346 q 329 205 283 254 q 454 156 375 156 q 581 205 535 156 q 626 346 626 254 l 626 769 l 822 769 m 682 1044 q 622 888 682 944 q 460 831 563 831 q 299 888 360 831 q 239 1046 239 946 l 239 1074 l 342 1074 q 368 1002 342 1026 q 460 978 394 978 q 551 1002 525 978 q 578 1074 578 1026 l 682 1074 l 682 1044 z "},"Ů":{"ha":968,"x_min":93,"x_max":876,"o":"m 288 969 l 288 369 q 339 219 288 271 q 483 167 390 167 q 629 219 578 167 q 681 369 681 271 l 681 969 l 876 969 l 876 371 q 823 162 876 247 q 680 33 769 76 q 481 -10 590 -10 q 284 33 372 -10 q 144 162 196 76 q 93 371 93 247 l 93 969 l 288 969 m 647 1197 q 601 1081 647 1125 q 485 1038 554 1038 q 369 1081 417 1038 q 322 1197 322 1125 q 369 1313 322 1269 q 485 1357 417 1357 q 601 1313 554 1357 q 647 1197 647 1269 m 551 1197 q 532 1248 551 1229 q 485 1267 513 1267 q 438 1248 457 1267 q 418 1197 418 1229 q 438 1148 418 1168 q 485 1128 457 1128 q 532 1148 513 1128 q 551 1197 551 1168 z "},"ů":{"ha":918,"x_min":89,"x_max":822,"o":"m 822 769 l 822 0 l 626 0 l 626 97 q 528 19 589 47 q 397 -10 468 -10 q 238 28 307 -10 q 128 141 168 67 q 89 318 89 215 l 89 769 l 283 769 l 283 346 q 329 205 283 254 q 454 156 375 156 q 581 205 535 156 q 626 346 626 254 l 626 769 l 822 769 m 622 996 q 576 880 622 924 q 460 836 529 836 q 344 880 392 836 q 297 996 297 924 q 344 1112 297 1068 q 460 1156 392 1156 q 576 1112 529 1156 q 622 996 622 1068 m 526 996 q 507 1047 526 1028 q 460 1065 488 1065 q 413 1047 432 1065 q 393 996 393 1028 q 413 947 393 967 q 460 926 432 926 q 507 947 488 926 q 526 996 526 967 z "},"Ű":{"ha":968,"x_min":93,"x_max":876,"o":"m 288 969 l 288 369 q 339 219 288 271 q 483 167 390 167 q 629 219 578 167 q 681 369 681 271 l 681 969 l 876 969 l 876 371 q 823 162 876 247 q 680 33 769 76 q 481 -10 590 -10 q 284 33 372 -10 q 144 162 196 76 q 93 371 93 247 l 93 969 l 288 969 m 407 1036 l 285 1036 l 385 1297 l 546 1297 l 407 1036 m 651 1036 l 528 1036 l 642 1297 l 803 1297 l 651 1036 z "},"ű":{"ha":918,"x_min":89,"x_max":822,"o":"m 822 769 l 822 0 l 626 0 l 626 97 q 528 19 589 47 q 397 -10 468 -10 q 238 28 307 -10 q 128 141 168 67 q 89 318 89 215 l 89 769 l 283 769 l 283 346 q 329 205 283 254 q 454 156 375 156 q 581 205 535 156 q 626 346 626 254 l 626 769 l 822 769 m 382 835 l 260 835 l 360 1096 l 521 1096 l 382 835 m 626 835 l 503 835 l 617 1096 l 778 1096 l 626 835 z "},"Ų":{"ha":968,"x_min":93,"x_max":876,"o":"m 876 969 l 876 371 q 797 126 876 219 q 590 3 718 32 l 590 1 l 525 -32 q 458 -77 478 -56 q 439 -124 439 -99 q 458 -164 439 -149 q 508 -179 476 -179 q 607 -158 553 -179 l 607 -275 q 483 -296 547 -296 q 345 -258 401 -296 q 289 -142 289 -219 q 369 3 289 -60 q 169 126 244 32 q 93 371 93 219 l 93 969 l 288 969 l 288 369 q 339 219 288 271 q 483 167 390 167 q 629 219 578 167 q 681 369 681 271 l 681 969 l 876 969 z "},"ų":{"ha":918,"x_min":89,"x_max":839,"o":"m 740 -182 q 839 -161 785 -182 l 839 -278 q 715 -299 779 -299 q 577 -260 633 -299 q 521 -144 521 -222 q 626 17 521 -50 l 626 97 q 528 19 589 47 q 397 -10 468 -10 q 238 28 307 -10 q 128 141 168 67 q 89 318 89 215 l 89 769 l 283 769 l 283 346 q 329 205 283 254 q 454 156 375 156 q 581 205 535 156 q 626 346 626 254 l 626 769 l 822 769 l 822 -1 l 757 -35 q 690 -80 710 -58 q 671 -126 671 -101 q 690 -167 671 -151 q 740 -182 708 -182 z "},"Ŵ":{"ha":1422,"x_min":31,"x_max":1392,"o":"m 1392 969 l 1121 0 l 892 0 l 710 690 l 519 0 l 292 -1 l 31 969 l 239 969 l 410 217 l 607 969 l 824 969 l 1010 221 l 1182 969 l 1392 969 m 707 1147 l 500 1031 l 500 1172 l 707 1285 l 913 1172 l 913 1031 l 707 1147 z "},"ŵ":{"ha":1172,"x_min":10,"x_max":1163,"o":"m 1163 769 l 938 0 l 728 0 l 588 538 l 447 0 l 236 0 l 10 769 l 207 769 l 343 183 l 490 769 l 696 769 l 840 185 l 976 769 l 1163 769 m 588 940 l 381 824 l 381 965 l 588 1078 l 793 965 l 793 824 l 588 940 z "},"Ŷ":{"ha":883,"x_min":15,"x_max":867,"o":"m 867 969 l 539 338 l 539 0 l 344 0 l 344 338 l 15 969 l 235 969 l 443 526 l 650 969 l 867 969 m 443 1142 l 236 1025 l 236 1167 l 443 1279 l 649 1167 l 649 1025 l 443 1142 z "},"ŷ":{"ha":840,"x_min":7,"x_max":832,"o":"m 832 769 l 356 -364 l 149 -364 l 315 19 l 7 769 l 225 769 l 424 232 l 625 769 l 832 769 m 421 940 l 214 824 l 214 965 l 421 1078 l 626 965 l 626 824 l 421 940 z "},"Ÿ":{"ha":883,"x_min":15,"x_max":867,"o":"m 867 969 l 539 338 l 539 0 l 344 0 l 344 338 l 15 969 l 235 969 l 443 526 l 650 969 l 867 969 m 313 1063 q 247 1089 274 1063 q 221 1154 221 1115 q 247 1220 221 1193 q 313 1247 274 1247 q 378 1220 351 1247 q 406 1154 406 1193 q 378 1089 406 1115 q 313 1063 351 1063 m 569 1063 q 504 1089 531 1063 q 478 1154 478 1115 q 504 1220 478 1193 q 569 1247 531 1247 q 635 1220 608 1247 q 663 1154 663 1193 q 635 1089 663 1115 q 569 1063 608 1063 z "},"Ź":{"ha":800,"x_min":69,"x_max":731,"o":"m 294 164 l 731 164 l 731 0 l 69 0 l 69 150 l 503 806 l 69 806 l 69 969 l 731 969 l 731 819 l 294 164 m 551 1171 l 232 1025 l 232 1164 l 551 1329 l 551 1171 z "},"ź":{"ha":671,"x_min":53,"x_max":617,"o":"m 274 160 l 617 160 l 617 0 l 53 0 l 53 157 l 389 610 l 54 610 l 54 769 l 613 769 l 613 613 l 274 160 m 489 969 l 169 824 l 169 963 l 489 1128 l 489 969 z "},"Ż":{"ha":800,"x_min":69,"x_max":731,"o":"m 294 164 l 731 164 l 731 0 l 69 0 l 69 150 l 503 806 l 69 806 l 69 969 l 731 969 l 731 819 l 294 164 m 399 1063 q 333 1089 360 1063 q 307 1154 307 1115 q 333 1220 307 1193 q 399 1247 360 1247 q 465 1220 438 1247 q 492 1154 492 1193 q 465 1089 492 1115 q 399 1063 438 1063 z "},"ż":{"ha":671,"x_min":53,"x_max":617,"o":"m 274 160 l 617 160 l 617 0 l 53 0 l 53 157 l 389 610 l 54 610 l 54 769 l 613 769 l 613 613 l 274 160 m 338 861 q 272 888 299 861 q 246 953 246 914 q 272 1019 246 992 q 338 1046 299 1046 q 403 1019 376 1046 q 431 953 431 992 q 403 888 431 914 q 338 861 376 861 z "},"Ž":{"ha":800,"x_min":69,"x_max":731,"o":"m 294 164 l 731 164 l 731 0 l 69 0 l 69 150 l 503 806 l 69 806 l 69 969 l 731 969 l 731 819 l 294 164 m 606 1138 l 400 1025 l 193 1138 l 193 1279 l 400 1160 l 606 1279 l 606 1138 z "},"ž":{"ha":671,"x_min":53,"x_max":617,"o":"m 274 160 l 617 160 l 617 0 l 53 0 l 53 157 l 389 610 l 54 610 l 54 769 l 613 769 l 613 613 l 274 160 m 544 936 l 339 824 l 132 936 l 132 1078 l 339 958 l 544 1078 l 544 936 z "},"Ə":{"ha":1085,"x_min":75,"x_max":1015,"o":"m 542 986 q 788 924 681 986 q 956 748 896 861 q 1015 488 1015 635 q 956 228 1015 340 q 790 53 897 115 q 543 -10 683 -10 q 298 46 404 -10 q 133 207 192 101 q 75 458 75 313 q 81 549 75 508 l 807 549 q 727 739 800 668 q 543 810 654 810 q 396 772 458 810 q 306 665 333 733 l 89 665 q 255 899 135 811 q 542 986 375 986 m 542 168 q 723 229 649 168 q 807 396 797 290 l 276 396 q 354 231 281 293 q 542 168 428 168 z "},"ƒ":{"ha":464,"x_min":-82,"x_max":463,"o":"m 446 915 q 353 892 382 915 q 318 813 324 868 l 314 769 l 440 769 l 425 610 l 296 610 l 221 -100 q 140 -280 208 -226 q -49 -333 71 -333 l -82 -333 l -65 -169 l -36 -169 q 7 -153 -8 -169 q 26 -100 22 -136 l 101 610 l 18 610 l 35 769 l 118 769 l 122 813 q 219 1015 138 951 q 463 1079 301 1079 l 446 915 z "},"Ǽ":{"ha":1301,"x_min":13,"x_max":1221,"o":"m 857 818 l 857 568 l 1179 568 l 1179 418 l 857 418 l 857 154 l 1221 154 l 1221 0 l 661 0 l 661 182 l 321 182 l 225 0 l 13 0 l 529 971 l 1221 971 l 1221 818 l 857 818 m 661 332 l 661 829 l 400 332 l 661 332 m 899 1172 l 579 1026 l 579 1165 l 899 1331 l 899 1172 z "},"ǽ":{"ha":1500,"x_min":46,"x_max":1451,"o":"m 1451 403 q 1444 331 1451 372 l 851 331 q 920 196 863 243 q 1050 149 978 149 q 1160 174 1117 149 q 1221 242 1203 199 l 1431 242 q 1311 59 1399 131 q 1099 -12 1224 -12 q 944 22 1014 -12 q 833 114 874 57 l 833 0 l 656 0 l 656 114 q 546 22 613 57 q 397 -12 479 -12 q 219 38 300 -12 q 92 178 139 88 q 46 388 46 269 q 92 595 46 506 q 221 733 139 685 q 404 782 303 782 q 658 661 565 782 l 658 769 l 833 769 l 833 661 q 949 753 883 724 q 1099 782 1014 782 q 1281 734 1201 782 q 1406 599 1361 686 q 1451 403 1451 513 m 1250 449 q 1193 575 1249 528 q 1054 622 1138 622 q 922 576 978 622 q 851 449 865 529 l 1250 449 m 447 158 q 549 185 501 158 q 624 263 596 213 q 651 385 651 314 q 624 506 651 456 q 549 584 596 557 q 447 611 501 611 q 347 585 393 611 q 273 508 301 558 q 244 388 244 457 q 273 266 244 318 q 348 186 301 214 q 447 158 394 158 m 968 969 l 649 824 l 649 963 l 968 1128 l 968 969 z "},"Ș":{"ha":867,"x_min":71,"x_max":774,"o":"m 431 -10 q 248 25 329 -10 q 119 125 167 60 q 71 279 72 190 l 279 279 q 322 185 283 219 q 426 150 360 150 q 533 183 494 150 q 572 268 572 215 q 546 339 572 311 q 480 383 519 367 q 371 418 440 399 q 217 473 276 446 q 116 555 158 500 q 74 701 74 610 q 117 851 74 788 q 238 949 160 915 q 415 983 315 983 q 659 910 565 983 q 763 707 753 838 l 549 707 q 506 790 546 757 q 401 822 467 822 q 310 793 344 822 q 276 708 276 764 q 302 644 276 669 q 366 602 328 618 q 474 565 404 586 q 628 510 568 538 q 731 426 688 482 q 774 281 774 371 q 733 136 774 203 q 615 30 693 69 q 431 -10 538 -10 m 511 -60 q 535 -210 535 -139 q 490 -351 535 -301 q 360 -401 446 -401 l 360 -322 q 429 -236 429 -322 l 429 -211 l 350 -211 l 350 -60 l 511 -60 z "},"ș":{"ha":757,"x_min":54,"x_max":693,"o":"m 390 -12 q 221 22 296 -12 q 102 114 146 56 q 54 243 58 172 l 250 243 q 294 169 256 199 q 389 140 332 140 q 476 163 444 140 q 507 219 507 185 q 469 276 507 257 q 347 317 431 294 q 206 360 261 338 q 112 428 151 382 q 72 551 72 474 q 109 668 72 615 q 215 751 146 721 q 376 782 283 782 q 596 713 514 782 q 686 528 678 644 l 500 528 q 462 601 496 574 q 371 628 428 628 q 290 608 318 628 q 261 554 261 589 q 300 495 261 515 q 421 454 339 475 q 558 411 504 433 q 652 342 613 389 q 693 219 692 296 q 656 100 693 153 q 551 17 619 47 q 390 -12 482 -12 m 456 -60 q 478 -210 478 -140 q 434 -351 478 -301 q 304 -401 390 -401 l 304 -322 q 374 -236 374 -322 l 374 -211 l 294 -211 l 294 -60 l 456 -60 z "},"Ț":{"ha":801,"x_min":44,"x_max":756,"o":"m 756 969 l 756 813 l 497 813 l 497 0 l 303 0 l 303 813 l 44 813 l 44 969 l 756 969 m 478 -60 q 500 -210 500 -140 q 456 -351 500 -301 q 326 -401 413 -401 l 326 -322 q 397 -236 397 -322 l 397 -211 l 317 -211 l 317 -60 l 478 -60 z "},"ț":{"ha":539,"x_min":35,"x_max":494,"o":"m 322 610 l 322 238 q 341 181 322 199 q 404 164 360 164 l 494 164 l 494 0 l 372 0 q 126 239 126 0 l 126 610 l 35 610 l 35 769 l 126 769 l 126 960 l 322 960 l 322 769 l 494 769 l 494 610 l 322 610 m 350 -60 q 374 -210 374 -139 q 329 -351 374 -301 q 199 -401 285 -401 l 199 -322 q 268 -236 268 -322 l 268 -211 l 189 -211 l 189 -60 l 350 -60 z "},"ə":{"ha":857,"x_min":46,"x_max":811,"o":"m 425 782 q 624 733 536 782 q 762 593 713 683 q 811 385 811 503 q 763 175 811 265 q 626 36 714 85 q 425 -12 539 -12 q 228 35 315 -12 q 94 169 142 82 q 46 368 46 256 q 51 443 46 410 l 614 443 q 556 574 607 526 q 429 621 504 621 q 275 528 321 621 l 65 528 q 193 710 99 639 q 425 782 288 782 m 431 147 q 552 191 503 147 q 613 313 601 235 l 247 313 q 301 192 249 238 q 431 147 354 147 z "},"ʼ":{"ha":382,"x_min":56,"x_max":339,"o":"m 135 969 l 339 969 l 189 619 l 56 619 l 135 969 z "},"ˆ":{"ha":440,"x_min":14,"x_max":426,"o":"m 221 940 l 14 824 l 14 965 l 221 1078 l 426 965 l 426 824 l 221 940 z "},"ˇ":{"ha":440,"x_min":14,"x_max":426,"o":"m 426 936 l 221 824 l 14 936 l 14 1078 l 221 958 l 426 1078 l 426 936 z "},"ˉ":{"ha":558,"x_min":14,"x_max":544,"o":"m 544 1017 l 544 878 l 14 878 l 14 1017 l 544 1017 z "},"˘":{"ha":471,"x_min":14,"x_max":457,"o":"m 457 1044 q 397 888 457 944 q 235 831 338 831 q 74 888 135 831 q 14 1046 14 946 l 14 1074 l 117 1074 q 143 1002 117 1026 q 235 978 169 978 q 326 1002 300 978 q 353 1074 353 1026 l 457 1074 l 457 1044 z "},"˙":{"ha":213,"x_min":14,"x_max":199,"o":"m 106 861 q 40 888 67 861 q 14 953 14 914 q 40 1019 14 992 q 106 1046 67 1046 q 172 1019 144 1046 q 199 953 199 992 q 172 888 199 914 q 106 861 144 861 z "},"˚":{"ha":346,"x_min":11,"x_max":336,"o":"m 336 996 q 290 880 336 924 q 174 836 243 836 q 58 880 106 836 q 11 996 11 924 q 58 1112 11 1068 q 174 1156 106 1156 q 290 1112 243 1156 q 336 996 336 1068 m 240 996 q 221 1047 240 1028 q 174 1065 201 1065 q 126 1047 146 1065 q 107 996 107 1028 q 126 947 107 967 q 174 926 146 926 q 221 947 201 926 q 240 996 240 967 z "},"˛":{"ha":349,"x_min":17,"x_max":335,"o":"m 318 0 l 253 -33 q 186 -78 206 -57 q 167 -125 167 -100 q 185 -165 167 -150 q 236 -181 204 -181 q 335 -160 281 -181 l 335 -276 q 211 -297 275 -297 q 73 -259 129 -297 q 17 -143 17 -221 q 62 -31 17 -82 q 217 68 107 21 l 272 93 l 318 0 z "},"˜":{"ha":529,"x_min":11,"x_max":518,"o":"m 11 843 q 69 980 24 935 q 183 1025 114 1025 q 235 1016 213 1025 q 285 990 257 1007 q 354 964 326 964 q 414 1024 406 964 l 518 1024 q 460 887 506 932 q 346 842 415 842 q 294 851 317 842 q 244 876 272 860 q 175 904 204 904 q 114 843 124 904 l 11 843 z "},"˝":{"ha":557,"x_min":14,"x_max":532,"o":"m 136 835 l 14 835 l 114 1096 l 275 1096 l 136 835 m 381 835 l 257 835 l 371 1096 l 532 1096 l 381 835 z "},"π":{"ha":981,"x_min":36,"x_max":942,"o":"m 942 769 l 942 619 l 839 619 l 839 0 l 644 0 l 644 619 l 333 619 l 333 0 l 138 0 l 138 619 l 36 619 l 36 769 l 942 769 z "},"Ẁ":{"ha":1422,"x_min":31,"x_max":1392,"o":"m 1392 969 l 1121 0 l 892 0 l 710 690 l 519 0 l 292 -1 l 31 969 l 239 969 l 410 217 l 607 969 l 824 969 l 1010 221 l 1182 969 l 1392 969 m 829 1164 l 829 1025 l 510 1171 l 510 1329 l 829 1164 z "},"ẁ":{"ha":1172,"x_min":10,"x_max":1163,"o":"m 1163 769 l 938 0 l 728 0 l 588 538 l 447 0 l 236 0 l 10 769 l 207 769 l 343 183 l 490 769 l 696 769 l 840 185 l 976 769 l 1163 769 m 694 963 l 694 824 l 375 969 l 375 1128 l 694 963 z "},"Ẃ":{"ha":1422,"x_min":31,"x_max":1392,"o":"m 1392 969 l 1121 0 l 892 0 l 710 690 l 519 0 l 292 -1 l 31 969 l 239 969 l 410 217 l 607 969 l 824 969 l 1010 221 l 1182 969 l 1392 969 m 924 1176 l 604 1031 l 604 1169 l 924 1335 l 924 1176 z "},"ẃ":{"ha":1172,"x_min":10,"x_max":1163,"o":"m 1163 769 l 938 0 l 728 0 l 588 538 l 447 0 l 236 0 l 10 769 l 207 769 l 343 183 l 490 769 l 696 769 l 840 185 l 976 769 l 1163 769 m 803 969 l 483 824 l 483 963 l 803 1128 l 803 969 z "},"Ẅ":{"ha":1422,"x_min":31,"x_max":1392,"o":"m 1392 969 l 1121 0 l 892 0 l 710 690 l 519 0 l 292 -1 l 31 969 l 239 969 l 410 217 l 607 969 l 824 969 l 1010 221 l 1182 969 l 1392 969 m 578 1064 q 513 1090 539 1064 q 486 1156 486 1117 q 513 1222 486 1194 q 578 1249 539 1249 q 644 1222 617 1249 q 671 1156 671 1194 q 644 1090 671 1117 q 578 1064 617 1064 m 835 1064 q 769 1090 796 1064 q 743 1156 743 1117 q 769 1222 743 1194 q 835 1249 796 1249 q 901 1222 874 1249 q 928 1156 928 1194 q 901 1090 928 1117 q 835 1064 874 1064 z "},"ẅ":{"ha":1172,"x_min":10,"x_max":1163,"o":"m 1163 769 l 938 0 l 728 0 l 588 538 l 447 0 l 236 0 l 10 769 l 207 769 l 343 183 l 490 769 l 696 769 l 840 185 l 976 769 l 1163 769 m 458 861 q 393 888 419 861 q 367 953 367 914 q 393 1019 367 992 q 458 1046 419 1046 q 524 1019 497 1046 q 551 953 551 992 q 524 888 551 914 q 458 861 497 861 m 715 861 q 650 888 676 861 q 624 953 624 914 q 650 1019 624 992 q 715 1046 676 1046 q 781 1019 754 1046 q 808 953 808 992 q 781 888 808 914 q 715 861 754 861 z "},"Ẽ":{"ha":739,"x_min":96,"x_max":658,"o":"m 290 813 l 290 569 l 617 569 l 617 415 l 290 415 l 290 158 l 658 158 l 658 0 l 96 0 l 96 971 l 658 971 l 658 813 l 290 813 m 121 1044 q 178 1181 133 1136 q 293 1226 224 1226 q 344 1217 322 1226 q 394 1192 367 1208 q 464 1165 436 1165 q 524 1225 515 1165 l 628 1225 q 570 1088 615 1133 q 456 1043 525 1043 q 404 1052 426 1043 q 354 1078 382 1061 q 285 1106 314 1106 q 224 1044 233 1106 l 121 1044 z "},"ẽ":{"ha":857,"x_min":46,"x_max":811,"o":"m 811 401 q 806 326 811 360 l 243 326 q 301 196 250 243 q 428 149 353 149 q 582 242 536 149 l 792 242 q 664 59 758 131 q 432 -12 569 -12 q 233 37 321 -12 q 95 176 144 86 q 46 385 46 267 q 94 594 46 504 q 231 733 143 685 q 432 782 318 782 q 628 735 542 782 q 763 601 715 688 q 811 401 811 514 m 610 457 q 556 577 608 532 q 426 622 503 622 q 305 578 354 622 q 244 457 256 535 l 610 457 m 179 846 q 237 983 192 938 q 351 1028 282 1028 q 403 1019 381 1028 q 453 993 425 1010 q 522 967 494 967 q 582 1026 574 967 l 686 1026 q 628 890 674 935 q 514 844 583 844 q 463 853 485 844 q 413 879 440 863 q 343 907 372 907 q 282 846 292 907 l 179 846 z "},"Ỳ":{"ha":883,"x_min":15,"x_max":867,"o":"m 867 969 l 539 338 l 539 0 l 344 0 l 344 338 l 15 969 l 235 969 l 443 526 l 650 969 l 867 969 m 593 1164 l 593 1025 l 274 1171 l 274 1329 l 593 1164 z "},"ỳ":{"ha":840,"x_min":7,"x_max":832,"o":"m 832 769 l 356 -364 l 149 -364 l 315 19 l 7 769 l 225 769 l 424 232 l 625 769 l 832 769 m 572 963 l 572 824 l 253 969 l 253 1128 l 572 963 z "},"Ỹ":{"ha":883,"x_min":15,"x_max":867,"o":"m 867 969 l 539 338 l 539 0 l 344 0 l 344 338 l 15 969 l 235 969 l 443 526 l 650 969 l 867 969 m 192 1044 q 249 1181 204 1136 q 364 1226 294 1226 q 415 1217 393 1226 q 465 1192 438 1208 q 535 1165 507 1165 q 594 1225 586 1165 l 699 1225 q 641 1088 686 1133 q 526 1043 596 1043 q 475 1052 497 1043 q 425 1078 453 1061 q 356 1106 385 1106 q 294 1044 304 1106 l 192 1044 z "},"ỹ":{"ha":840,"x_min":7,"x_max":832,"o":"m 832 769 l 356 -364 l 149 -364 l 315 19 l 7 769 l 225 769 l 424 232 l 625 769 l 832 769 m 171 843 q 228 980 183 935 q 343 1025 274 1025 q 394 1016 372 1025 q 444 990 417 1007 q 514 964 486 964 q 574 1024 565 964 l 678 1024 q 620 887 665 932 q 506 842 575 842 q 454 851 476 842 q 404 876 432 860 q 335 904 364 904 q 274 843 283 904 l 171 843 z "},"–":{"ha":975,"x_min":110,"x_max":865,"o":"m 865 578 l 865 414 l 110 414 l 110 578 l 865 578 z "},"—":{"ha":1288,"x_min":110,"x_max":1178,"o":"m 1178 578 l 1178 414 l 110 414 l 110 578 l 1178 578 z "},"‘":{"ha":382,"x_min":43,"x_max":328,"o":"m 249 619 l 43 619 l 193 969 l 328 969 l 249 619 z "},"’":{"ha":382,"x_min":56,"x_max":339,"o":"m 135 969 l 339 969 l 189 619 l 56 619 l 135 969 z "},"‚":{"ha":349,"x_min":19,"x_max":304,"o":"m 99 206 l 304 206 l 154 -144 l 19 -144 l 99 206 z "},"“":{"ha":663,"x_min":43,"x_max":608,"o":"m 249 619 l 43 619 l 193 969 l 328 969 l 249 619 m 529 619 l 324 619 l 474 969 l 608 969 l 529 619 z "},"”":{"ha":663,"x_min":56,"x_max":619,"o":"m 135 969 l 339 969 l 189 619 l 56 619 l 135 969 m 415 969 l 619 969 l 469 619 l 336 619 l 415 969 z "},"„":{"ha":631,"x_min":21,"x_max":586,"o":"m 100 206 l 304 206 l 154 -144 l 21 -144 l 100 206 m 381 206 l 586 206 l 436 -144 l 301 -144 l 381 206 z "},"†":{"ha":857,"x_min":68,"x_max":788,"o":"m 788 619 l 506 636 l 525 -367 l 331 -367 l 350 636 l 68 619 l 68 769 l 350 754 l 331 1092 l 525 1092 l 506 754 l 788 769 l 788 619 z "},"‡":{"ha":857,"x_min":69,"x_max":788,"o":"m 506 636 l 506 90 l 788 106 l 788 -44 l 506 -28 l 525 -367 l 331 -367 l 350 -28 l 69 -44 l 69 106 l 350 90 l 350 636 l 69 619 l 69 769 l 350 754 l 331 1092 l 525 1092 l 506 754 l 788 769 l 788 619 l 506 636 z "},"•":{"ha":667,"x_min":139,"x_max":528,"o":"m 332 269 q 235 295 279 269 q 165 365 190 321 q 139 463 139 410 q 165 561 139 517 q 235 631 190 606 q 332 657 279 657 q 431 631 386 657 q 502 561 476 606 q 528 463 528 517 q 502 365 528 410 q 431 295 476 321 q 332 269 386 269 z "},"…":{"ha":965,"x_min":61,"x_max":910,"o":"m 486 -10 q 399 23 433 -10 q 365 104 365 56 q 399 185 365 153 q 486 218 433 218 q 571 185 538 218 q 604 104 604 153 q 571 23 604 56 q 486 -10 538 -10 m 792 -10 q 705 23 739 -10 q 671 104 671 56 q 705 185 671 153 q 792 218 739 218 q 876 185 843 218 q 910 104 910 153 q 876 23 910 56 q 792 -10 843 -10 m 182 -10 q 95 23 129 -10 q 61 104 61 56 q 95 185 61 153 q 182 218 129 218 q 267 185 233 218 q 300 104 300 153 q 267 23 300 56 q 182 -10 233 -10 z "},"‰":{"ha":1550,"x_min":50,"x_max":1501,"o":"m 50 764 q 112 927 50 868 q 271 986 174 986 q 430 927 368 986 q 492 764 492 868 q 430 600 492 660 q 271 540 368 540 q 112 600 174 540 q 50 764 50 660 m 899 972 l 353 0 l 164 0 l 708 972 l 899 972 m 269 869 q 193 764 193 869 q 213 683 193 710 q 269 657 233 657 q 328 683 307 657 q 349 764 349 710 q 269 869 349 869 m 572 210 q 634 372 572 314 q 793 431 696 431 q 951 372 890 431 q 1013 210 1013 314 q 951 45 1013 104 q 793 -14 890 -14 q 634 45 696 -14 q 572 210 572 104 m 1060 210 q 1122 372 1060 314 q 1281 431 1183 431 q 1440 372 1378 431 q 1501 210 1501 314 q 1440 45 1501 104 q 1281 -14 1378 -14 q 1122 45 1183 -14 q 1060 210 1060 104 m 792 315 q 735 289 756 315 q 714 210 714 263 q 735 129 714 156 q 792 103 756 103 q 849 129 828 103 q 869 210 869 156 q 849 289 869 263 q 792 315 828 315 m 1279 315 q 1223 289 1243 315 q 1203 210 1203 263 q 1223 129 1203 156 q 1279 103 1243 103 q 1338 129 1317 103 q 1358 210 1358 156 q 1338 289 1358 263 q 1279 315 1317 315 z "},"‹":{"ha":439,"x_min":63,"x_max":369,"o":"m 185 167 l 63 410 l 185 653 l 369 653 l 242 410 l 369 167 l 185 167 z "},"›":{"ha":439,"x_min":69,"x_max":376,"o":"m 196 410 l 69 653 l 253 653 l 376 410 l 253 167 l 69 167 l 196 410 z "},"⁄":{"ha":804,"x_min":44,"x_max":781,"o":"m 781 972 l 235 0 l 44 0 l 589 972 l 781 972 z "},"€":{"ha":1110,"x_min":32,"x_max":1071,"o":"m 615 169 q 754 204 694 169 q 849 306 814 239 l 1071 306 q 901 74 1022 157 q 617 -8 779 -8 q 324 81 450 -8 q 150 321 199 171 l 32 321 l 32 436 l 128 436 q 125 486 125 469 q 128 539 125 506 l 32 539 l 32 654 l 151 654 q 326 893 200 804 q 617 982 451 982 q 901 899 779 982 q 1071 668 1022 815 l 849 668 q 754 769 814 735 q 615 803 694 803 q 465 764 531 803 q 363 654 399 725 l 629 654 l 629 539 l 328 539 q 325 486 325 506 q 328 436 325 469 l 629 436 l 629 321 l 361 321 q 464 210 397 250 q 615 169 531 169 z "},"₺":{"ha":1169,"x_min":15,"x_max":1039,"o":"m 1039 613 q 986 256 1039 394 q 819 51 933 118 q 519 -17 706 -17 q 211 21 390 -17 l 211 336 l 19 297 l 19 426 l 211 465 l 211 565 l 15 525 l 15 650 l 211 692 l 211 978 l 410 978 l 410 733 l 618 776 l 618 649 l 410 606 l 410 506 l 615 547 l 615 419 l 410 378 l 410 176 q 518 167 456 167 q 769 281 699 167 q 839 613 839 394 l 1039 613 z "},"₽":{"ha":907,"x_min":31,"x_max":865,"o":"m 353 386 l 353 286 l 600 286 l 600 133 l 353 133 l 353 0 l 158 0 l 158 133 l 31 133 l 31 286 l 158 286 l 158 386 l 31 386 l 31 536 l 158 536 l 158 969 l 515 969 q 707 931 628 969 q 826 826 786 893 q 865 678 865 760 q 828 533 865 599 q 713 426 792 467 q 515 386 635 386 l 353 386 m 353 536 l 511 536 q 626 574 588 536 q 665 678 665 613 q 626 781 665 743 q 511 819 588 819 l 353 819 l 353 536 z "},"ℓ":{"ha":386,"x_min":96,"x_max":290,"o":"m 290 1028 l 290 0 l 96 0 l 96 1028 l 290 1028 z "},"™":{"ha":1172,"x_min":35,"x_max":1099,"o":"m 35 979 l 403 979 l 403 865 l 292 865 l 292 490 l 146 490 l 147 865 l 35 865 l 35 979 m 1099 979 l 1099 490 l 964 490 l 961 797 l 835 490 l 736 490 l 610 808 l 610 490 l 479 490 l 479 979 l 672 979 l 790 665 l 918 979 l 1099 979 z "},"Ω":{"ha":1092,"x_min":51,"x_max":1042,"o":"m 1042 497 q 1003 300 1042 389 q 883 150 964 211 l 1031 150 l 1031 0 l 653 0 l 653 156 q 791 283 739 200 q 843 479 843 367 q 806 653 843 579 q 701 765 768 726 q 546 804 633 804 q 391 765 458 804 q 287 653 324 726 q 250 479 250 579 q 301 282 250 365 q 440 156 353 199 l 440 0 l 61 0 l 61 150 l 208 150 q 90 300 129 211 q 51 497 51 389 q 117 751 51 640 q 296 922 183 861 q 546 983 408 983 q 797 922 683 983 q 976 751 910 861 q 1042 497 1042 640 z "},"℮":{"ha":1046,"x_min":54,"x_max":992,"o":"m 951 188 q 535 -10 765 -10 q 288 47 397 -10 q 117 210 179 103 q 54 464 54 317 q 110 729 54 611 q 271 915 165 847 q 522 983 376 983 q 774 920 667 983 q 936 752 881 857 q 992 528 992 647 l 992 442 l 289 442 l 289 201 q 535 108 390 108 q 716 149 633 108 q 879 269 799 189 l 951 188 m 750 788 q 651 849 710 828 q 522 869 592 869 q 289 776 378 869 l 289 551 l 750 551 l 750 788 z "},"∂":{"ha":832,"x_min":50,"x_max":782,"o":"m 50 333 q 101 558 50 457 q 240 719 153 660 q 431 778 326 778 q 518 762 481 778 q 588 711 556 746 q 525 861 574 807 q 386 915 476 915 q 286 901 340 915 l 286 1006 q 432 1028 354 1028 q 690 903 599 1028 q 782 567 782 778 q 726 260 782 392 q 572 59 669 129 q 353 -11 475 -11 q 199 26 267 -11 q 90 142 131 64 q 50 333 50 219 m 569 443 q 535 571 569 526 q 442 615 500 615 q 342 578 386 615 q 273 477 297 542 q 249 333 249 413 q 283 199 249 244 q 374 154 317 154 q 474 193 429 154 q 544 298 519 232 q 569 443 569 364 z "},"∆":{"ha":992,"x_min":28,"x_max":964,"o":"m 576 972 l 964 150 l 964 0 l 28 0 l 28 150 l 417 972 l 576 972 m 228 150 l 764 150 l 496 750 l 228 150 z "},"∏":{"ha":1033,"x_min":36,"x_max":997,"o":"m 997 972 l 997 822 l 894 822 l 894 0 l 700 0 l 700 822 l 333 822 l 333 0 l 138 0 l 138 822 l 36 822 l 36 972 l 997 972 z "},"∑":{"ha":703,"x_min":56,"x_max":647,"o":"m 647 822 l 226 822 l 579 533 l 579 383 l 222 75 l 647 75 l 647 -74 l 56 -74 l 56 154 l 396 454 l 56 746 l 56 972 l 647 972 l 647 822 z "},"−":{"ha":786,"x_min":99,"x_max":688,"o":"m 688 578 l 688 414 l 99 414 l 99 578 l 688 578 z "},"∕":{"ha":675,"x_min":51,"x_max":617,"o":"m 617 1315 l 242 -251 l 51 -251 l 426 1315 l 617 1315 z "},"∙":{"ha":375,"x_min":71,"x_max":310,"o":"m 192 339 q 105 372 139 339 q 71 453 71 404 q 105 534 71 501 q 192 567 139 567 q 276 534 243 567 q 310 453 310 501 q 276 372 310 404 q 192 339 243 339 z "},"√":{"ha":1217,"x_min":29,"x_max":1196,"o":"m 1196 1238 l 481 -58 l 383 -58 l 189 286 l 85 225 l 29 318 l 303 481 l 476 168 l 1068 1238 l 1196 1238 z "},"∞":{"ha":1024,"x_min":39,"x_max":985,"o":"m 747 710 q 919 649 853 710 q 985 483 985 589 q 953 363 985 414 q 868 283 922 311 q 750 256 814 256 q 617 289 675 256 q 506 379 560 322 q 406 289 465 322 q 276 256 347 256 q 104 316 169 256 q 39 482 39 376 q 70 603 39 551 q 156 682 101 654 q 274 710 210 710 q 407 676 350 710 q 515 581 464 642 q 615 674 554 639 q 747 710 675 710 m 288 390 q 363 413 326 390 q 428 472 400 435 q 353 549 385 524 q 288 575 322 575 q 222 551 247 575 q 197 482 197 526 q 222 415 197 439 q 288 390 247 390 m 736 390 q 801 415 776 390 q 826 483 826 439 q 802 551 826 528 q 736 575 778 575 q 656 551 696 575 q 590 485 617 526 q 661 415 628 439 q 736 390 694 390 z "},"∫":{"ha":389,"x_min":-64,"x_max":457,"o":"m 161 1063 q 242 1242 174 1189 q 429 1296 311 1296 l 457 1296 l 440 1132 l 418 1132 q 374 1115 389 1132 q 356 1063 360 1099 l 233 -100 q 151 -280 219 -226 q -37 -333 82 -333 l -64 -333 l -47 -169 l -24 -169 q 19 -153 4 -169 q 38 -100 33 -136 l 161 1063 z "},"≈":{"ha":822,"x_min":44,"x_max":778,"o":"m 44 213 q 132 411 68 347 q 292 475 196 475 q 367 462 333 475 q 440 424 401 449 q 495 394 472 404 q 543 385 518 385 q 603 407 579 385 q 633 474 628 429 l 778 474 q 690 275 754 339 q 529 211 625 211 q 455 224 488 211 q 382 263 422 238 q 326 292 347 282 q 279 301 304 301 q 218 278 243 301 q 186 213 193 256 l 44 213 m 44 539 q 132 738 68 674 q 292 801 196 801 q 367 788 333 801 q 440 750 401 775 q 495 721 472 731 q 543 711 518 711 q 603 733 579 711 q 633 800 628 756 l 778 800 q 690 601 754 665 q 529 538 625 538 q 455 551 488 538 q 382 589 422 564 q 326 618 347 608 q 279 628 304 628 q 218 605 243 628 q 186 539 193 582 l 44 539 z "},"≠":{"ha":1001,"x_min":133,"x_max":890,"o":"m 782 746 l 890 746 l 890 576 l 642 576 l 507 413 l 890 413 l 890 243 l 368 243 l 258 110 l 133 110 l 243 243 l 133 243 l 133 413 l 383 413 l 518 576 l 133 576 l 133 746 l 658 746 l 767 878 l 890 878 l 782 746 z "},"≤":{"ha":743,"x_min":96,"x_max":649,"o":"m 346 546 l 649 285 l 399 285 l 96 544 l 399 806 l 649 806 l 346 546 m 111 199 l 643 199 l 643 50 l 111 50 l 111 199 z "},"≥":{"ha":743,"x_min":96,"x_max":649,"o":"m 96 285 l 397 546 l 96 806 l 344 806 l 649 544 l 344 285 l 96 285 m 100 199 l 632 199 l 632 50 l 100 50 l 100 199 z "},"◊":{"ha":779,"x_min":36,"x_max":743,"o":"m 743 489 l 390 135 l 36 489 l 390 842 l 743 489 m 236 489 l 390 333 l 544 489 l 390 643 l 236 489 z "},"ﬁ":{"ha":867,"x_min":29,"x_max":786,"o":"m 314 769 l 763 769 l 763 0 l 568 0 l 568 610 l 314 610 l 314 0 l 117 0 l 117 610 l 29 610 l 29 769 l 117 769 l 117 808 q 196 1017 117 950 q 435 1079 275 1083 l 435 915 q 341 892 368 917 q 314 801 314 867 l 314 769 m 665 854 q 581 886 614 854 q 547 967 547 918 q 581 1047 547 1015 q 665 1079 614 1079 q 752 1047 718 1079 q 786 967 786 1015 q 752 886 786 918 q 665 854 718 854 z "},"ﬂ":{"ha":865,"x_min":29,"x_max":769,"o":"m 449 610 l 314 610 l 314 0 l 117 0 l 117 610 l 29 610 l 29 769 l 117 769 l 117 808 q 197 1017 117 950 q 440 1079 278 1083 l 440 915 q 342 892 369 917 q 314 801 314 867 l 314 769 l 449 769 l 449 610 m 769 1028 l 769 0 l 575 0 l 575 1028 l 769 1028 z "}}}
